<svg width="109" height="94" viewBox="0 0 109 94" fill="none" xmlns="http://www.w3.org/2000/svg">
<g clip-path="url(#clip0_53_408)">
<path d="M97.7536 68.0224L91.5776 90.5248H105.053L98.8768 68.0224C98.72 67.4528 97.9104 67.4528 97.7536 68.0224Z" fill="white" stroke="#263238" stroke-miterlimit="10"/>
<path d="M91.5776 90.5248H103.126L97.3536 69.4848L91.5776 90.5248Z" fill="#263238" stroke="#263238" stroke-miterlimit="10"/>
<path d="M94.0448 81.5392H102.586L101.437 77.3472H95.1936L94.0448 81.5392Z" fill="white" stroke="#263238" stroke-miterlimit="10"/>
<path d="M106.64 90.1472H89.9872C89.488 90.1472 89.0816 90.5536 89.0816 91.0528C89.0816 91.552 89.488 91.9584 89.9872 91.9584H106.64C107.139 91.9584 107.546 91.552 107.546 91.0528C107.546 90.5536 107.139 90.1472 106.64 90.1472Z" fill="white" stroke="#263238" stroke-miterlimit="10"/>
<path d="M102.563 91.0528C102.563 90.5536 102.157 90.1472 101.658 90.1472H89.9904C89.4912 90.1472 89.0848 90.5536 89.0848 91.0528C89.0848 91.552 89.4912 91.9584 89.9904 91.9584H101.658C102.157 91.9584 102.563 91.552 102.563 91.0528Z" fill="#263238" stroke="#263238" stroke-miterlimit="10"/>
<path d="M25.7856 91.9232C25.7504 91.9232 25.7152 91.92 25.68 91.9168C24.6272 91.8336 23.7056 91.2256 23.216 90.288L10.0064 65.1456L8.4224 64.8928C8.0736 64.8384 7.8368 64.5088 7.8912 64.16C7.9456 63.8112 8.272 63.5712 8.624 63.6288L10.5248 63.9328C10.7232 63.9648 10.896 64.0896 10.9888 64.2688L24.3488 89.6928C24.6336 90.2368 25.1712 90.592 25.7824 90.64C26.6112 90.7008 27.3888 90.176 27.6288 89.3792L30.5408 79.728C30.5888 79.5648 30.7008 79.4272 30.8512 79.3472C31.0016 79.2672 31.1776 79.2512 31.3408 79.2992L50.4704 85.1264L44.2912 73.12C44.128 72.8064 44.2528 72.4192 44.5664 72.2592C44.88 72.096 45.2672 72.2208 45.4272 72.5344L52.3008 85.888C52.4192 86.1152 52.3872 86.3936 52.224 86.592C52.0608 86.7904 51.792 86.8704 51.5456 86.7936L31.5808 80.7104L28.8544 89.7472C28.4512 91.0848 27.1712 91.984 25.7824 91.92L25.7856 91.9232Z" fill="white" stroke="#263238" stroke-miterlimit="10"/>
<path d="M8.4736 65.3792C8.4384 65.3792 8.4064 65.376 8.3712 65.3696L2.048 64.5056C1.4368 64.4224 1.0048 63.856 1.0912 63.2448C1.1744 62.6336 1.73761 62.2016 2.35201 62.288L8.6752 63.152C9.2864 63.2352 9.7184 63.8016 9.632 64.4128C9.552 64.992 9.0432 65.4048 8.4736 65.3792Z" fill="#263238" stroke="#263238" stroke-miterlimit="10"/>
<path d="M57.3888 86.4416C57.5328 83.3184 55.1136 80.6688 51.9904 80.5248C48.8672 80.3808 46.2176 82.8 46.0736 85.9232C45.9296 89.0464 48.3488 91.696 51.472 91.84C54.5952 91.984 57.2448 89.5648 57.3888 86.4416Z" fill="#263238" stroke="#263238" stroke-miterlimit="10"/>
<path d="M53.1084 88.0715C54.1507 87.3112 54.3793 85.8498 53.619 84.8076C52.8586 83.7653 51.3973 83.5367 50.355 84.297C49.3128 85.0574 49.0842 86.5187 49.8445 87.5609C50.6048 88.6032 52.0661 88.8318 53.1084 88.0715Z" fill="white" stroke="#263238" stroke-miterlimit="10"/>
<path d="M17.312 65.2224C17.312 65.2224 29.7568 58.4192 32.704 58.4416C35.6512 58.464 46.2752 66.6592 46.2752 66.6592L17.312 65.2224Z" fill="#263238" stroke="#263238" stroke-miterlimit="10"/>
<path d="M15.312 64.336L19.1552 79.4784L41.4464 80.4992L50.3904 65.9392L15.312 64.336Z" fill="white" stroke="#263238" stroke-miterlimit="10"/>
<path d="M64.0024 82.283L60.7343 82.3969L61.0766 92.2073L64.3478 92.0931L64.2358 88.8926L70.9164 88.6601L71.028 91.8575L74.296 91.7437L73.9542 81.9364L70.6829 82.0506L70.7949 85.2511L64.1144 85.4836L64.0024 82.283Z" fill="#263238" stroke="#263238" stroke-miterlimit="10"/>
<path d="M60.7343 82.3968L57.8995 2.07106L61.172 2.09855L64.0024 82.283L60.7343 82.3968Z" fill="white" stroke="#263238" stroke-miterlimit="10"/>
<path d="M64.0958 85.4854L70.7765 85.252L67.9746 5.06412L61.2939 5.29755L64.0958 85.4854Z" fill="white" stroke="#263238" stroke-miterlimit="10"/>
<path d="M70.6666 82.0546L73.935 81.9404L71.1332 1.75249L67.8648 1.8667L70.6666 82.0546Z" fill="white" stroke="#263238" stroke-miterlimit="10"/>
<path d="M66.9655 81.1814C67.2835 81.1714 67.5524 81.4189 67.5624 81.7369C67.5723 82.0548 67.3248 82.3237 67.0069 82.3337C66.6889 82.3437 66.42 82.0962 66.41 81.7782C66.4001 81.4603 66.6476 81.1913 66.9655 81.1814Z" stroke="#263238" stroke-miterlimit="10"/>
<path d="M66.7695 75.5602C67.0874 75.5503 67.3563 75.7978 67.3663 76.1157C67.3763 76.4337 67.1288 76.7026 66.8108 76.7126C66.4929 76.7225 66.224 76.475 66.214 76.1571C66.204 75.8391 66.4515 75.5702 66.7695 75.5602Z" stroke="#263238" stroke-miterlimit="10"/>
<path d="M66.573 69.9359C66.891 69.926 67.1599 70.1735 67.1699 70.4914C67.1799 70.8094 66.9324 71.0783 66.6144 71.0883C66.2965 71.0982 66.0275 70.8507 66.0176 70.5328C66.0076 70.2148 66.2551 69.9459 66.573 69.9359Z" stroke="#263238" stroke-miterlimit="10"/>
<path d="M64.8127 19.4839C65.1306 19.4739 65.3996 19.7214 65.4095 20.0394C65.4195 20.3573 65.172 20.6262 64.8541 20.6362C64.5361 20.6462 64.2672 20.3987 64.2572 20.0807C64.2472 19.7628 64.4947 19.4939 64.8127 19.4839Z" stroke="#263238" stroke-miterlimit="10"/>
<path d="M64.6163 13.8596C64.9342 13.8496 65.2031 14.0971 65.2131 14.4151C65.2231 14.733 64.9756 15.0019 64.6576 15.0119C64.3397 15.0219 64.0708 14.7744 64.0608 14.4564C64.0508 14.1385 64.2983 13.8695 64.6163 13.8596Z" stroke="#263238" stroke-miterlimit="10"/>
<path d="M64.4202 8.23844C64.7382 8.22846 65.0071 8.47598 65.0171 8.79393C65.0271 9.11188 64.7795 9.3808 64.4616 9.39077C64.1436 9.40074 63.8747 9.15324 63.8647 8.83529C63.8548 8.51734 64.1023 8.24841 64.4202 8.23844Z" stroke="#263238" stroke-miterlimit="10"/>
</g>
<defs>
<clipPath id="clip0_53_408">
<rect width="109" height="92.88" fill="white" transform="translate(0 0.467564)"/>
</clipPath>
</defs>
</svg>
