<svg width="70" height="111" viewBox="0 0 70 111" fill="none" xmlns="http://www.w3.org/2000/svg">
<g clip-path="url(#clip0_41_159)">
<path d="M66.8194 42.2034H20.213C18.6242 42.2034 17.3362 43.4914 17.3362 45.0802V107.364C17.3362 108.952 18.6242 110.24 20.213 110.24H66.8194C68.4082 110.24 69.6962 108.952 69.6962 107.364V45.0802C69.6962 43.4914 68.4082 42.2034 66.8194 42.2034Z" fill="#3D4548"/>
<path d="M67.1903 46.227H19.8421V107.012H67.1903V46.227Z" fill="white" stroke="#3D4548" stroke-width="0.813333" stroke-linecap="round" stroke-linejoin="round"/>
<path d="M33.9014 55.3306H53.131" stroke="#3D4548" stroke-width="0.813333" stroke-linecap="round" stroke-linejoin="round"/>
<path d="M55.6393 63.6144H62.303" stroke="#3D4548" stroke-width="0.813333" stroke-linecap="round" stroke-linejoin="round"/>
<path d="M36.4682 63.6144H54.0533" stroke="#3D4548" stroke-width="0.813333" stroke-linecap="round" stroke-linejoin="round"/>
<path d="M28.2723 63.6144H35.28" stroke="#3D4548" stroke-width="0.813333" stroke-linecap="round" stroke-linejoin="round"/>
<path d="M24.7294 63.6144H26.5545" stroke="#3D4548" stroke-width="0.813333" stroke-linecap="round" stroke-linejoin="round"/>
<path d="M55.7711 70.1219H62.303" stroke="#3D4548" stroke-width="0.813333" stroke-linecap="round" stroke-linejoin="round"/>
<path d="M44.9302 70.1219H54.451" stroke="#3D4548" stroke-width="0.813333" stroke-linecap="round" stroke-linejoin="round"/>
<path d="M28.67 70.1219H43.4759" stroke="#3D4548" stroke-width="0.813333" stroke-linecap="round" stroke-linejoin="round"/>
<path d="M24.7294 70.1219H26.9498" stroke="#3D4548" stroke-width="0.813333" stroke-linecap="round" stroke-linejoin="round"/>
<path d="M52.0696 76.6318H62.303" stroke="#3D4548" stroke-width="0.813333" stroke-linecap="round" stroke-linejoin="round"/>
<path d="M30.1242 76.6318H50.2201" stroke="#3D4548" stroke-width="0.813333" stroke-linecap="round" stroke-linejoin="round"/>
<path d="M24.7294 76.6318H28.5358" stroke="#3D4548" stroke-width="0.813333" stroke-linecap="round" stroke-linejoin="round"/>
<path d="M59.8703 83.1393H62.303" stroke="#3D4548" stroke-width="0.813333" stroke-linecap="round" stroke-linejoin="round"/>
<path d="M31.7102 83.1393H57.3595" stroke="#3D4548" stroke-width="0.813333" stroke-linecap="round" stroke-linejoin="round"/>
<path d="M24.7294 83.1393H29.8583" stroke="#3D4548" stroke-width="0.813333" stroke-linecap="round" stroke-linejoin="round"/>
<path d="M59.475 89.6492H62.303" stroke="#3D4548" stroke-width="0.813333" stroke-linecap="round" stroke-linejoin="round"/>
<path d="M37.3954 89.6492H57.3595" stroke="#3D4548" stroke-width="0.813333" stroke-linecap="round" stroke-linejoin="round"/>
<path d="M24.7294 89.6492H35.6752" stroke="#3D4548" stroke-width="0.813333" stroke-linecap="round" stroke-linejoin="round"/>
<path d="M49.5588 96.1567H62.303" stroke="#3D4548" stroke-width="0.813333" stroke-linecap="round" stroke-linejoin="round"/>
<path d="M24.7294 96.1567H47.0456" stroke="#3D4548" stroke-width="0.813333" stroke-linecap="round" stroke-linejoin="round"/>
<path d="M49.7516 40.8297C49.5202 40.8275 49.2937 40.7625 49.0963 40.6416C48.8989 40.5207 48.738 40.3485 48.6308 40.1434C48.5236 39.9383 48.4741 39.7079 48.4875 39.4768C48.501 39.2457 48.577 39.0226 48.7073 38.8314C49.1339 38.1491 49.3692 37.3647 49.3886 36.5604C49.4079 35.756 49.2106 34.9612 48.8174 34.2592C48.4241 33.5572 47.8493 32.9739 47.1532 32.5704C46.4571 32.1668 45.6653 31.9578 44.8607 31.9654C44.0561 31.9729 43.2684 32.1966 42.5799 32.6131C41.8915 33.0297 41.3277 33.6236 40.9477 34.3328C40.5676 35.042 40.3852 35.8404 40.4196 36.6443C40.4541 37.4481 40.704 38.228 41.1433 38.9021C41.2613 39.0948 41.3256 39.3156 41.3295 39.5416C41.3334 39.7675 41.2767 39.9904 41.1655 40.187C41.0542 40.3837 40.8923 40.547 40.6966 40.66C40.5009 40.773 40.2786 40.8316 40.0526 40.8297H32.2446L34.3528 46.8858H55.4368L57.545 40.8297H49.7516ZM44.896 38.2506C44.585 38.2511 44.2809 38.1593 44.0221 37.9868C43.7633 37.8144 43.5615 37.569 43.4423 37.2817C43.3231 36.9945 43.2917 36.6784 43.3523 36.3733C43.4128 36.0683 43.5625 35.7881 43.7824 35.5682C44.0024 35.3483 44.2826 35.1985 44.5876 35.138C44.8926 35.0774 45.2088 35.1088 45.496 35.228C45.7833 35.3472 46.0286 35.549 46.2011 35.8078C46.3736 36.0666 46.4654 36.3707 46.4649 36.6817C46.4649 37.0978 46.2996 37.4969 46.0054 37.7911C45.7112 38.0853 45.3121 38.2506 44.896 38.2506Z" fill="white" stroke="#3D4548" stroke-width="0.813333" stroke-linecap="round" stroke-linejoin="round"/>
<path d="M32.9193 101.989C35.1361 99.9764 35.3014 96.5476 33.2885 94.3308C31.2757 92.114 27.8468 91.9487 25.63 93.9616C23.4132 95.9745 23.2479 99.4033 25.2608 101.62C27.2737 103.837 30.7025 104.002 32.9193 101.989Z" fill="#3D4548" stroke="#3D4548" stroke-width="0.813333" stroke-linecap="round" stroke-linejoin="round"/>
<path d="M29.6655 100.246C29.4916 100.245 29.3199 100.206 29.1621 100.133C29.0043 100.06 28.8639 99.9535 28.7505 99.8216L26.3715 97.04C26.2528 96.9211 26.1599 96.779 26.0987 96.6225C26.0375 96.4661 26.0093 96.2987 26.0158 96.1308C26.0223 95.9629 26.0634 95.7982 26.1365 95.6469C26.2096 95.4957 26.3132 95.3611 26.4408 95.2518C26.5683 95.1424 26.7171 95.0606 26.8777 95.0114C27.0384 94.9622 27.2075 94.9468 27.3744 94.966C27.5413 94.9852 27.7024 95.0387 27.8477 95.1231C27.993 95.2075 28.1192 95.321 28.2186 95.4564L29.6826 97.1791L34.5626 91.733C34.6657 91.6014 34.7947 91.4925 34.9417 91.4129C35.0887 91.3332 35.2504 91.2847 35.4169 91.2702C35.5834 91.2557 35.7512 91.2755 35.9097 91.3285C36.0682 91.3815 36.2141 91.4665 36.3384 91.5783C36.4627 91.69 36.5628 91.8261 36.6323 91.9781C36.7018 92.1301 36.7394 92.2947 36.7426 92.4619C36.7459 92.629 36.7147 92.795 36.6512 92.9495C36.5876 93.1041 36.4929 93.244 36.3731 93.3605L30.5561 99.8387C30.4418 99.9654 30.3021 100.067 30.1462 100.136C29.9903 100.205 29.8215 100.241 29.6509 100.241L29.6655 100.246Z" fill="#1FC557"/>
<path d="M35.4922 91.6988C35.657 91.6982 35.8184 91.7454 35.9568 91.8349C36.0951 91.9244 36.2045 92.0522 36.2715 92.2027C36.3385 92.3533 36.3602 92.52 36.3341 92.6827C36.3079 92.8454 36.235 92.997 36.1242 93.1189L30.3072 99.5971C30.2278 99.6862 30.1304 99.7574 30.0215 99.8062C29.9126 99.855 29.7946 99.8802 29.6753 99.8802C29.5539 99.8794 29.4342 99.8524 29.3243 99.801C29.2144 99.7496 29.1169 99.6751 29.0384 99.5825L26.6472 96.796C26.5719 96.7115 26.5142 96.6127 26.4774 96.5056C26.4407 96.3985 26.4257 96.2852 26.4333 96.1722C26.4409 96.0592 26.471 95.9489 26.5218 95.8477C26.5725 95.7464 26.643 95.6564 26.729 95.5827C26.815 95.509 26.9148 95.4532 27.0226 95.4186C27.1304 95.384 27.2441 95.3712 27.3569 95.3811C27.4697 95.3909 27.5794 95.4231 27.6796 95.4759C27.7798 95.5286 27.8685 95.6008 27.9404 95.6882L29.6899 97.7281L34.8578 91.9721C34.9375 91.8828 35.0353 91.8113 35.1447 91.7625C35.254 91.7137 35.3725 91.6887 35.4922 91.6891M35.4922 90.9571C35.2701 90.9575 35.0505 91.0044 34.8475 91.0948C34.6445 91.1851 34.4627 91.3169 34.3137 91.4817L29.7021 96.6179L28.4968 95.2124C28.3627 95.0503 28.1977 94.9165 28.0113 94.8189C27.825 94.7212 27.6211 94.6617 27.4115 94.6438C27.2019 94.6258 26.9908 94.6498 26.7905 94.7143C26.5903 94.7789 26.405 94.8827 26.2453 95.0196C26.0856 95.1566 25.9548 95.324 25.8606 95.5121C25.7663 95.7002 25.7105 95.9052 25.6964 96.1151C25.6822 96.325 25.7101 96.5356 25.7782 96.7346C25.8464 96.9336 25.9535 97.1171 26.0934 97.2742L28.4724 100.051C28.6193 100.221 28.8008 100.359 29.0048 100.454C29.2088 100.549 29.4307 100.6 29.6558 100.602H29.6753C29.8972 100.603 30.1167 100.556 30.3193 100.466C30.522 100.375 30.7033 100.243 30.8514 100.078L36.6708 93.5996C36.8744 93.3716 37.0078 93.0896 37.0549 92.7876C37.1021 92.4855 37.0609 92.1763 36.9364 91.8971C36.8119 91.6179 36.6093 91.3806 36.3531 91.2138C36.0969 91.0471 35.7979 90.9579 35.4922 90.9571Z" fill="#3D4548"/>
<path d="M45.0131 35.1104V19.9628" stroke="#3D4548" stroke-width="0.813333" stroke-linecap="round" stroke-linejoin="round"/>
<path d="M44.3202 16.9299V18.3427L43.7565 19.3187C43.7562 19.4751 43.7868 19.6301 43.8465 19.7747C43.9062 19.9193 43.9939 20.0507 44.1046 20.1614C44.2152 20.272 44.3466 20.3597 44.4912 20.4194C44.6358 20.4791 44.7908 20.5097 44.9472 20.5094C45.1035 20.5094 45.2582 20.4786 45.4025 20.4187C45.5469 20.3588 45.678 20.2711 45.7883 20.1605C45.8987 20.0499 45.9862 19.9186 46.0458 19.7742C46.1053 19.6297 46.1358 19.4749 46.1355 19.3187V18.3427" stroke="#3D4548" stroke-width="2.44" stroke-linecap="round" stroke-linejoin="round"/>
<path d="M43.0928 16.864H45.4743V14.2191H43.0928V16.864Z" fill="white" stroke="#3D4548" stroke-width="0.813333" stroke-linecap="round" stroke-linejoin="round"/>
<path d="M42.2144 15.9808H46.3576V10.6689H42.2144V15.9808Z" fill="white" stroke="#3D4548" stroke-width="0.813333" stroke-linecap="round" stroke-linejoin="round"/>
<path d="M40.9798 14.9682H47.5483V13.3382H40.9798V14.9682Z" fill="white" stroke="#3D4548" stroke-width="0.813333" stroke-linecap="round" stroke-linejoin="round"/>
<path d="M44.2836 13.3358H45.2254L46.5552 14.8437L46.4161 14.9682H45.7232L44.2836 13.3358Z" fill="#3D4548"/>
<path d="M47.031 13.3358L47.5483 13.919V14.9682H47.5312L46.0916 13.3358H47.031Z" fill="#3D4548"/>
<path d="M42.478 13.3358H43.4174L44.7472 14.8437L44.6081 14.9682H43.9151L42.478 13.3358Z" fill="#3D4548"/>
<path d="M40.9774 13.6872V13.3358H41.6093L42.9391 14.8437L42.8 14.9682H42.1071L40.9774 13.6872Z" fill="#3D4548"/>
<path d="M44.3787 10.5762V7.37976" stroke="#3D4548" stroke-width="1.62667" stroke-linecap="round" stroke-linejoin="round"/>
<path d="M1.10001 6.57616V2.37976" stroke="#3D4548" stroke-width="1.62667" stroke-linecap="round" stroke-linejoin="round"/>
<path d="M1.09068 7.29923H46.0379V5.38384L37.3491 1.70432H1.09068" stroke="#3D4548" stroke-width="1.62667" stroke-linecap="round" stroke-linejoin="round"/>
</g>
<defs>
<clipPath id="clip0_41_159">
<rect width="70" height="111" fill="white"/>
</clipPath>
</defs>
</svg>
