<svg width="350" height="234" viewBox="0 0 350 234" fill="none" xmlns="http://www.w3.org/2000/svg">
<path d="M229.889 213.561C276.838 213.561 314.897 210.991 314.897 207.821C314.897 204.651 276.838 202.081 229.889 202.081C182.941 202.081 144.881 204.651 144.881 207.821C144.881 210.991 182.941 213.561 229.889 213.561Z" fill="#EBEBEB"/>
<path d="M26.488 169.811L63.616 169.699L100.744 169.657L175 169.582L249.256 169.657L286.384 169.699L323.512 169.811L286.384 169.927L249.256 169.969L175 170.044L100.744 169.969L63.616 169.927L26.488 169.811Z" fill="#263238"/>
<path d="M264.614 51.2867H85.386V171.178H264.614V51.2867Z" fill="#DBDBDB"/>
<path d="M263.312 52.752H86.688V169.717H263.312V52.752Z" fill="#263238"/>
<path d="M287.957 180.166H62.0433V188.393H287.957V180.166Z" fill="#C7C7C7"/>
<path d="M62.0433 180.166L85.386 171.178H264.614L287.957 180.166H62.0433Z" fill="#DBDBDB"/>
<path d="M87.472 176.979L102.536 171.178H247.464L262.528 176.979H87.472Z" fill="#263238"/>
<path d="M253.465 61.5954H96.5393V160.869H253.465V61.5954Z" fill="white"/>
<path d="M253.465 61.5954H96.5393V65.4173H253.465V61.5954Z" fill="#455A64"/>
<path d="M99.5727 63.504C99.5727 63.6886 99.518 63.8691 99.4154 64.0225C99.3129 64.176 99.1671 64.2957 98.9966 64.3663C98.826 64.4369 98.6383 64.4554 98.4573 64.4194C98.2763 64.3834 98.1099 64.2945 97.9794 64.164C97.8489 64.0335 97.76 63.8671 97.724 63.6861C97.688 63.505 97.7065 63.3174 97.7771 63.1468C97.8477 62.9763 97.9674 62.8305 98.1209 62.728C98.2743 62.6254 98.4548 62.5707 98.6394 62.5707C98.8869 62.5707 99.1243 62.669 99.2994 62.844C99.4744 63.0191 99.5727 63.2565 99.5727 63.504Z" fill="#FB7D47"/>
<path d="M103.441 63.504C103.441 63.6886 103.387 63.8691 103.284 64.0225C103.182 64.176 103.036 64.2957 102.865 64.3663C102.695 64.4369 102.507 64.4554 102.326 64.4194C102.145 64.3834 101.979 64.2945 101.848 64.164C101.718 64.0335 101.629 63.8671 101.593 63.6861C101.557 63.505 101.575 63.3174 101.646 63.1468C101.716 62.9763 101.836 62.8305 101.99 62.728C102.143 62.6254 102.323 62.5707 102.508 62.5707C102.756 62.5707 102.993 62.669 103.168 62.844C103.343 63.0191 103.441 63.2565 103.441 63.504Z" fill="#EBEBEB"/>
<path d="M107.333 63.504C107.333 63.6886 107.279 63.8691 107.176 64.0225C107.073 64.176 106.928 64.2957 106.757 64.3663C106.587 64.4369 106.399 64.4554 106.218 64.4194C106.037 64.3834 105.871 64.2945 105.74 64.164C105.61 64.0335 105.521 63.8671 105.485 63.6861C105.449 63.505 105.467 63.3174 105.538 63.1468C105.608 62.9763 105.728 62.8305 105.881 62.728C106.035 62.6254 106.215 62.5707 106.4 62.5707C106.648 62.5707 106.885 62.669 107.06 62.844C107.235 63.0191 107.333 63.2565 107.333 63.504Z" fill="white"/>
<path d="M171.579 130.172H200.172V108.234H171.579V130.172Z" fill="#EBEBEB"/>
<path d="M174.421 113.036C174.312 113.583 174.381 114.151 174.62 114.655C174.858 115.16 175.252 115.574 175.744 115.837C176.236 116.101 176.799 116.199 177.351 116.117C177.903 116.035 178.414 115.778 178.808 115.384C179.203 114.989 179.46 114.478 179.541 113.926C179.623 113.375 179.525 112.811 179.262 112.319C178.999 111.827 178.584 111.433 178.08 111.195C177.575 110.957 177.008 110.887 176.461 110.997C175.957 111.097 175.495 111.345 175.132 111.708C174.769 112.07 174.522 112.533 174.421 113.036Z" fill="white"/>
<path d="M181.011 125.449H200.167L190.587 113.643L181.011 125.449Z" fill="#C7C7C7"/>
<path d="M171.575 125.459H188.566L180.073 117.768L171.575 125.459Z" fill="#DBDBDB"/>
<path d="M200.167 125.449H171.575V130.177H200.167V125.449Z" fill="#DBDBDB"/>
<path d="M125.762 108.239H104.286V110.045H125.762V108.239Z" fill="#DBDBDB"/>
<path d="M166.437 112.429H104.286V114.235H166.437V112.429Z" fill="#DBDBDB"/>
<path d="M166.437 116.405H104.286V118.211H166.437V116.405Z" fill="#DBDBDB"/>
<path d="M166.437 120.381H104.286V122.187H166.437V120.381Z" fill="#DBDBDB"/>
<path d="M166.437 124.357H104.286V126.163H166.437V124.357Z" fill="#DBDBDB"/>
<path d="M166.437 128.329H104.286V130.135H166.437V128.329Z" fill="#DBDBDB"/>
<path d="M177.52 72.7673H156.044V77.602H177.52V72.7673Z" fill="#DBDBDB"/>
<path d="M200.167 80.934H156.044V82.74H200.167V80.934Z" fill="#DBDBDB"/>
<path d="M200.167 84.91H156.044V86.716H200.167V84.91Z" fill="#DBDBDB"/>
<path d="M200.167 88.886H156.044V90.692H200.167V88.886Z" fill="#DBDBDB"/>
<path d="M200.167 92.862H156.044V94.668H200.167V92.862Z" fill="#DBDBDB"/>
<path d="M200.167 98.1494H156.044V99.9554H200.167V98.1494Z" fill="#DBDBDB"/>
<path d="M200.167 102.125H156.044V103.931H200.167V102.125Z" fill="#DBDBDB"/>
<path d="M245.709 72.7673H206.435V77.686H245.709V72.7673Z" fill="#FB7D47"/>
<path d="M245.607 77.728H206.542V154.882H245.607V77.728Z" fill="white"/>
<path d="M245.714 155.008H206.435V77.602H245.714V155.008ZM206.649 154.756H245.495V77.854H206.649V154.756Z" fill="#DBDBDB"/>
<path d="M206.645 154.929L206.439 154.835L245.504 77.6814L245.705 77.7747L206.645 154.929Z" fill="#DBDBDB"/>
<path d="M245.504 154.929L206.439 77.7747L206.645 77.6814L245.705 154.835L245.504 154.929Z" fill="#DBDBDB"/>
<path d="M151.177 72.8513H104.37V103.843H151.177V72.8513Z" fill="white"/>
<path d="M104.295 103.931V103.852V72.7814H104.375H151.256V103.931H151.2H104.295ZM104.445 72.9354V103.773H151.111V72.94L104.445 72.9354Z" fill="#DBDBDB"/>
<path d="M104.445 72.9353C108.379 75.432 112.294 77.966 116.2 80.5047L127.89 88.1673L139.533 95.914L145.334 99.8153L151.107 103.759L145.213 99.9973L139.351 96.194L127.657 88.5314L116.018 80.78C112.149 78.1854 108.267 75.6 104.445 72.9353Z" fill="#DBDBDB"/>
<path d="M151.102 72.9353C147.261 75.5813 143.397 78.1854 139.529 80.78L127.89 88.5314L116.2 96.194L110.334 99.9973L104.445 103.759L110.217 99.8153L116.013 95.914L127.652 88.1673L139.347 80.5047C143.267 77.966 147.163 75.432 151.102 72.9353Z" fill="#DBDBDB"/>
<path d="M104.445 133.154V154.947H199.948V133.154H104.445Z" fill="white"/>
<path d="M200.107 133.093V155.027H104.286V133.093H200.107ZM199.789 154.887V133.215H104.589V154.887H199.789Z" fill="#DBDBDB"/>
<path d="M200.009 154.891L199.892 155.003L104.384 133.21L104.501 133.098L200.009 154.891Z" fill="#DBDBDB"/>
<path d="M200.009 133.21L104.501 155.003L104.384 154.891L199.892 133.098L200.009 133.21Z" fill="#DBDBDB"/>
<path d="M66.0048 53.8517L56.0348 64.4242L57.0635 65.3943L67.0335 54.8218L66.0048 53.8517Z" fill="#263238"/>
<path d="M66.7613 64.6473H56.5507V66.0613H66.7613V64.6473Z" fill="#455A64"/>
<path d="M66.7613 53.6293H56.5507V55.0433H66.7613V53.6293Z" fill="#455A64"/>
<path d="M57.0641 53.8478L56.0352 54.8177L66.0033 65.392L67.0322 64.4221L57.0641 53.8478Z" fill="#455A64"/>
<path d="M66.0033 64.8688L56.0333 75.4413L57.0621 76.4114L67.0321 65.8389L66.0033 64.8688Z" fill="#263238"/>
<path d="M66.7613 75.6653H56.5507V77.0793H66.7613V75.6653Z" fill="#455A64"/>
<path d="M66.7613 64.6473H56.5507V66.0613H66.7613V64.6473Z" fill="#455A64"/>
<path d="M57.0619 64.8658L56.033 65.8357L66.0011 76.4099L67.03 75.44L57.0619 64.8658Z" fill="#455A64"/>
<path d="M66.002 75.886L56.032 86.4585L57.0607 87.4286L67.0307 76.8561L66.002 75.886Z" fill="#263238"/>
<path d="M66.7613 86.6833H56.5507V88.0973H66.7613V86.6833Z" fill="#455A64"/>
<path d="M66.7613 75.6653H56.5507V77.0793H66.7613V75.6653Z" fill="#455A64"/>
<path d="M57.0642 75.8837L56.0353 76.8536L66.0034 87.4279L67.0323 86.458L57.0642 75.8837Z" fill="#455A64"/>
<path d="M66.0053 86.9031L56.0353 97.4756L57.064 98.4457L67.034 87.8732L66.0053 86.9031Z" fill="#263238"/>
<path d="M66.7613 97.7014H56.5507V99.1154H66.7613V97.7014Z" fill="#455A64"/>
<path d="M66.7613 86.6833H56.5507V88.0973H66.7613V86.6833Z" fill="#455A64"/>
<path d="M57.0666 86.9017L56.0377 87.8716L66.0059 98.4458L67.0348 97.4759L57.0666 86.9017Z" fill="#455A64"/>
<path d="M66.0039 97.9249L56.0339 108.497L57.0627 109.468L67.0327 98.895L66.0039 97.9249Z" fill="#263238"/>
<path d="M66.7613 108.719H56.5507V110.133H66.7613V108.719Z" fill="#455A64"/>
<path d="M66.7613 97.7014H56.5507V99.1154H66.7613V97.7014Z" fill="#455A64"/>
<path d="M57.0659 97.9162L56.037 98.8861L66.0051 109.46L67.034 108.49L57.0659 97.9162Z" fill="#455A64"/>
<path d="M66.0072 108.942L56.0372 119.515L57.066 120.485L67.036 109.912L66.0072 108.942Z" fill="#263238"/>
<path d="M66.7613 119.733H56.5507V121.147H66.7613V119.733Z" fill="#455A64"/>
<path d="M66.7613 108.719H56.5507V110.133H66.7613V108.719Z" fill="#455A64"/>
<path d="M57.0636 108.934L56.0347 109.904L66.0028 120.478L67.0317 119.508L57.0636 108.934Z" fill="#455A64"/>
<path d="M66.0025 119.956L56.0325 130.529L57.0612 131.499L67.0312 120.926L66.0025 119.956Z" fill="#263238"/>
<path d="M66.7613 130.751H56.5507V132.165H66.7613V130.751Z" fill="#455A64"/>
<path d="M66.7613 119.733H56.5507V121.147H66.7613V119.733Z" fill="#455A64"/>
<path d="M57.066 119.947L56.0371 120.917L66.0053 131.492L67.0342 130.522L57.066 119.947Z" fill="#455A64"/>
<path d="M66.0058 130.968L56.0358 141.541L57.0645 142.511L67.0345 131.939L66.0058 130.968Z" fill="#263238"/>
<path d="M66.7613 141.769H56.5507V143.183H66.7613V141.769Z" fill="#455A64"/>
<path d="M66.7613 130.751H56.5507V132.165H66.7613V130.751Z" fill="#455A64"/>
<path d="M57.0685 130.965L56.0396 131.935L66.0077 142.51L67.0366 141.54L57.0685 130.965Z" fill="#455A64"/>
<path d="M66.0091 141.981L56.0391 152.553L57.0678 153.524L67.0378 142.951L66.0091 141.981Z" fill="#263238"/>
<path d="M66.7613 152.787H56.5507V154.201H66.7613V152.787Z" fill="#455A64"/>
<path d="M66.7613 141.769H56.5507V143.183H66.7613V141.769Z" fill="#455A64"/>
<path d="M57.0661 141.983L56.0372 142.953L66.0054 153.527L67.0343 152.558L57.0661 141.983Z" fill="#455A64"/>
<path d="M66.0048 153.007L56.0385 163.583L57.0675 164.553L67.0338 153.977L66.0048 153.007Z" fill="#263238"/>
<path d="M66.7613 163.805H56.5507V165.219H66.7613V163.805Z" fill="#455A64"/>
<path d="M66.7613 152.787H56.5507V154.201H66.7613V152.787Z" fill="#455A64"/>
<path d="M57.0686 153.006L56.0397 153.976L66.0078 164.55L67.0367 163.58L57.0686 153.006Z" fill="#455A64"/>
<path d="M66.0013 164.021L56.035 174.597L57.0641 175.567L67.0304 164.991L66.0013 164.021Z" fill="#263238"/>
<path d="M66.7613 174.823H56.5507V176.237H66.7613V174.823Z" fill="#455A64"/>
<path d="M66.7613 163.805H56.5507V165.219H66.7613V163.805Z" fill="#455A64"/>
<path d="M57.0678 164.016L56.0389 164.986L66.0071 175.56L67.036 174.59L57.0678 164.016Z" fill="#455A64"/>
<path d="M68.8053 181.09V174.673H54.0773V181.09H68.8053Z" fill="#455A64"/>
<path d="M57.764 175.075L57.764 54.208H54.0727L54.0727 175.075H57.764Z" fill="#455A64"/>
<path d="M68.8053 175.075L68.8053 54.208H65.114L65.114 175.075H68.8053Z" fill="#455A64"/>
<path d="M165.821 53.3447L154.789 42.4713L61.6701 25.1207L33.3714 42.5554L32.6294 41.3467L61.3947 23.6273L155.47 41.16L166.815 52.332L165.821 53.3447Z" fill="#455A64"/>
<path d="M72.898 43.9973L61.558 28.2333L50.7033 43.974L48.37 42.364L61.5067 23.3147L75.1987 42.3407L72.898 43.9973Z" fill="#263238"/>
<path d="M144.405 43.7357L143.435 44.7646L154.009 54.7328L154.979 53.7039L144.405 43.7357Z" fill="#263238"/>
<path d="M155.638 43.9973H154.224V54.208H155.638V43.9973Z" fill="#455A64"/>
<path d="M144.62 43.9973H143.206V54.208H144.62V43.9973Z" fill="#455A64"/>
<path d="M154.007 43.7342L143.433 53.7024L144.403 54.7313L154.977 44.7631L154.007 43.7342Z" fill="#455A64"/>
<path d="M133.385 43.7357L132.415 44.7646L142.989 54.7327L143.959 53.7038L133.385 43.7357Z" fill="#263238"/>
<path d="M144.62 43.9973H143.206V54.208H144.62V43.9973Z" fill="#455A64"/>
<path d="M133.602 43.9973H132.188V54.208H133.602V43.9973Z" fill="#455A64"/>
<path d="M142.978 43.7124L132.406 53.6824L133.376 54.7111L143.948 44.7411L142.978 43.7124Z" fill="#455A64"/>
<path d="M122.364 43.7356L121.394 44.7645L131.969 54.7327L132.939 53.7038L122.364 43.7356Z" fill="#263238"/>
<path d="M133.602 43.9973H132.188V54.208H133.602V43.9973Z" fill="#455A64"/>
<path d="M122.584 43.9973H121.17V54.208H122.584V43.9973Z" fill="#455A64"/>
<path d="M131.961 43.7115L121.389 53.6815L122.359 54.7103L132.932 44.7402L131.961 43.7115Z" fill="#455A64"/>
<path d="M111.349 43.7356L110.379 44.7645L120.953 54.7326L121.923 53.7037L111.349 43.7356Z" fill="#263238"/>
<path d="M122.584 43.9973H121.17V54.208H122.584V43.9973Z" fill="#455A64"/>
<path d="M111.566 43.9973H110.152V54.208H111.566V43.9973Z" fill="#455A64"/>
<path d="M120.945 43.7153L110.372 53.6853L111.342 54.7141L121.915 44.7441L120.945 43.7153Z" fill="#455A64"/>
<path d="M100.331 43.7321L99.3615 44.761L109.936 54.7292L110.906 53.7003L100.331 43.7321Z" fill="#263238"/>
<path d="M111.566 43.9973H110.152V54.208H111.566V43.9973Z" fill="#455A64"/>
<path d="M100.553 43.9973H99.1387V54.208H100.553V43.9973Z" fill="#455A64"/>
<path d="M109.928 43.7191L99.3557 53.6891L100.326 54.7179L110.898 44.7479L109.928 43.7191Z" fill="#455A64"/>
<path d="M89.3156 43.7321L88.3457 44.761L98.92 54.7291L99.8899 53.7002L89.3156 43.7321Z" fill="#263238"/>
<path d="M100.553 43.9973H99.1387V54.208H100.553V43.9973Z" fill="#455A64"/>
<path d="M89.5347 43.9973H88.1207V54.208H89.5347V43.9973Z" fill="#455A64"/>
<path d="M98.9116 43.7183L88.3391 53.6883L89.3092 54.717L99.8817 44.747L98.9116 43.7183Z" fill="#455A64"/>
<path d="M78.2951 43.732L77.3252 44.7609L87.8994 54.7291L88.8694 53.7002L78.2951 43.732Z" fill="#263238"/>
<path d="M89.5347 43.9973H88.1207V54.208H89.5347V43.9973Z" fill="#455A64"/>
<path d="M78.5167 43.9973H77.1027V54.208H78.5167V43.9973Z" fill="#455A64"/>
<path d="M87.8983 43.7189L77.3258 53.6889L78.2959 54.7176L88.8684 44.7476L87.8983 43.7189Z" fill="#455A64"/>
<path d="M67.2794 43.732L66.3094 44.7609L76.8837 54.729L77.8536 53.7001L67.2794 43.732Z" fill="#263238"/>
<path d="M78.5167 43.9973H77.1027V54.208H78.5167V43.9973Z" fill="#455A64"/>
<path d="M67.4987 43.9973H66.0847V54.208H67.4987V43.9973Z" fill="#455A64"/>
<path d="M76.8817 43.718L66.3092 53.688L67.2793 54.7168L77.8518 44.7468L76.8817 43.718Z" fill="#455A64"/>
<path d="M56.259 43.7319L55.2891 44.7608L65.8633 54.729L66.8332 53.7001L56.259 43.7319Z" fill="#263238"/>
<path d="M67.4987 43.9973H66.0847V54.208H67.4987V43.9973Z" fill="#455A64"/>
<path d="M56.4806 43.9973H55.0667V54.208H56.4806V43.9973Z" fill="#455A64"/>
<path d="M65.8605 43.7172L55.288 53.6872L56.2581 54.7159L66.8306 44.7459L65.8605 43.7172Z" fill="#455A64"/>
<path d="M45.2432 43.7318L44.2733 44.7607L54.8476 54.7289L55.8175 53.7L45.2432 43.7318Z" fill="#263238"/>
<path d="M56.4806 43.9973H55.0667V54.208H56.4806V43.9973Z" fill="#455A64"/>
<path d="M45.4627 43.9973H44.0487V54.208H45.4627V43.9973Z" fill="#455A64"/>
<path d="M54.8438 43.7163L44.2712 53.6863L45.2413 54.7151L55.8139 44.7451L54.8438 43.7163Z" fill="#455A64"/>
<path d="M34.4824 43.8087L33.5067 44.8409L44.1151 54.868L45.0907 53.8357L34.4824 43.8087Z" fill="#263238"/>
<path d="M45.4627 43.9973H44.0487V54.208H45.4627V43.9973Z" fill="#455A64"/>
<path d="M34.4446 43.9973H33.0306V54.208H34.4446V43.9973Z" fill="#455A64"/>
<path d="M43.8272 43.7202L33.2546 53.6902L34.2247 54.7189L44.7973 44.7489L43.8272 43.7202Z" fill="#455A64"/>
<path d="M32.6153 41.3233H26.208V56.0513H32.6153V41.3233Z" fill="#263238"/>
<path d="M39.032 41.3233H32.6154V56.0513H39.032V41.3233Z" fill="#455A64"/>
<path d="M47.502 56.0513H35.2007V63.3967H47.502V56.0513Z" fill="#455A64"/>
<path d="M166.815 52.36H32.6154V56.0514H166.815V52.36Z" fill="#455A64"/>
<path d="M159.157 45.0147H32.6154V41.3233H155.549L159.157 45.0147Z" fill="#455A64"/>
<path d="M158.051 43.9973H156.637V54.208H158.051V43.9973Z" fill="#455A64"/>
<path d="M106.363 96.194L115.229 94.7753L124.096 93.4033L141.848 90.7293L141.895 90.7247L141.941 90.734L171.481 98.3967L186.247 102.265L200.993 106.185L186.186 102.494L171.393 98.7467L141.825 91.182L141.918 91.1867L124.147 93.7487L115.262 94.9947L106.363 96.194Z" fill="#263238"/>
<path d="M136.458 57.5587H135.044V78.4654H136.458V57.5587Z" fill="#263238"/>
<path d="M148.437 58.0253H147.023V78.932H148.437V58.0253Z" fill="#263238"/>
<path d="M151.177 56.0513H132.505V59.0613H151.177V56.0513Z" fill="#455A64"/>
<path d="M142.548 81.9793L142.389 85.12L141.923 84.5787C142.428 84.7087 142.909 84.9166 143.351 85.1947C143.806 85.4683 144.189 85.8457 144.471 86.296C144.741 86.7501 144.878 87.2716 144.865 87.8001C144.852 88.3287 144.689 88.8427 144.396 89.2827C144.122 89.6981 143.746 90.0363 143.304 90.265C142.862 90.4938 142.369 90.6054 141.871 90.5893C141.401 90.551 140.946 90.4047 140.541 90.1619C140.136 89.9191 139.793 89.5863 139.538 89.1893C139.815 89.5422 140.17 89.8267 140.574 90.0209C140.979 90.2151 141.423 90.3138 141.871 90.3093C142.298 90.2829 142.711 90.1482 143.071 89.9179C143.431 89.6877 143.726 89.3695 143.929 88.9933C144.118 88.6436 144.206 88.2478 144.181 87.8509C144.156 87.4541 144.02 87.0722 143.789 86.7487C143.26 86.1458 142.528 85.7588 141.731 85.6613L141.302 85.5867L141.279 85.12L141.125 81.9793H142.548Z" fill="#263238"/>
<path d="M151.177 75.5393V80.6633L141.839 82.88L132.505 80.6633V75.5393H151.177Z" fill="#455A64"/>
<path d="M136.789 78.5447C136.79 78.7599 136.727 78.9706 136.608 79.15C136.49 79.3295 136.32 79.4696 136.121 79.5526C135.923 79.6356 135.704 79.6578 135.493 79.6164C135.282 79.5749 135.087 79.4717 134.935 79.3199C134.782 79.168 134.678 78.9742 134.636 78.7632C134.594 78.5521 134.615 78.3333 134.697 78.1343C134.779 77.9354 134.919 77.7653 135.097 77.6456C135.276 77.5259 135.487 77.462 135.702 77.462C135.845 77.4614 135.986 77.489 136.118 77.5431C136.25 77.5972 136.37 77.6769 136.471 77.7775C136.572 77.8781 136.652 77.9976 136.707 78.1293C136.761 78.2609 136.789 78.4021 136.789 78.5447Z" fill="#263238"/>
<path d="M149.058 78.5447C149.058 78.7588 148.995 78.9681 148.876 79.1462C148.757 79.3242 148.588 79.463 148.39 79.5449C148.192 79.6269 147.974 79.6483 147.764 79.6065C147.554 79.5648 147.361 79.4616 147.21 79.3102C147.058 79.1588 146.955 78.9659 146.914 78.7559C146.872 78.5459 146.893 78.3282 146.975 78.1304C147.057 77.9325 147.196 77.7634 147.374 77.6445C147.552 77.5255 147.761 77.462 147.975 77.462C148.263 77.462 148.538 77.5761 148.741 77.7791C148.944 77.9821 149.058 78.2575 149.058 78.5447Z" fill="#263238"/>
<path d="M103.46 117.538L198.68 127.782L201.003 106.183L105.783 95.9396L103.46 117.538Z" fill="#FB7D47"/>
<path d="M155.512 118.435L199.173 123.135L178.603 109.041L155.512 118.435Z" fill="#FB7D47"/>
<path opacity="0.2" d="M155.512 118.435L199.173 123.135L178.603 109.041L155.512 118.435Z" fill="black"/>
<path d="M134.013 116.135L172.732 120.302L154.196 110.572L134.013 116.135Z" fill="#FB7D47"/>
<path opacity="0.1" d="M134.013 116.135L172.732 120.302L154.196 110.572L134.013 116.135Z" fill="black"/>
<path d="M199.167 123.141L103.947 112.898L103.446 117.552L198.666 127.795L199.167 123.141Z" fill="#FB7D47"/>
<path opacity="0.1" d="M199.167 123.141L103.947 112.898L103.446 117.552L198.666 127.795L199.167 123.141Z" fill="black"/>
<path opacity="0.6" d="M117.516 104.37C117.451 104.95 117.215 105.498 116.839 105.944C116.463 106.39 115.963 106.715 115.402 106.878C114.841 107.04 114.245 107.033 113.689 106.856C113.132 106.68 112.64 106.343 112.275 105.888C111.91 105.432 111.688 104.879 111.638 104.297C111.587 103.716 111.71 103.132 111.99 102.62C112.271 102.108 112.697 101.691 113.214 101.421C113.732 101.151 114.318 101.041 114.898 101.103C115.285 101.145 115.66 101.262 116.001 101.449C116.343 101.635 116.644 101.888 116.887 102.192C117.13 102.495 117.311 102.844 117.419 103.218C117.527 103.592 117.56 103.983 117.516 104.37Z" fill="white"/>
<path d="M63.9333 24.374C63.9333 24.8466 63.7932 25.3085 63.5307 25.7015C63.2681 26.0944 62.8949 26.4006 62.4584 26.5815C62.0218 26.7623 61.5413 26.8096 61.0779 26.7174C60.6144 26.6252 60.1886 26.3977 59.8545 26.0635C59.5203 25.7294 59.2928 25.3036 59.2006 24.8401C59.1084 24.3767 59.1557 23.8962 59.3365 23.4597C59.5174 23.0231 59.8236 22.6499 60.2166 22.3874C60.6095 22.1248 61.0714 21.9847 61.544 21.9847C62.1777 21.9847 62.7854 22.2364 63.2335 22.6845C63.6816 23.1326 63.9333 23.7403 63.9333 24.374Z" fill="#A6A6A6"/>
<path d="M62.65 24.374C62.6509 24.5959 62.5859 24.8131 62.4632 24.998C62.3405 25.1829 62.1656 25.3272 61.9608 25.4125C61.7559 25.4979 61.5304 25.5204 61.3127 25.4774C61.095 25.4343 60.895 25.3275 60.7381 25.1706C60.5812 25.0137 60.4744 24.8137 60.4313 24.596C60.3883 24.3783 60.4108 24.1528 60.4962 23.9479C60.5815 23.7431 60.7258 23.5682 60.9107 23.4455C61.0956 23.3228 61.3128 23.2578 61.5347 23.2587C61.8305 23.2587 62.1142 23.3762 62.3234 23.5854C62.5325 23.7945 62.65 24.0782 62.65 24.374Z" fill="#455A64"/>
<path d="M71.75 181.09H51.1327V185.962H71.75V181.09Z" fill="#263238"/>
<path d="M76.2207 185.962H46.662V195.519H76.2207V185.962Z" fill="#455A64"/>
<path d="M73.43 64.5727H51.366V40.1334H65.8C67.0197 40.1329 68.1981 40.5756 69.1158 41.3792C70.0335 42.1827 70.628 43.2922 70.7886 44.5014L73.43 64.5727Z" fill="#FB7D47"/>
<path d="M67.424 57.1527H57.0827C56.9701 57.155 56.8579 57.1376 56.7513 57.1013C56.5115 57.0292 56.3012 56.8818 56.1516 56.681C56.002 56.4801 55.9211 56.2364 55.9207 55.986V42.9333H63.2753C63.5229 42.9305 63.77 42.954 64.0127 43.0033C64.5651 43.0978 65.0915 43.3077 65.5573 43.6193C65.8807 43.835 66.1701 44.0977 66.416 44.3987C66.9207 44.9937 67.2446 45.7208 67.3493 46.494L68.5907 55.8273C68.6119 55.993 68.5975 56.1614 68.5486 56.3211C68.4997 56.4808 68.4173 56.6283 68.3069 56.7537C68.1965 56.8791 68.0607 56.9795 67.9084 57.0483C67.7562 57.1171 67.591 57.1527 67.424 57.1527Z" fill="#263238"/>
<g opacity="0.4">
<path d="M66.3133 50.344C66.3139 50.496 66.2841 50.6465 66.2256 50.7868C66.1671 50.927 66.0811 51.0542 65.9727 51.1607L59.9853 57.1527H57.0827C56.9701 57.155 56.858 57.1376 56.7513 57.1013L64.3347 49.5227C64.4974 49.3619 64.704 49.2527 64.9285 49.2089C65.1531 49.165 65.3855 49.1884 65.5968 49.2761C65.8081 49.3638 65.9888 49.5119 66.1163 49.7019C66.2438 49.8919 66.3123 50.1152 66.3133 50.344Z" fill="white"/>
<path d="M66.416 44.4033L55.9207 54.894V53.2607L65.5573 43.624C65.8807 43.8397 66.1701 44.1023 66.416 44.4033Z" fill="white"/>
<path d="M64.0127 43.008L58.0534 48.9673C57.9313 49.089 57.776 49.1717 57.607 49.2052C57.438 49.2387 57.2629 49.2214 57.1037 49.1556C56.9445 49.0897 56.8084 48.9782 56.7124 48.835C56.6165 48.6919 56.5651 48.5236 56.5647 48.3513C56.5654 48.2383 56.5885 48.1265 56.6325 48.0224C56.6766 47.9183 56.7408 47.8239 56.8214 47.7447L61.628 42.9333H63.2754C63.5231 42.932 63.7703 42.9571 64.0127 43.008Z" fill="white"/>
</g>
<path d="M49.8073 166.287L49.3639 169.461L48.8833 172.872L44.4966 203.957H37.3286L41.7153 172.872L42.1959 169.461L42.6393 166.287H49.8073Z" fill="#FB7D47"/>
<path opacity="0.1" d="M48.7713 166.287C48.3933 169.437 47.9873 172.583 47.5766 175.723L46.312 185.15L44.9866 194.558L44.3053 199.267L43.5913 203.961L44.1746 199.243L44.8 194.521L46.0646 185.099L47.39 175.686C47.8286 172.55 48.286 169.4 48.7713 166.287Z" fill="black"/>
<path opacity="0.1" d="M49.364 169.461L48.8833 172.872H41.7153L42.196 169.461H49.364Z" fill="black"/>
<path d="M85.1946 166.287L85.6379 169.461L86.1186 172.872L90.5006 203.957H97.6686L93.2866 172.872L92.8059 169.461L92.3626 166.287H85.1946Z" fill="#FB7D47"/>
<path opacity="0.1" d="M86.2539 166.287C86.6319 169.437 87.0379 172.583 87.4486 175.723L88.7132 185.15L90.0386 194.558L90.7199 199.267L91.4339 203.961L90.8506 199.243L90.2392 194.525L88.9746 185.103L87.6492 175.691C87.1966 172.55 86.7392 169.4 86.2539 166.287Z" fill="black"/>
<path opacity="0.1" d="M85.6379 169.461H92.8059L93.2866 172.872H86.1186L85.6379 169.461Z" fill="black"/>
<path d="M49.5459 159.768H43.8619L44.5713 154.471H48.8413L49.5459 159.768Z" fill="#FB7D47"/>
<path opacity="0.1" d="M49.5459 159.768H43.8619L44.5713 154.471H48.8413L49.5459 159.768Z" fill="black"/>
<path d="M52.0006 150.682C52.0006 151.73 51.6899 152.754 51.1079 153.625C50.5259 154.496 49.6987 155.175 48.7308 155.575C47.763 155.976 46.698 156.081 45.6706 155.877C44.6431 155.673 43.6993 155.168 42.9586 154.427C42.2178 153.687 41.7134 152.743 41.509 151.715C41.3046 150.688 41.4095 149.623 41.8104 148.655C42.2113 147.687 42.8902 146.86 43.7612 146.278C44.6323 145.696 45.6563 145.385 46.7039 145.385C47.3995 145.385 48.0882 145.522 48.7308 145.789C49.3735 146.055 49.9574 146.445 50.4492 146.937C50.941 147.429 51.3312 148.012 51.5974 148.655C51.8636 149.298 52.0006 149.986 52.0006 150.682Z" fill="#FB7D47"/>
<path d="M50.7313 150.682C50.7322 151.479 50.4968 152.258 50.0548 152.921C49.6129 153.584 48.9842 154.101 48.2484 154.406C47.5126 154.712 46.7027 154.792 45.9211 154.637C45.1396 154.482 44.4216 154.099 43.8579 153.536C43.2942 152.973 42.9101 152.255 42.7544 151.474C42.5986 150.693 42.6781 149.883 42.9828 149.147C43.2874 148.41 43.8036 147.781 44.466 147.338C45.1284 146.896 45.9072 146.659 46.704 146.659C47.7713 146.659 48.7949 147.083 49.5501 147.837C50.3052 148.592 50.7301 149.615 50.7313 150.682Z" fill="white"/>
<path d="M50.0686 150.449C50.0322 149.969 49.8969 149.502 49.6712 149.077C49.4455 148.652 49.1343 148.279 48.7573 147.98C48.3764 147.685 47.9399 147.47 47.474 147.349C47.0081 147.227 46.5223 147.2 46.0459 147.271C45.5723 147.344 45.1194 147.516 44.7172 147.777C44.3151 148.037 43.9727 148.38 43.7126 148.783C43.4386 149.208 43.2589 149.687 43.1856 150.188C43.1124 150.689 43.1473 151.199 43.2879 151.685C43.5273 152.532 44.093 153.248 44.8606 153.678C45.6073 154.103 46.4847 154.238 47.3246 154.056C48.1386 153.885 48.8688 153.438 49.3919 152.791C49.9075 152.153 50.2052 151.366 50.2413 150.547C50.2413 150.509 50.2413 150.477 50.2086 150.477C50.1759 150.477 50.1713 150.505 50.1713 150.547C50.1515 150.877 50.0888 151.203 49.9846 151.517C49.7631 152.138 49.3816 152.688 48.8786 153.113C48.6226 153.326 48.3422 153.508 48.0433 153.655C47.6156 153.859 47.1496 153.97 46.6759 153.981C46.2022 153.993 45.7314 153.904 45.2946 153.72C44.854 153.535 44.4588 153.256 44.1365 152.903C43.8142 152.55 43.5724 152.132 43.4279 151.676C43.2835 151.211 43.2405 150.721 43.3016 150.238C43.3628 149.755 43.5268 149.29 43.7826 148.876C44.0314 148.479 44.3627 148.14 44.7541 147.883C45.1454 147.625 45.5876 147.454 46.0506 147.383C46.6743 147.283 47.3135 147.353 47.9002 147.588C48.487 147.822 48.9992 148.211 49.3826 148.713C49.5744 148.969 49.7313 149.25 49.8493 149.548C49.954 149.85 50.0244 150.163 50.0593 150.481C50.0642 150.478 50.0678 150.472 50.0694 150.467C50.0711 150.461 50.0708 150.454 50.0686 150.449Z" fill="#FB7D47"/>
<path d="M49.5973 150.453C49.5616 150.043 49.4421 149.644 49.2463 149.281C49.0504 148.918 48.7824 148.599 48.4586 148.344C48.1304 148.091 47.7548 147.907 47.354 147.802C46.9532 147.697 46.5353 147.673 46.1253 147.733C45.7184 147.792 45.3288 147.938 44.9822 148.159C44.6355 148.38 44.3396 148.672 44.114 149.016C43.8726 149.383 43.7126 149.797 43.645 150.231C43.5774 150.665 43.6036 151.108 43.722 151.531C43.8232 151.897 43.9957 152.239 44.2296 152.538C44.4634 152.836 44.754 153.086 45.0846 153.272C45.7387 153.637 46.5036 153.752 47.236 153.594C47.9419 153.441 48.5732 153.048 49.0233 152.483C49.4688 151.929 49.727 151.248 49.7606 150.537C49.7606 150.505 49.7606 150.477 49.728 150.477C49.6953 150.477 49.6906 150.5 49.6906 150.537C49.6504 151.108 49.4588 151.657 49.1357 152.129C48.8125 152.6 48.3693 152.977 47.852 153.221C47.4836 153.4 47.0814 153.499 46.6718 153.511C46.2623 153.523 45.8549 153.448 45.4766 153.291C45.0952 153.129 44.7536 152.886 44.4756 152.579C44.1975 152.272 43.9897 151.908 43.8666 151.513C43.7431 151.109 43.708 150.683 43.7635 150.264C43.8191 149.846 43.9641 149.444 44.1886 149.086C44.4052 148.748 44.6919 148.461 45.0293 148.243C45.3666 148.026 45.7468 147.884 46.144 147.826C46.6753 147.745 47.2185 147.807 47.718 148.006C48.2174 148.204 48.655 148.532 48.986 148.955C49.1463 149.176 49.278 149.416 49.378 149.669C49.4707 149.928 49.5348 150.195 49.5693 150.467L49.5973 150.453Z" fill="#FB7D47"/>
<path d="M49.1259 150.458C49.0922 150.117 48.9891 149.786 48.823 149.486C48.6569 149.186 48.4313 148.923 48.1599 148.713C47.6144 148.293 46.9246 148.107 46.2419 148.195C45.9008 148.24 45.5731 148.357 45.2803 148.538C44.9876 148.719 44.7364 148.96 44.5433 149.245C44.3347 149.553 44.1948 149.903 44.1328 150.27C44.0708 150.637 44.0882 151.013 44.1839 151.373C44.2663 151.686 44.4113 151.98 44.6102 152.235C44.8091 152.491 45.0578 152.704 45.3413 152.861C45.8979 153.176 46.5522 153.271 47.1753 153.127C47.7712 152.998 48.3049 152.669 48.6873 152.194C49.06 151.723 49.2769 151.147 49.3079 150.547C49.3079 150.519 49.3079 150.495 49.2753 150.495C49.2426 150.495 49.2379 150.495 49.2379 150.547C49.1992 151.026 49.0359 151.486 48.7641 151.882C48.4923 152.279 48.1215 152.597 47.6886 152.805C47.3785 152.96 47.039 153.046 46.6929 153.058C46.3467 153.07 46.0021 153.008 45.6819 152.875C45.3582 152.738 45.0692 152.53 44.8359 152.267C44.6026 152.004 44.4309 151.692 44.3333 151.354C44.2319 151.013 44.2057 150.654 44.2564 150.302C44.3072 149.95 44.4337 149.613 44.6273 149.315C44.8111 149.036 45.0524 148.801 45.335 148.624C45.6175 148.447 45.9347 148.332 46.2653 148.288C46.7038 148.236 47.1484 148.289 47.5626 148.442C47.9786 148.599 48.3435 148.867 48.6173 149.217C48.7527 149.397 48.8641 149.595 48.9486 149.805C49.0301 150.019 49.088 150.241 49.1213 150.467C49.1213 150.467 49.1306 150.467 49.1259 150.458Z" fill="#FB7D47"/>
<path d="M48.6546 150.463C48.6234 150.188 48.5371 149.922 48.4008 149.682C48.2645 149.441 48.081 149.231 47.8613 149.063C47.4257 148.735 46.8824 148.583 46.3399 148.638C46.0614 148.669 45.7926 148.758 45.5512 148.901C45.3098 149.043 45.1015 149.235 44.9399 149.464C44.764 149.714 44.6437 149.999 44.5874 150.299C44.531 150.599 44.5398 150.908 44.6133 151.205C44.6764 151.464 44.7917 151.707 44.9522 151.919C45.1127 152.132 45.315 152.31 45.5466 152.441C46.0079 152.699 46.55 152.773 47.0633 152.647C47.5554 152.532 47.9925 152.25 48.2999 151.849C48.6004 151.462 48.7762 150.993 48.8039 150.505C48.8039 150.481 48.8039 150.463 48.7713 150.463C48.761 150.464 48.7514 150.469 48.7445 150.477C48.7377 150.484 48.7339 150.494 48.7339 150.505C48.6984 150.892 48.5639 151.264 48.3432 151.584C48.1226 151.905 47.8232 152.163 47.4739 152.334C47.2239 152.465 46.9481 152.54 46.666 152.554C46.3839 152.568 46.1022 152.52 45.8406 152.413C45.5837 152.302 45.3543 152.136 45.1688 151.926C44.9833 151.717 44.8462 151.469 44.7673 151.2C44.6882 150.922 44.6706 150.63 44.7158 150.345C44.7609 150.06 44.8676 149.788 45.0286 149.548C45.1792 149.328 45.3758 149.144 45.6046 149.008C45.8334 148.872 46.0891 148.787 46.3539 148.759C46.7 148.728 47.0487 148.773 47.3759 148.89C47.7055 149.01 47.996 149.219 48.2159 149.492C48.3269 149.635 48.4194 149.792 48.4913 149.959C48.5564 150.131 48.6063 150.309 48.6406 150.491C48.6406 150.491 48.6593 150.467 48.6546 150.463Z" fill="#FB7D47"/>
<path d="M91.014 159.768H85.33L86.0393 154.471H90.3093L91.014 159.768Z" fill="#FB7D47"/>
<path opacity="0.1" d="M91.014 159.768H85.33L86.0393 154.471H90.3093L91.014 159.768Z" fill="black"/>
<path d="M93.4686 150.682C93.4686 151.73 93.1579 152.754 92.5759 153.625C91.9939 154.496 91.1667 155.175 90.1989 155.575C89.231 155.976 88.166 156.081 87.1386 155.877C86.1111 155.673 85.1674 155.168 84.4266 154.427C83.6859 153.687 83.1814 152.743 82.977 151.715C82.7726 150.688 82.8775 149.623 83.2784 148.655C83.6793 147.687 84.3582 146.86 85.2292 146.278C86.1003 145.696 87.1243 145.385 88.1719 145.385C88.8675 145.385 89.5562 145.522 90.1989 145.789C90.8415 146.055 91.4254 146.445 91.9172 146.937C92.4091 147.429 92.7992 148.012 93.0654 148.655C93.3316 149.298 93.4686 149.986 93.4686 150.682Z" fill="#FB7D47"/>
<path d="M92.1993 150.682C92.2002 151.479 91.9648 152.258 91.5229 152.921C91.0809 153.584 90.4522 154.101 89.7164 154.406C88.9806 154.712 88.1707 154.792 87.3892 154.637C86.6076 154.482 85.8896 154.099 85.3259 153.536C84.7622 152.973 84.3782 152.255 84.2224 151.474C84.0666 150.693 84.1461 149.883 84.4508 149.147C84.7555 148.41 85.2716 147.781 85.934 147.338C86.5964 146.896 87.3753 146.659 88.172 146.659C89.2393 146.659 90.263 147.083 91.0181 147.837C91.7732 148.592 92.1981 149.615 92.1993 150.682Z" fill="white"/>
<path d="M91.5366 150.449C91.5002 149.969 91.3649 149.502 91.1392 149.077C90.9135 148.652 90.6024 148.279 90.2253 147.98C89.8444 147.685 89.4079 147.47 88.942 147.349C88.4761 147.227 87.9904 147.2 87.5139 147.271C87.0403 147.344 86.5875 147.516 86.1853 147.777C85.7831 148.037 85.4407 148.38 85.1806 148.783C84.9066 149.208 84.7269 149.687 84.6536 150.188C84.5804 150.689 84.6153 151.199 84.7559 151.685C84.9953 152.532 85.561 153.248 86.3286 153.678C87.0753 154.103 87.9528 154.238 88.7926 154.056C89.6067 153.885 90.3368 153.438 90.8599 152.791C91.3776 152.154 91.6755 151.367 91.7093 150.547C91.7093 150.509 91.7093 150.477 91.6766 150.477C91.6439 150.477 91.6393 150.505 91.6393 150.547C91.6218 150.877 91.559 151.204 91.4526 151.517C91.2312 152.138 90.8496 152.688 90.3466 153.113C90.0906 153.326 89.8102 153.508 89.5113 153.655C89.0836 153.859 88.6176 153.97 88.1439 153.981C87.6702 153.993 87.1995 153.904 86.7626 153.72C86.322 153.535 85.9269 153.256 85.6045 152.903C85.2822 152.55 85.0405 152.132 84.8959 151.676C84.7515 151.211 84.7085 150.721 84.7697 150.238C84.8308 149.755 84.9948 149.29 85.2506 148.876C85.4994 148.479 85.8308 148.14 86.2221 147.883C86.6134 147.625 87.0556 147.454 87.5186 147.383C88.1423 147.283 88.7816 147.353 89.3683 147.588C89.955 147.822 90.4672 148.211 90.8506 148.713C91.0424 148.969 91.1993 149.25 91.3173 149.548C91.422 149.85 91.4925 150.163 91.5273 150.481C91.534 150.472 91.5373 150.46 91.5366 150.449Z" fill="#FB7D47"/>
<path d="M91.0653 150.453C91.0296 150.043 90.9101 149.644 90.7143 149.281C90.5184 148.918 90.2504 148.599 89.9266 148.344C89.5985 148.091 89.2228 147.907 88.822 147.802C88.4212 147.697 88.0034 147.673 87.5933 147.733C87.1864 147.792 86.7969 147.938 86.4502 148.159C86.1035 148.38 85.8076 148.672 85.582 149.016C85.3406 149.383 85.1807 149.797 85.113 150.231C85.0454 150.665 85.0717 151.108 85.19 151.531C85.2912 151.897 85.4638 152.239 85.6976 152.538C85.9315 152.836 86.222 153.086 86.5526 153.272C87.2067 153.637 87.9716 153.752 88.704 153.594C89.4099 153.441 90.0412 153.048 90.4913 152.483C90.9368 151.929 91.195 151.248 91.2286 150.537C91.2286 150.505 91.2286 150.477 91.196 150.477C91.1633 150.477 91.1586 150.5 91.1586 150.537C91.1184 151.108 90.9269 151.657 90.6037 152.129C90.2805 152.6 89.8374 152.977 89.32 153.221C88.9517 153.4 88.5494 153.499 88.1398 153.511C87.7303 153.523 87.3229 153.448 86.9446 153.291C86.5624 153.13 86.2198 152.887 85.941 152.58C85.6621 152.273 85.4536 151.909 85.33 151.513C85.2065 151.109 85.1713 150.683 85.2269 150.264C85.2824 149.846 85.4274 149.444 85.652 149.086C85.8686 148.748 86.1552 148.461 86.4926 148.243C86.83 148.026 87.2101 147.884 87.6073 147.826C88.1386 147.745 88.6819 147.807 89.1813 148.006C89.6808 148.204 90.1184 148.532 90.4493 148.955C90.6096 149.176 90.7414 149.416 90.8413 149.669C90.934 149.928 90.9982 150.195 91.0326 150.467C91.0326 150.467 91.07 150.463 91.0653 150.453Z" fill="#FB7D47"/>
<path d="M90.594 150.458C90.5602 150.117 90.4571 149.786 90.291 149.486C90.1249 149.186 89.8993 148.923 89.628 148.713C89.0824 148.293 88.3927 148.107 87.71 148.195C87.3688 148.24 87.0411 148.357 86.7483 148.538C86.4556 148.719 86.2044 148.96 86.0113 149.245C85.8028 149.553 85.6628 149.903 85.6008 150.27C85.5388 150.637 85.5563 151.013 85.652 151.373C85.7343 151.686 85.8793 151.98 86.0782 152.235C86.2771 152.491 86.5258 152.704 86.8093 152.861C87.3659 153.176 88.0202 153.271 88.6433 153.127C89.2392 152.998 89.7729 152.669 90.1553 152.194C90.5299 151.724 90.7471 151.147 90.776 150.547C90.776 150.519 90.776 150.495 90.7433 150.495C90.7106 150.495 90.706 150.495 90.706 150.547C90.6673 151.026 90.5039 151.486 90.2321 151.882C89.9603 152.279 89.5895 152.597 89.1566 152.805C88.8465 152.96 88.507 153.046 88.1609 153.058C87.8148 153.07 87.4701 153.008 87.15 152.875C86.8265 152.741 86.5369 152.537 86.302 152.277C86.0672 152.017 85.893 151.708 85.792 151.373C85.6906 151.032 85.6643 150.673 85.7151 150.321C85.7659 149.969 85.8924 149.632 86.086 149.333C86.2698 149.055 86.5111 148.819 86.7936 148.642C87.0762 148.465 87.3934 148.351 87.724 148.307C88.1625 148.255 88.607 148.308 89.0213 148.461C89.3384 148.575 89.6274 148.755 89.8688 148.99C90.1103 149.225 90.2987 149.509 90.4213 149.823C90.5028 150.037 90.5607 150.259 90.594 150.486C90.594 150.486 90.5986 150.467 90.594 150.458Z" fill="#FB7D47"/>
<path d="M90.1226 150.463C90.0914 150.188 90.0051 149.922 89.8688 149.682C89.7325 149.441 89.549 149.231 89.3293 149.063C88.8939 148.734 88.3505 148.582 87.8079 148.638C87.5294 148.669 87.2606 148.758 87.0192 148.901C86.7778 149.043 86.5695 149.235 86.4079 149.464C86.2328 149.714 86.1131 149.999 86.0567 150.299C86.0004 150.599 86.0088 150.908 86.0813 151.205C86.1444 151.464 86.2597 151.707 86.4202 151.919C86.5807 152.132 86.783 152.31 87.0146 152.441C87.4759 152.699 88.018 152.773 88.5313 152.647C89.0234 152.532 89.4605 152.25 89.7679 151.849C90.0684 151.462 90.2442 150.993 90.2719 150.505C90.2719 150.481 90.2719 150.463 90.2393 150.463C90.229 150.464 90.2194 150.469 90.2125 150.477C90.2057 150.484 90.2019 150.494 90.2019 150.505C90.1664 150.892 90.0319 151.264 89.8112 151.584C89.5906 151.905 89.2912 152.163 88.9419 152.334C88.6918 152.465 88.4161 152.54 88.134 152.554C87.8519 152.568 87.5702 152.52 87.3086 152.413C87.0431 152.304 86.8057 152.136 86.6142 151.921C86.4227 151.707 86.282 151.453 86.2026 151.177C86.1235 150.899 86.106 150.607 86.1511 150.322C86.1962 150.037 86.303 149.765 86.4639 149.525C86.6146 149.305 86.8111 149.121 87.0399 148.985C87.2688 148.848 87.5244 148.764 87.7893 148.736C88.1354 148.705 88.4841 148.75 88.8113 148.867C89.1409 148.987 89.4313 149.195 89.6513 149.469C89.7622 149.612 89.8547 149.769 89.9266 149.935C89.9917 150.108 90.0417 150.286 90.0759 150.467C90.0759 150.467 90.1273 150.467 90.1226 150.463Z" fill="#FB7D47"/>
<path d="M103.208 157.066H31.7893V170.725H103.208V157.066Z" fill="white"/>
<path d="M103.329 170.842H31.6726V156.949H103.329V170.842ZM31.9293 170.609H103.096V157.183H31.9059L31.9293 170.609Z" fill="#263238"/>
<path d="M46.4706 157.066L41.2859 170.73H32.0646L37.2446 157.066H46.4706Z" fill="#FB7D47"/>
<path d="M65.3753 157.066L60.1953 170.73H50.9646L56.1493 157.066H65.3753Z" fill="#FB7D47"/>
<path d="M84.2799 157.066L79.0952 170.73H69.8739L75.0586 157.066H84.2799Z" fill="#FB7D47"/>
<path d="M103.189 157.066L98.0046 170.73H88.7786L93.9586 157.066H103.189Z" fill="#FB7D47"/>
<path d="M101.766 187.423H33.236V196.07H101.766V187.423Z" fill="white"/>
<path d="M101.883 196.187H33.1333V187.32H101.883V196.187ZM33.3526 195.953H101.649V187.553H33.3526V195.953Z" fill="#263238"/>
<path d="M47.32 187.423L42.3453 196.07H33.4973L38.472 187.423H47.32Z" fill="#FB7D47"/>
<path d="M65.4639 187.423L60.4893 196.07H51.6366L56.6113 187.423H65.4639Z" fill="#FB7D47"/>
<path d="M83.5985 187.423L78.6285 196.07H69.7759L74.7505 187.423H83.5985Z" fill="#FB7D47"/>
<path d="M101.743 187.423L96.768 196.07H87.9153L92.89 187.423H101.743Z" fill="#FB7D47"/>
<path d="M78.3108 166.474C79.7356 160.502 76.0498 154.506 70.0782 153.081C64.1066 151.656 58.1107 155.342 56.6858 161.314C55.261 167.285 58.9469 173.281 64.9184 174.706C70.89 176.131 76.886 172.445 78.3108 166.474Z" fill="white"/>
<path d="M67.4987 175.126C65.2769 175.126 63.1049 174.467 61.2576 173.233C59.4103 171.998 57.9706 170.244 57.1206 168.191C56.2705 166.138 56.0484 163.879 56.4822 161.7C56.916 159.521 57.9862 157.52 59.5576 155.949C61.129 154.378 63.1309 153.309 65.3101 152.876C67.4894 152.443 69.748 152.666 71.8005 153.517C73.8529 154.368 75.6069 155.808 76.8406 157.656C78.0743 159.504 78.7323 161.676 78.7313 163.898C78.7289 166.876 77.5445 169.731 75.4383 171.836C73.3322 173.942 70.4766 175.125 67.4987 175.126ZM67.4987 152.899C65.3232 152.899 63.1966 153.544 61.3878 154.752C59.5789 155.961 58.1691 157.679 57.3366 159.689C56.5041 161.699 56.2863 163.91 56.7107 166.044C57.1351 168.178 58.1827 170.137 59.721 171.676C61.2592 173.214 63.2191 174.262 65.3528 174.686C67.4865 175.11 69.6981 174.893 71.7079 174.06C73.7178 173.228 75.4356 171.818 76.6443 170.009C77.8529 168.2 78.498 166.073 78.498 163.898C78.4955 160.982 77.3359 158.185 75.2736 156.123C73.2114 154.061 70.4151 152.901 67.4987 152.899Z" fill="#263238"/>
<path d="M76.6681 166.081C77.874 161.02 74.7481 155.938 69.6861 154.732C64.6242 153.527 59.543 156.652 58.3371 161.714C57.1312 166.776 60.2571 171.858 65.3191 173.063C70.381 174.269 75.4622 171.143 76.6681 166.081Z" fill="#FB7D47"/>
<path d="M73.4066 162.801H61.5906V164.99H73.4066V162.801Z" fill="white"/>
<path d="M223.011 205.1L225.372 188.851L226.058 189.159L227.15 189.653L231.891 191.8L236.133 193.713L238.933 194.978L243.185 196.901L245.518 197.951C245.921 198.17 246.247 198.507 246.453 198.917C246.658 199.327 246.733 199.79 246.668 200.244C246.602 200.698 246.399 201.121 246.086 201.456C245.773 201.791 245.364 202.022 244.916 202.118L243.931 202.253L242.382 202.463L237.767 203.089L234.724 203.504L230.104 204.134L228.172 204.4L223.011 205.1Z" fill="#FB7D47"/>
<g style="mix-blend-mode:multiply" opacity="0.1">
<path d="M226.175 189.303C225.941 189.914 225.651 190.502 225.307 191.058C223.865 193.307 222.824 197.909 223.608 203.191C223.653 203.762 223.771 204.325 223.958 204.867L224.947 204.801C224.947 204.801 229.553 194.693 244.613 197.503L243.213 196.859L238.966 194.945L236.166 193.681L231.919 191.758L226.175 189.303Z" fill="black"/>
</g>
<path d="M237.762 203.089L238.938 194.978L243.189 196.901L242.377 202.463L237.762 203.089Z" fill="#EBEBEB"/>
<path d="M230.099 204.134L231.891 191.795L236.143 193.718L234.719 203.504L230.099 204.134Z" fill="#EBEBEB"/>
<path d="M181.533 204.699H165.713L165.909 203.999L166.231 202.888L167.631 198.072L168.873 193.755L169.689 190.913L170.931 186.597L171.612 184.231C171.764 183.815 172.039 183.457 172.402 183.203C172.764 182.95 173.195 182.814 173.637 182.814C174.08 182.814 174.511 182.95 174.873 183.203C175.236 183.457 175.511 183.815 175.663 184.231L175.929 185.164L176.344 186.606L177.585 190.923L178.402 193.765L179.643 198.081L180.161 199.887L181.533 204.699Z" fill="#FB7D47"/>
<path d="M182.117 208.801H161.327L164.64 200.592H185.43L182.117 208.801Z" fill="#FB7D47"/>
<path d="M177.59 190.913H169.694L170.935 186.601H176.349L177.59 190.913Z" fill="#EBEBEB"/>
<path d="M179.648 198.072H167.636L168.877 193.755H178.407L179.648 198.072Z" fill="#EBEBEB"/>
<path d="M165.508 203.597C166.789 204.172 168.137 204.581 169.521 204.815C170.891 205.054 172.28 205.16 173.67 205.133C174.365 205.086 175.07 205.081 175.751 204.974C176.097 204.927 176.447 204.904 176.787 204.843C177.128 204.783 177.473 204.713 177.819 204.657C177.991 204.624 178.164 204.596 178.337 204.559L178.845 204.433L179.867 204.185C180.544 204.003 181.211 203.775 181.902 203.597C181.263 203.901 180.619 204.204 179.961 204.465L178.948 204.811L178.444 204.979C178.271 205.03 178.099 205.067 177.926 205.114L176.881 205.361C176.535 205.441 176.176 205.478 175.826 205.539C175.116 205.641 174.401 205.707 173.684 205.735C172.25 205.76 170.818 205.603 169.423 205.268C168.027 204.957 166.699 204.39 165.508 203.597Z" fill="#263238"/>
<g style="mix-blend-mode:multiply" opacity="0.1">
<path d="M166.054 203.868C166.668 204.006 167.268 204.202 167.846 204.451C170.179 205.515 174.72 205.851 179.671 204.386C180.208 204.264 180.727 204.074 181.216 203.821L181.015 202.888C181.015 202.888 170.749 199.901 171.337 185.155L170.921 186.597L169.68 190.913L168.863 193.755L167.622 198.072L166.054 203.868Z" fill="black"/>
</g>
<path d="M218.708 205.072L221.811 183.708L229.754 188.342L226.646 209.701L218.708 205.072Z" fill="#FB7D47"/>
<path d="M226.618 197.181C226.175 201.129 224.751 204.209 223.426 204.059C222.101 203.91 221.396 200.592 221.839 196.644C222.283 192.696 223.706 189.621 225.036 189.77C226.366 189.919 227.061 193.237 226.618 197.181Z" fill="#263238"/>
<path d="M262.215 208.773C263.149 209.062 289.511 208.497 290.5 207.839C290.878 207.592 291.018 203.742 291.06 199.094C291.06 198.091 291.06 197.055 291.06 196C291.06 194.749 291.06 193.489 291.037 192.267C290.967 186.76 290.799 181.911 290.799 181.911L273.635 182.229L273.835 192.584L273.905 196.317L274.055 199.407C274.055 199.407 264.054 204.143 263.046 204.979C262.038 205.814 261.287 208.488 262.215 208.773Z" fill="#D3766A"/>
<path d="M262.215 208.773C263.149 209.062 289.511 208.497 290.5 207.839C290.878 207.592 291.018 203.742 291.06 199.094C291.06 198.091 291.06 197.055 291.06 196C291.06 194.749 291.06 193.489 291.037 192.267L273.835 192.584L273.905 196.317L274.055 199.407C274.055 199.407 264.054 204.143 263.046 204.979C262.038 205.814 261.287 208.488 262.215 208.773Z" fill="white"/>
<path d="M262.136 208.815C262.738 209.001 273.971 208.815 282.147 208.511C284.013 208.437 285.768 208.353 287.163 208.264C289.086 208.143 290.374 208.012 290.579 207.877C291.046 207.569 291.158 201.927 291.149 195.972L273.882 196.294L274.027 199.402C274.027 199.402 263.975 204.157 262.957 205.002C261.94 205.847 261.207 208.521 262.136 208.815Z" fill="#FB7D47"/>
<path d="M262.491 207.746C266.933 207.541 284.891 207.135 289.277 207.279C289.315 207.279 289.315 207.279 289.277 207.279C284.877 207.578 266.943 207.839 262.495 207.802C262.402 207.816 262.397 207.751 262.491 207.746Z" fill="#263238"/>
<path d="M273.397 198.427C275.142 198.063 277.284 198.287 278.647 199.505C278.703 199.551 278.647 199.626 278.577 199.607C276.894 199.105 275.162 198.783 273.411 198.646C273.385 198.643 273.361 198.63 273.344 198.611C273.326 198.592 273.315 198.568 273.314 198.542C273.312 198.516 273.319 198.491 273.334 198.469C273.35 198.448 273.372 198.433 273.397 198.427Z" fill="#263238"/>
<path d="M272.151 199.215C273.896 198.851 276.038 199.075 277.401 200.293C277.457 200.34 277.401 200.415 277.331 200.396C275.648 199.892 273.916 199.569 272.165 199.435C272.139 199.431 272.115 199.419 272.097 199.4C272.08 199.381 272.069 199.357 272.067 199.331C272.066 199.305 272.073 199.279 272.088 199.258C272.104 199.237 272.126 199.222 272.151 199.215Z" fill="#263238"/>
<path d="M270.905 200.004C272.645 199.64 274.792 199.864 276.155 201.077C276.206 201.129 276.155 201.199 276.085 201.185C274.402 200.681 272.67 200.358 270.919 200.223C270.893 200.22 270.869 200.208 270.851 200.189C270.834 200.17 270.823 200.145 270.822 200.119C270.82 200.094 270.827 200.068 270.842 200.047C270.858 200.026 270.88 200.011 270.905 200.004Z" fill="#263238"/>
<path d="M269.659 200.793C271.399 200.429 273.546 200.648 274.909 201.866C274.96 201.913 274.909 201.987 274.839 201.973C273.156 201.469 271.424 201.147 269.673 201.012C269.647 201.009 269.623 200.996 269.606 200.977C269.588 200.959 269.577 200.934 269.576 200.908C269.574 200.882 269.581 200.857 269.596 200.835C269.612 200.814 269.634 200.799 269.659 200.793Z" fill="#263238"/>
<path d="M270.919 196.933C272.174 197.867 273.793 198.231 275.249 198.735C275.399 198.786 275.515 198.641 275.52 198.511C275.548 198.511 275.571 198.483 275.557 198.445C274.99 196.905 274.024 195.542 272.757 194.497C272.015 193.9 270.723 193.499 270.06 194.46C269.397 195.421 270.2 196.378 270.919 196.933ZM270.452 195.533C270.102 193.62 272.183 194.6 272.715 195.067C273.05 195.37 273.362 195.698 273.649 196.047C274.269 196.761 274.778 197.549 275.324 198.319C274.624 198.025 273.924 197.797 273.196 197.531C272.351 197.195 270.634 196.583 270.443 195.533H270.452Z" fill="#263238"/>
<path d="M281.339 195.645C280.873 194.563 279.552 194.679 278.698 195.104C277.245 195.861 276.017 196.988 275.137 198.371C275.133 198.377 275.131 198.384 275.13 198.391C275.13 198.399 275.131 198.406 275.134 198.413C275.136 198.42 275.141 198.426 275.146 198.431C275.152 198.435 275.158 198.439 275.165 198.441C275.137 198.571 275.221 198.739 275.38 198.721C276.911 198.539 278.567 198.534 279.995 197.89C280.831 197.507 281.764 196.667 281.339 195.645ZM277.643 197.979C276.892 198.086 276.141 198.156 275.394 198.291C276.068 197.633 276.775 197.01 277.513 196.425C277.875 196.146 278.255 195.892 278.651 195.664C279.267 195.328 281.507 194.829 280.756 196.625C280.345 197.61 278.535 197.839 277.667 197.965L277.643 197.979Z" fill="#263238"/>
<path opacity="0.2" d="M275.627 208.721C277.849 208.661 280.093 208.591 282.161 208.511C284.027 208.437 285.782 208.353 287.177 208.264C289.095 208.143 290.388 208.012 290.593 207.872C290.995 207.606 291.139 203.247 291.158 198.17C287.233 200.783 279.533 206.043 275.627 208.721Z" fill="black"/>
<path d="M272.365 199.201H291.965C291.965 199.201 290.892 155.106 291.102 154.079C291.606 151.625 302.769 112.751 302.769 112.751L287.299 113.017L282.016 113.106C282.016 113.106 282.483 119.583 282.287 120.269C279.701 129.701 274.657 145.805 273.625 151.774C271.81 162.139 272.365 199.201 272.365 199.201Z" fill="#263238"/>
<path d="M273 195.925C276.052 195.846 286.879 195.524 290.953 195.832C290.981 195.832 290.981 195.883 290.953 195.888C289.553 196.117 276.057 196.051 273 196.009C272.989 196.009 272.978 196.005 272.97 195.997C272.962 195.989 272.958 195.978 272.958 195.967C272.958 195.956 272.962 195.946 272.97 195.938C272.978 195.93 272.989 195.925 273 195.925Z" fill="#37474F"/>
<path d="M289.553 153.123C290.136 150.738 294.499 135.889 295.834 131.189C297.169 126.49 298.419 121.791 299.567 117.054C299.712 116.452 299.861 115.855 300.034 115.257C300.034 115.206 300.123 115.229 300.113 115.281C299.675 117.665 299.091 120.027 298.531 122.388C297.971 124.749 297.369 127.097 296.744 129.439C295.478 134.15 294.098 138.826 292.605 143.467C291.858 145.777 290.626 150.528 289.968 152.866C289.31 155.204 290.383 193.606 290.318 194.231C290.318 194.268 290.303 194.304 290.277 194.33C290.251 194.357 290.215 194.371 290.178 194.371C290.141 194.371 290.105 194.357 290.079 194.33C290.053 194.304 290.038 194.268 290.038 194.231C289.945 189.714 288.974 155.479 289.553 153.123Z" fill="#37474F"/>
<path d="M287.261 113.031C287.261 113.031 291.046 154.294 291.088 154.098C291.555 151.727 302.05 115.169 302.708 112.882L302.736 112.775L287.261 113.031Z" fill="#37474F"/>
<path d="M282.529 211.031C283.463 211.321 309.825 210.756 310.819 210.098C311.192 209.851 311.337 206.005 311.374 201.353C311.374 200.349 311.374 199.313 311.374 198.259C311.374 197.013 311.374 195.748 311.346 194.525C311.276 189.019 311.113 184.17 311.113 184.17L293.944 184.487L294.145 194.843L294.219 198.576L294.364 201.67C294.364 201.67 284.368 206.402 283.36 207.237C282.352 208.073 281.605 210.747 282.529 211.031Z" fill="#D3766A"/>
<path d="M282.529 211.031C283.463 211.321 309.825 210.756 310.819 210.098C311.192 209.851 311.337 206.005 311.374 201.353C311.374 200.349 311.374 199.313 311.374 198.259C311.374 197.013 311.374 195.748 311.346 194.525L294.145 194.843L294.219 198.576L294.364 201.67C294.364 201.67 284.368 206.402 283.36 207.237C282.352 208.073 281.605 210.747 282.529 211.031Z" fill="white"/>
<path d="M282.45 211.073C283.057 211.26 294.289 211.073 302.461 210.77C304.355 210.695 306.082 210.611 307.477 210.527C309.4 210.401 310.688 210.271 310.898 210.135C311.365 209.827 311.472 204.185 311.467 198.231L294.201 198.553L294.35 201.661C294.35 201.661 284.298 206.421 283.281 207.261C282.263 208.101 281.521 210.779 282.45 211.073Z" fill="#FB7D47"/>
<path d="M282.8 210C287.243 209.795 305.2 209.393 309.582 209.533C309.619 209.533 309.619 209.557 309.582 209.561C305.186 209.86 287.247 210.117 282.8 210.079C282.716 210.079 282.716 210 282.8 210Z" fill="#263238"/>
<path d="M293.715 200.667C295.456 200.303 297.603 200.527 298.965 201.745C299.017 201.791 298.965 201.866 298.891 201.852C297.209 201.346 295.476 201.023 293.725 200.891C293.695 200.892 293.666 200.881 293.644 200.861C293.622 200.841 293.609 200.813 293.608 200.783C293.607 200.754 293.617 200.725 293.638 200.703C293.658 200.681 293.686 200.668 293.715 200.667Z" fill="#263238"/>
<path d="M292.469 201.474C294.21 201.11 296.357 201.334 297.719 202.552C297.771 202.599 297.719 202.673 297.645 202.655C295.962 202.152 294.23 201.831 292.479 201.698C292.449 201.699 292.42 201.689 292.398 201.668C292.376 201.648 292.363 201.62 292.362 201.591C292.361 201.561 292.371 201.532 292.392 201.51C292.412 201.488 292.44 201.475 292.469 201.474Z" fill="#263238"/>
<path d="M291.223 202.263C292.964 201.899 295.111 202.123 296.473 203.341C296.525 203.387 296.473 203.462 296.399 203.443C294.716 202.941 292.984 202.619 291.233 202.482C291.207 202.478 291.184 202.465 291.167 202.446C291.149 202.427 291.14 202.402 291.138 202.376C291.137 202.35 291.145 202.325 291.161 202.304C291.176 202.284 291.198 202.269 291.223 202.263Z" fill="#263238"/>
<path d="M289.977 203.051C291.718 202.687 293.865 202.911 295.227 204.125C295.279 204.176 295.227 204.251 295.153 204.232C293.47 203.728 291.738 203.405 289.987 203.271C289.961 203.267 289.938 203.254 289.921 203.235C289.904 203.215 289.894 203.191 289.892 203.165C289.891 203.139 289.899 203.114 289.915 203.093C289.93 203.072 289.952 203.058 289.977 203.051Z" fill="#263238"/>
<path d="M291.233 199.187C292.493 200.121 294.112 200.48 295.568 200.984C295.717 201.035 295.834 200.891 295.834 200.76C295.842 200.76 295.849 200.758 295.856 200.754C295.863 200.75 295.868 200.745 295.873 200.739C295.877 200.732 295.879 200.725 295.88 200.717C295.88 200.709 295.879 200.702 295.876 200.695C295.306 199.155 294.34 197.794 293.076 196.747C292.334 196.149 291.046 195.753 290.379 196.714C289.711 197.675 290.5 198.641 291.233 199.187ZM290.766 197.787C290.416 195.874 292.497 196.854 293.025 197.321C293.357 197.627 293.668 197.954 293.958 198.301C294.554 199.029 295.111 199.788 295.629 200.573C294.929 200.279 294.229 200.051 293.501 199.789C292.67 199.453 290.953 198.842 290.761 197.787H290.766Z" fill="#263238"/>
<path d="M301.658 197.904C301.191 196.826 299.866 196.938 299.012 197.363C297.561 198.121 296.334 199.247 295.456 200.629C295.45 200.634 295.446 200.639 295.442 200.646C295.439 200.652 295.437 200.659 295.437 200.667C295.437 200.674 295.439 200.681 295.442 200.688C295.446 200.694 295.45 200.7 295.456 200.704C295.456 200.835 295.512 200.998 295.671 200.979C297.201 200.797 298.858 200.793 300.286 200.149C301.145 199.766 302.078 198.931 301.658 197.904ZM297.957 200.237C297.206 200.345 296.459 200.415 295.713 200.55C296.387 199.892 297.094 199.269 297.831 198.683C298.192 198.406 298.571 198.153 298.965 197.927C299.586 197.587 301.826 197.092 301.075 198.884C300.659 199.869 298.853 200.097 297.957 200.223V200.237Z" fill="#263238"/>
<path d="M293.221 201.194L312.228 200.844C312.228 200.844 306.889 132.291 307.561 128.655C308.649 122.71 307.725 115.925 304.864 112.705L286.342 113.045C286.342 113.045 286.067 118.249 288.031 121.333C288.031 121.333 289.791 122.397 290.64 122.869L293.221 201.194Z" fill="#263238"/>
<path d="M293.743 197.82C296.627 197.694 295.797 197.689 298.681 197.591C300.081 197.545 309.363 197.241 310.688 197.433C310.716 197.433 310.716 197.484 310.688 197.489C309.377 197.741 300.099 197.881 298.69 197.899C295.801 197.941 296.632 197.899 293.748 197.899C293.74 197.897 293.732 197.892 293.727 197.885C293.721 197.878 293.718 197.87 293.717 197.861C293.717 197.853 293.719 197.844 293.724 197.837C293.728 197.829 293.735 197.823 293.743 197.82Z" fill="#37474F"/>
<path d="M286.86 120.507C288.696 121.352 290.457 122.351 292.124 123.494C292.138 123.502 292.149 123.515 292.153 123.531C292.157 123.547 292.155 123.564 292.147 123.578C292.139 123.592 292.126 123.603 292.11 123.607C292.094 123.611 292.078 123.609 292.063 123.601C290.285 122.668 288.465 121.735 286.739 120.713C286.717 120.694 286.703 120.669 286.699 120.641C286.694 120.613 286.7 120.584 286.714 120.56C286.729 120.535 286.751 120.517 286.778 120.507C286.804 120.498 286.833 120.498 286.86 120.507Z" fill="#37474F"/>
<path d="M289.212 120.195C289.329 120.552 289.421 120.917 289.487 121.287C289.566 121.574 289.59 121.873 289.557 122.169C289.557 122.225 289.469 122.22 289.441 122.169C289.293 121.893 289.19 121.595 289.137 121.287C289.044 120.951 288.941 120.615 288.857 120.274C288.85 120.228 288.86 120.181 288.886 120.142C288.912 120.104 288.952 120.077 288.997 120.067C289.043 120.056 289.09 120.064 289.13 120.088C289.17 120.112 289.199 120.15 289.212 120.195Z" fill="#37474F"/>
<path d="M289.333 118.407C289.277 118.099 289.221 117.791 289.161 117.474C289.1 117.157 289.011 116.835 288.974 116.513C288.974 116.466 288.885 116.48 288.895 116.513C288.951 116.821 288.96 117.143 288.993 117.446C289.025 117.749 289.058 118.071 289.095 118.379C289.165 118.963 289.273 119.546 289.399 120.12C289.092 120.075 288.8 119.96 288.545 119.784C288.301 119.546 288.137 119.238 288.078 118.902C287.98 118.547 287.901 118.193 287.798 117.843C287.664 117.459 287.565 117.064 287.504 116.662C287.504 116.611 287.415 116.629 287.425 116.662C287.514 117.505 287.687 118.337 287.943 119.145C288.055 119.467 288.129 119.789 288.409 119.961C288.732 120.129 289.087 120.228 289.45 120.251C289.492 120.274 289.553 120.251 289.548 120.199C289.52 119.649 289.455 119 289.333 118.407Z" fill="#37474F"/>
<path d="M304.542 128.473C304.649 127.111 304.845 125.757 304.971 124.395C305.199 121.663 304.981 118.913 304.327 116.251C304.327 116.2 304.393 116.181 304.402 116.228C304.971 118.567 305.26 120.965 305.261 123.373C305.191 125.776 304.794 128.151 304.794 130.559C304.794 132.967 305.037 135.427 305.261 137.853C305.485 140.28 305.667 142.739 305.872 145.18C306.684 154.98 307.449 164.813 308.229 174.631C308.448 177.371 308.653 180.115 308.863 182.854C309.073 185.593 309.4 192.523 309.554 195.319C309.554 195.561 309.209 195.547 309.181 195.319C308.672 190.4 308.247 181.361 307.86 176.428C307.473 171.495 307.081 166.661 306.689 161.775C306.297 156.889 305.919 152.007 305.536 147.126C305.345 144.685 305.163 142.24 304.976 139.799C304.789 137.359 304.565 134.932 304.509 132.496C304.445 131.156 304.456 129.813 304.542 128.473Z" fill="#37474F"/>
<path d="M297.757 116.2C297.759 116.193 297.764 116.187 297.77 116.182C297.777 116.178 297.784 116.176 297.792 116.176C297.799 116.176 297.807 116.178 297.813 116.182C297.819 116.187 297.824 116.193 297.827 116.2C297.945 116.519 298.011 116.854 298.023 117.194C298.084 117.557 298.175 117.914 298.293 118.263C298.511 118.972 298.906 119.615 299.441 120.129C300.627 121.198 302.195 121.571 303.707 121.912C303.763 121.912 303.744 122.001 303.707 122.005C302.816 122.059 301.923 121.937 301.079 121.646C300.326 121.431 299.627 121.057 299.031 120.549C298.462 120.026 298.068 119.34 297.901 118.585C297.817 118.192 297.767 117.792 297.752 117.39C297.752 117.199 297.752 117.003 297.752 116.811C297.71 116.61 297.712 116.401 297.757 116.2Z" fill="#37474F"/>
<path d="M290.481 87.7567C282.739 93.5013 270.139 94.0193 268.735 93.3567C265.762 91.9893 261.441 79.1513 260.395 74.4707C260.097 73.1173 269.892 73.4533 270.872 74.564C271.768 75.5767 273.924 84.448 274.825 84.5787C279.328 84.7209 283.836 84.5962 288.325 84.2053C294.821 83.5333 292.773 86.058 290.481 87.7567Z" fill="#D3766A"/>
<path d="M280.933 83.916L282.095 92.9833C282.095 92.9833 288.988 90.286 291.989 87.5187C294.989 84.7513 293.277 83.734 290.281 83.58C287.285 83.426 280.933 83.916 280.933 83.916Z" fill="#EBEBEB"/>
<path d="M282.422 84.2007C282.422 84.14 282.455 84.1167 282.464 84.1773C282.947 86.6903 283.274 89.2307 283.444 91.784C283.444 91.784 283.416 91.784 283.411 91.784C283.094 90.5613 282.525 84.854 282.422 84.2007Z" fill="#263238"/>
<path d="M308.579 118.683C308.513 118.757 281.092 119.341 280.84 119.065C280.481 118.673 284.905 91.1727 289.24 85.1713C290.323 83.6733 294.215 82.642 295.834 84.1587C300.538 88.55 301.527 92.2553 302.759 95.2747C303.956 98.5406 304.961 101.874 305.769 105.257C307.431 111.715 308.798 118.421 308.579 118.683Z" fill="#EBEBEB"/>
<path d="M296.333 84.224C296.333 84.224 292.297 93.436 291.634 95.788C290.724 99.008 289.394 120.232 289.394 120.232L308.994 119.084C308.994 119.084 305.261 97.8647 300.991 90.3327C297.64 84.406 296.333 84.224 296.333 84.224Z" fill="#FB7D47"/>
<path d="M289.954 84.6673C289.954 84.6673 287.677 93.0673 287.229 94.3367C286.781 95.606 282.8 120.246 282.8 120.246L280.383 119.345C280.383 119.345 283.103 102.284 285.516 93.5947C287.929 84.9053 289.954 84.6673 289.954 84.6673Z" fill="#FB7D47"/>
<path d="M289.949 111.93L307.505 111.893C307.356 111.235 307.202 110.544 307.039 109.83L290.113 109.863C290.047 110.563 290.001 111.253 289.949 111.93Z" fill="#EBEBEB"/>
<path d="M281.652 111.944H284.163C284.27 111.272 284.387 110.581 284.503 109.881H282.025C281.895 110.6 281.769 111.281 281.652 111.944Z" fill="#EBEBEB"/>
<path d="M289.688 115.551L308.28 115.514C308.149 114.889 308.005 114.198 307.846 113.456L289.837 113.493C289.8 114.221 289.735 114.912 289.688 115.551Z" fill="#EBEBEB"/>
<path d="M281.017 115.57H283.57C283.673 114.921 283.785 114.231 283.901 113.507H281.372C281.246 114.249 281.125 114.94 281.017 115.57Z" fill="#EBEBEB"/>
<path d="M299.339 90.1927C300.384 97.8833 298.914 108.584 297.164 109.83C292.171 113.381 283.579 115.271 279.925 115.696C277.797 115.943 276.915 105.429 278.796 105.107C281.764 104.613 288.867 103.105 289.875 102.653C290.883 102.2 292.833 95.186 294.672 90.0947C296.669 84.5647 298.835 86.4687 299.339 90.1927Z" fill="#D3766A"/>
<path d="M281.148 105.467C279.521 104.371 278.062 103.045 276.817 101.528C275.417 99.6613 273.509 96.7493 272.477 97.4727C270.368 98.9613 275.095 106.246 275.095 106.246C275.095 106.246 277.695 109.125 279.921 107.833C280.323 107.589 280.65 107.24 280.867 106.822C281.083 106.405 281.181 105.936 281.148 105.467Z" fill="#D3766A"/>
<path d="M266.541 105.728C266.448 106.048 266.454 106.389 266.56 106.705C266.666 107.021 266.866 107.298 267.134 107.497C266.698 107.859 266.402 108.362 266.299 108.92C266.159 109.909 267.652 110.558 267.652 110.558C267.277 111.026 267.052 111.597 267.008 112.196C266.971 113.157 268.38 114.025 268.38 114.025C268.275 114.648 268.398 115.287 268.725 115.827C269.659 117.227 272.225 117.161 273.859 117.138C275.492 117.115 280.107 115.509 281.017 115.271L280.933 104.795C280.933 104.795 273.569 102.825 271.651 103.129C270.046 103.385 266.933 104.533 266.541 105.728Z" fill="#D3766A"/>
<path d="M267.204 107.333C268.856 106.647 270.62 106.493 272.375 106.232C272.412 106.232 272.421 106.288 272.375 106.293C270.629 106.531 268.949 107.109 267.241 107.417C267.231 107.42 267.22 107.419 267.21 107.414C267.2 107.409 267.192 107.401 267.187 107.391C267.183 107.381 267.182 107.37 267.185 107.359C267.188 107.349 267.195 107.339 267.204 107.333Z" fill="#263238"/>
<path d="M267.685 110.418C268.074 110.301 268.478 110.236 268.884 110.222C269.318 110.18 269.747 110.143 270.177 110.119C271.04 110.063 271.908 110.026 272.771 110.017C272.809 110.017 272.818 110.077 272.771 110.077C271.908 110.133 271.049 110.203 270.191 110.297C269.766 110.343 269.337 110.39 268.907 110.446C268.506 110.519 268.098 110.55 267.689 110.539C267.677 110.535 267.666 110.527 267.659 110.516C267.651 110.506 267.646 110.493 267.646 110.48C267.645 110.467 267.649 110.454 267.656 110.443C267.663 110.432 267.673 110.423 267.685 110.418Z" fill="#263238"/>
<path d="M268.417 114.025C268.772 113.922 269.141 113.881 269.509 113.904L270.69 113.843C271.479 113.801 272.267 113.759 273.051 113.689C273.089 113.689 273.098 113.75 273.051 113.75C272.253 113.825 271.455 113.913 270.657 113.979L269.481 114.072C269.126 114.135 268.763 114.135 268.408 114.072C268.408 114.072 268.403 114.03 268.417 114.025Z" fill="#263238"/>
<path d="M291.779 97.4493L300.645 99.7827C300.645 99.7827 300.725 92.3813 299.283 88.5827C297.841 84.784 296.259 85.974 294.994 88.6947C293.729 91.4153 291.779 97.4493 291.779 97.4493Z" fill="#EBEBEB"/>
<path d="M292.6 96.18C292.539 96.18 292.53 96.124 292.6 96.1333C295.111 96.6277 297.589 97.2761 300.02 98.0747C300.02 98.0747 300.02 98.112 300.02 98.1073C298.746 97.944 293.239 96.334 292.6 96.18Z" fill="#263238"/>
<path d="M309.764 69.6453C311.748 69.7152 313.673 70.3377 315.322 71.4425C316.971 72.5473 318.278 74.0907 319.097 75.8987L310.371 75.6L308.504 80.29L310.021 85.0967L318.752 85.4093C317.845 87.0798 316.509 88.4777 314.881 89.4585C313.253 90.4392 311.393 90.9673 309.492 90.988C307.592 91.0087 305.72 90.5213 304.071 89.5761C302.422 88.631 301.056 87.2625 300.113 85.6122C299.17 83.9619 298.685 82.0897 298.709 80.1893C298.732 78.2888 299.263 76.4291 300.246 74.8025C301.229 73.1759 302.629 71.8415 304.301 70.9373C305.972 70.033 307.855 69.5919 309.755 69.6593L309.764 69.6453Z" fill="#455A64"/>
<path d="M247.735 88.7693C245.751 88.6994 243.826 88.077 242.177 86.9722C240.528 85.8673 239.221 84.324 238.401 82.516L247.128 82.8287L248.995 78.162L247.478 73.3507L238.747 73.038C239.653 71.3674 240.99 69.9694 242.618 68.9887C244.246 68.0079 246.107 67.48 248.008 67.4595C249.909 67.439 251.78 67.9268 253.429 68.8723C255.078 69.8178 256.445 71.1867 257.387 72.8373C258.329 74.488 258.814 76.3605 258.79 78.2612C258.766 80.1618 258.235 82.0216 257.251 83.648C256.267 85.2744 254.867 86.6085 253.195 87.5122C251.522 88.4158 249.639 88.8563 247.739 88.788L247.735 88.7693Z" fill="#455A64"/>
<path d="M254.194 73.5686L253.854 83.0639L305.7 84.9197L306.04 75.4244L254.194 73.5686Z" fill="#455A64"/>
<path d="M269.384 76.9169L269.243 80.8297L290.593 81.5977L290.734 77.6849L269.384 76.9169Z" fill="#37474F"/>
<path d="M290.976 87.9667C292.11 88.1907 294.807 86.4033 296.002 84.7373C296.081 84.6253 296.053 83.3093 296.091 81.7133C296.119 80.7473 296.17 79.6693 296.291 78.6893L289.963 79.4313C290.163 80.6999 290.208 81.9879 290.099 83.2673C290.079 83.4019 290.047 83.5346 290.005 83.664C290.005 83.664 290.005 83.706 290.005 83.7293C289.772 84.4667 289.198 87.6213 290.976 87.9667Z" fill="#D3766A"/>
<path d="M290.005 83.664C290.009 83.6856 290.009 83.7077 290.005 83.7293C290.212 83.7834 290.423 83.8209 290.635 83.8413C294.205 84.196 295.629 79.9213 295.951 78.736L289.977 79.4313C290.179 80.6996 290.226 81.9877 290.117 83.2673C290.089 83.4019 290.052 83.5344 290.005 83.664Z" fill="#263238"/>
<path d="M297.416 70.3967C298.083 72.5947 296.921 78.932 295.358 80.346C293.095 82.3947 289.389 82.5907 287.649 79.8793C285.959 77.238 287.621 69.0013 289.366 67.718C291.937 65.8 296.427 67.1533 297.416 70.3967Z" fill="#D3766A"/>
<path d="M292.133 74.3027C292.133 74.3027 292.161 74.3307 292.133 74.3447C292.021 74.7647 291.97 75.278 292.325 75.4927C291.881 75.348 291.956 74.6667 292.133 74.3027Z" fill="#263238"/>
<path d="M292.6 73.9433C293.291 74.046 293.039 75.4227 292.399 75.3433C291.76 75.264 292.021 73.8593 292.6 73.9433Z" fill="#263238"/>
<path d="M289.459 73.78C289.459 73.78 289.422 73.78 289.422 73.808C289.357 74.2373 289.207 74.7413 288.797 74.7927C289.282 74.8347 289.469 74.2 289.459 73.78Z" fill="#263238"/>
<path d="M289.161 73.2667C288.484 73.0893 288.176 74.4567 288.806 74.62C289.436 74.7833 289.73 73.4113 289.161 73.2667Z" fill="#263238"/>
<path d="M293.263 73.4113C293.091 73.3256 292.925 73.2305 292.763 73.1267C292.572 73.0147 292.409 72.9447 292.297 72.7393C292.274 72.6775 292.273 72.6099 292.293 72.5473C292.313 72.4847 292.354 72.4307 292.409 72.394C292.527 72.3374 292.658 72.3132 292.788 72.3238C292.918 72.3345 293.044 72.3796 293.151 72.4547C293.391 72.5728 293.579 72.7756 293.678 73.024C293.695 73.0806 293.695 73.1407 293.68 73.1976C293.664 73.2545 293.633 73.3059 293.59 73.3461C293.547 73.3864 293.494 73.4138 293.436 73.4253C293.378 73.4368 293.318 73.432 293.263 73.4113Z" fill="#263238"/>
<path d="M288.778 72.6367C288.97 72.6343 289.162 72.6202 289.352 72.5947C289.557 72.6083 289.76 72.5542 289.931 72.4407C289.978 72.3946 290.008 72.3342 290.016 72.269C290.024 72.2039 290.011 72.1378 289.977 72.0813C289.896 71.9789 289.788 71.9002 289.666 71.8534C289.544 71.8067 289.411 71.7935 289.282 71.8153C289.014 71.8151 288.755 71.9169 288.559 72.1C288.516 72.1443 288.488 72.1999 288.476 72.2602C288.465 72.3205 288.471 72.3828 288.494 72.4395C288.517 72.4963 288.557 72.5452 288.607 72.5801C288.657 72.6151 288.717 72.6348 288.778 72.6367Z" fill="#263238"/>
<path d="M291.429 78.3253C291.319 78.4333 291.176 78.4994 291.023 78.512C290.864 78.4807 290.715 78.4154 290.584 78.3207C290.556 78.3207 290.584 78.3207 290.584 78.3207C290.631 78.4156 290.703 78.4964 290.791 78.5546C290.88 78.6128 290.982 78.6464 291.088 78.652C291.179 78.6439 291.265 78.6096 291.336 78.5532C291.407 78.4969 291.461 78.4209 291.489 78.3347C291.48 78.33 291.447 78.316 291.429 78.3253Z" fill="#263238"/>
<path d="M291.2 76.9673C291.061 77.1157 290.892 77.2338 290.705 77.3141C290.518 77.3944 290.316 77.4352 290.113 77.434C289.935 77.436 289.757 77.4124 289.585 77.364L289.487 77.336L289.394 77.3033C289.373 77.2937 289.355 77.2778 289.344 77.2577C289.332 77.2377 289.327 77.2145 289.329 77.1913C289.327 77.1774 289.327 77.1632 289.329 77.1493V77.112C289.38 76.7853 289.506 76.2907 289.506 76.2907C289.371 76.328 288.708 76.4913 288.75 76.3187C289.06 74.843 289.52 73.4029 290.122 72.0207C290.128 72.0138 290.135 72.0088 290.144 72.0065C290.152 72.0042 290.161 72.0046 290.17 72.0077C290.178 72.0108 290.185 72.0164 290.19 72.0238C290.195 72.0311 290.197 72.0398 290.197 72.0487C289.917 73.4113 289.403 74.718 289.1 76.0853C289.336 76.0243 289.58 75.9976 289.823 76.006C289.87 76.006 289.571 76.9393 289.557 77.1073C289.822 77.1838 290.099 77.2062 290.373 77.1733C290.646 77.1405 290.91 77.053 291.149 76.916C291.2 76.902 291.247 76.9347 291.2 76.9673Z" fill="#263238"/>
<path d="M289.823 77.2333C289.961 77.5015 290.165 77.7298 290.416 77.896C290.556 77.9812 290.719 78.0204 290.883 78.008C291.237 78.008 291.307 77.672 291.293 77.392C291.283 77.2434 291.256 77.0963 291.214 76.9533C290.792 77.1914 290.305 77.2895 289.823 77.2333Z" fill="#263238"/>
<path d="M290.416 77.896C290.556 77.9812 290.719 78.0204 290.883 78.008C291.237 78.008 291.307 77.672 291.293 77.392C291.112 77.3652 290.926 77.4003 290.767 77.4918C290.608 77.5832 290.484 77.7256 290.416 77.896Z" fill="#FF9BBC"/>
<path d="M288.311 69.3187C288.405 69.1367 288.661 68.6933 288.909 68.7073C289.156 68.7213 289.375 69.2627 289.959 69.4727C290.761 69.7807 292.292 69.006 293.403 69.4167C294.513 69.8273 295.092 70.9753 295.129 73.0193C295.167 75.0633 296.613 76.8413 297.187 75.5533C297.187 75.5067 297.239 75.4227 297.295 75.3013C297.64 73.3787 297.733 71.428 297.416 70.3967C296.427 67.1533 291.933 65.814 289.366 67.7087C288.889 68.1515 288.527 68.7041 288.311 69.3187Z" fill="#263238"/>
<path d="M296.058 75.5627C296.058 75.5627 297.533 73.542 298.452 74.074C299.371 74.606 298.233 77.5553 297.131 77.938C296.994 77.9975 296.846 78.0285 296.696 78.0291C296.546 78.0297 296.398 77.9998 296.26 77.9413C296.122 77.8829 295.998 77.797 295.894 77.6889C295.79 77.5809 295.709 77.4528 295.657 77.3127L296.058 75.5627Z" fill="#D3766A"/>
<path d="M298.107 74.914C298.107 74.914 298.107 74.9373 298.107 74.942C297.751 75.1093 297.435 75.3495 297.179 75.647C296.922 75.9444 296.731 76.2925 296.618 76.6687C296.664 76.5906 296.726 76.5236 296.801 76.4725C296.875 76.4214 296.96 76.3875 297.049 76.3733C297.139 76.359 297.23 76.3647 297.317 76.3899C297.404 76.4152 297.484 76.4594 297.551 76.5193C297.551 76.5193 297.551 76.566 297.551 76.5613C297.418 76.5159 297.274 76.5125 297.139 76.5518C297.004 76.591 296.884 76.6709 296.795 76.7807C296.651 76.9682 296.526 77.1699 296.422 77.3827C296.385 77.4527 296.259 77.4107 296.287 77.336C296.268 76.3373 297.057 74.9887 298.107 74.914Z" fill="#263238"/>
<path d="M287.392 70.1727C287.392 70.1727 289.259 64.0733 294.723 65.7113C300.188 67.3493 298.391 73.472 298.391 73.472L287.392 70.1727Z" fill="#FB7D47"/>
<path d="M298.92 73.174L287.101 69.6284L286.841 70.4955L298.66 74.0412L298.92 73.174Z" fill="#FB7D47"/>
<path d="M292.931 71.3627L290.472 70.6253L292.847 64.806L295.307 65.5433L292.931 71.3627Z" fill="#FB7D47"/>
<path opacity="0.1" d="M292.931 71.3627L290.472 70.6253L292.847 64.806L295.307 65.5433L292.931 71.3627Z" fill="black"/>
<path d="M259.971 80.3087C261.161 81.1113 261.427 79.2447 261.427 79.2447C261.427 79.2447 261.693 82.0447 263.247 82.376C264.801 82.7073 264.983 80.444 265.001 80.2853C265.001 80.43 265.328 82.978 266.924 83.174C268.52 83.37 268.431 81.0553 268.422 80.906C268.483 81.0413 269.281 82.8007 270.527 82.6747C272.664 82.4507 270.807 77.2287 271.535 75.6467L274.699 74.9233C273.889 74.7208 273.154 74.288 272.585 73.6773C271.735 72.8187 271.185 72.2447 270.461 72.0067C270.143 71.8899 269.795 71.8791 269.469 71.9757C269.144 72.0724 268.859 72.2715 268.655 72.5433C268.655 72.5433 268.249 71.0687 266.999 70.8773C266.355 70.7793 265.627 71.722 265.627 71.722C265.518 71.3954 265.321 71.1053 265.057 70.8837C264.794 70.6622 264.474 70.5178 264.133 70.4667C263.237 70.3827 262.645 71.344 262.645 71.344C262.645 71.344 261.767 70.4107 260.825 70.602C258.921 71.008 257.413 78.582 259.971 80.3087Z" fill="#D3766A"/>
<path d="M272.235 75.3667L274.633 74.928L274.885 74.816C277.685 73.4533 278.581 69.5613 276.374 69.916C274.694 70.1867 273.537 72.8327 271.777 72.8607L272.235 75.3667Z" fill="#D3766A"/>
<path d="M262.528 71.4653H262.491C261.342 73.918 260.963 76.661 261.403 79.3333C261.403 79.4173 261.562 79.4313 261.562 79.3333C261.503 76.6778 261.828 74.0277 262.528 71.4653Z" fill="#263238"/>
<path d="M265.622 71.68C265.622 71.652 265.58 71.638 265.566 71.68C264.323 74.4052 264.091 77.4841 264.913 80.3647C264.945 80.4673 265.076 80.5233 265.048 80.4067C264.6 78.4 264.927 74.0787 265.622 71.68Z" fill="#263238"/>
<path d="M268.557 81.088C267.778 78.288 267.979 75.488 268.599 72.6413C268.599 72.604 268.557 72.5947 268.539 72.6413C267.857 73.948 267.652 75.796 267.605 77.2473C267.543 78.5946 267.834 79.9347 268.45 81.1347C268.483 81.1627 268.576 81.1487 268.557 81.088Z" fill="#263238"/>
</svg>
