<svg width="300" height="300" viewBox="0 0 300 300" fill="none" xmlns="http://www.w3.org/2000/svg">
<path d="M231.66 96.204C209.076 96.204 209.04 128.316 231.66 128.316C254.28 128.316 254.28 96.204 231.66 96.204Z" fill="#EBEBEB"/>
<path d="M245.4 115.272C244.2 120.798 239.61 125.586 231.66 125.586C212.892 125.586 212.922 98.934 231.66 98.934H232.032C214.392 99.258 214.476 124.5 232.374 124.5C239.67 124.506 244.02 120.282 245.4 115.272Z" fill="#DBDBDB"/>
<path d="M231.792 102.45C231.94 102.449 232.084 102.503 232.195 102.602C232.305 102.7 232.376 102.837 232.392 102.984V103.878C233.96 103.983 235.467 104.525 236.742 105.444C236.958 105.6 237.084 105.732 237.084 105.96C237.073 106.118 237 106.266 236.881 106.37C236.762 106.475 236.606 106.528 236.448 106.518C236.288 106.523 236.131 106.467 236.01 106.362C234.946 105.549 233.677 105.046 232.344 104.91V111.168C236.058 111.882 237.618 113.154 237.618 115.368C237.618 117.738 235.446 119.412 232.392 119.502V121.2C232.362 121.333 232.287 121.451 232.181 121.536C232.075 121.62 231.943 121.667 231.807 121.667C231.671 121.667 231.539 121.62 231.433 121.536C231.327 121.451 231.252 121.333 231.222 121.2V119.46C229.206 119.335 227.28 118.577 225.72 117.294C225.641 117.242 225.575 117.172 225.528 117.089C225.481 117.007 225.454 116.915 225.45 116.82C225.461 116.668 225.529 116.526 225.64 116.423C225.751 116.319 225.898 116.262 226.05 116.262C226.212 116.259 226.37 116.314 226.494 116.418C227.82 117.594 229.492 118.308 231.258 118.452V112.086C227.592 111.348 226.074 110.118 226.074 107.886C226.074 105.654 228.228 103.908 231.21 103.842V102.99C231.216 102.841 231.281 102.701 231.39 102.6C231.499 102.499 231.643 102.445 231.792 102.45ZM231.258 110.946V104.838C228.888 104.886 227.322 106.182 227.322 107.79C227.322 109.398 228.102 110.25 231.258 110.946ZM232.332 112.308V118.476C234.774 118.434 236.364 117.138 236.364 115.434C236.364 113.892 235.506 112.956 232.332 112.308Z" fill="#DBDBDB"/>
<path d="M101.58 25.8C78.996 25.8 78.96 57.912 101.58 57.912C124.2 57.912 124.2 25.8 101.58 25.8Z" fill="#EBEBEB"/>
<path d="M115.314 44.886C114.114 50.406 109.524 55.2 101.574 55.2C82.806 55.2 82.836 28.548 101.574 28.548H101.946C84.306 28.872 84.39 54.114 102.288 54.114C109.59 54.12 113.94 49.896 115.314 44.886Z" fill="#DBDBDB"/>
<path d="M101.712 32.058C101.861 32.0572 102.005 32.1122 102.116 32.212C102.227 32.3119 102.297 32.4495 102.312 32.598V33.492C103.88 33.5968 105.387 34.1394 106.662 35.058C106.878 35.214 107.004 35.346 107.004 35.568C106.993 35.7262 106.92 35.8736 106.801 35.9782C106.682 36.0827 106.526 36.1359 106.368 36.126C106.287 36.1312 106.206 36.1201 106.13 36.0933C106.054 36.0665 105.984 36.0246 105.924 35.97C104.859 35.1611 103.594 34.6589 102.264 34.518V40.8C105.978 41.52 107.538 42.792 107.538 45C107.538 47.37 105.366 49.05 102.312 49.14V50.88C102.312 51.0391 102.249 51.1917 102.136 51.3043C102.024 51.4168 101.871 51.48 101.712 51.48C101.553 51.48 101.4 51.4168 101.288 51.3043C101.175 51.1917 101.112 51.0391 101.112 50.88V49.074C99.0972 48.9459 97.174 48.1859 95.616 46.902C95.5375 46.8505 95.4722 46.7814 95.4253 46.7001C95.3785 46.6188 95.3513 46.5277 95.346 46.434C95.3567 46.2822 95.4245 46.1402 95.5359 46.0366C95.6473 45.933 95.7939 45.8756 95.946 45.876C96.1064 45.8714 96.2626 45.9271 96.384 46.032C97.7134 47.2062 99.3864 47.9196 101.154 48.066V41.694C97.488 40.956 95.97 39.726 95.97 37.494C95.97 35.262 98.124 33.516 101.1 33.444V32.598C101.115 32.4474 101.187 32.308 101.3 32.2079C101.414 32.1078 101.561 32.0542 101.712 32.058ZM101.178 40.554V34.452C98.808 34.494 97.242 35.796 97.242 37.404C97.242 38.922 98.022 39.864 101.178 40.554ZM102.252 41.916V48.09C104.694 48.042 106.284 46.746 106.284 45.048C106.284 43.506 105.426 42.6 102.252 41.916Z" fill="#DBDBDB"/>
<path d="M59.112 78.798C38.772 82.446 44.148 112.572 64.512 108.918C84.876 105.264 79.476 75.144 59.112 78.798Z" fill="#DBDBDB"/>
<path d="M61.02 78.456C41.64 81.936 47.01 112.056 66.42 108.576C85.83 105.096 80.43 75 61.02 78.456Z" fill="#EBEBEB"/>
<path d="M76.014 94.2C75.906 99.6 72.786 104.766 65.964 105.99C49.854 108.882 45.39 83.88 61.476 80.994L61.794 80.94C46.71 83.94 51.036 107.622 66.39 104.868C72.66 103.764 75.678 99.132 76.014 94.2Z" fill="#DBDBDB"/>
<path d="M62.184 84.294C62.2502 84.281 62.3184 84.2812 62.3845 84.2947C62.4506 84.3082 62.5134 84.3347 62.5692 84.3727C62.625 84.4106 62.6728 84.4593 62.7096 84.5158C62.7465 84.5723 62.7718 84.6356 62.784 84.702L62.934 85.542C64.3158 85.4026 65.7077 85.6806 66.93 86.34C67.146 86.454 67.272 86.562 67.308 86.772C67.3253 86.9108 67.2881 87.0509 67.2042 87.1628C67.1202 87.2748 66.9961 87.3497 66.858 87.372C66.7893 87.3882 66.7179 87.3897 66.6486 87.3762C66.5793 87.3628 66.5137 87.3347 66.456 87.294C65.4273 86.705 64.2495 86.4277 63.066 86.496L64.122 92.37C67.428 92.466 68.982 93.42 69.354 95.478C69.75 97.698 68.154 99.606 65.562 100.158L65.856 101.796C65.8799 101.93 65.8497 102.067 65.772 102.179C65.6944 102.29 65.5757 102.366 65.442 102.39C65.3083 102.414 65.1707 102.384 65.0593 102.306C64.9479 102.228 64.8719 102.11 64.848 101.976L64.548 100.32C62.7675 100.499 60.9782 100.077 59.466 99.12C59.3614 99.0739 59.2744 98.9954 59.2177 98.8962C59.1611 98.7969 59.1377 98.6821 59.1512 98.5686C59.1646 98.4551 59.2141 98.3489 59.2924 98.2657C59.3706 98.1824 59.4736 98.1264 59.586 98.106C59.6557 98.0907 59.7279 98.0898 59.798 98.1032C59.8681 98.1166 59.9348 98.1441 59.994 98.184C61.2935 99.0672 62.8558 99.48 64.422 99.354L63.354 93.354C60.084 93.228 58.554 92.31 58.2 90.216C57.846 88.122 59.4 86.148 61.92 85.626L61.776 84.834C61.7688 84.7102 61.8059 84.5878 61.8806 84.4889C61.9554 84.39 62.0629 84.3209 62.184 84.294ZM63.156 92.34L62.124 86.616C60.102 87.024 58.974 88.482 59.25 89.994C59.502 91.416 60.33 92.178 63.156 92.34ZM64.308 93.456L65.346 99.24C67.434 98.826 68.58 97.362 68.292 95.772C68.034 94.326 67.14 93.6 64.308 93.456Z" fill="#DBDBDB"/>
<path d="M192.75 132.432C175.35 135.558 179.928 161.37 197.376 158.232C214.824 155.094 210.198 129.3 192.75 132.432Z" fill="#DBDBDB"/>
<path d="M194.4 132.138C177.798 135.138 182.4 160.938 199.032 157.938C215.664 154.938 211.014 129.156 194.4 132.138Z" fill="#EBEBEB"/>
<path d="M207.228 145.65C207.138 150.246 204.462 154.704 198.618 155.748C184.818 158.226 180.996 136.806 194.772 134.334L195.048 134.292C182.124 136.878 185.826 157.146 198.984 154.788C204.354 153.822 206.94 149.856 207.228 145.65Z" fill="#DBDBDB"/>
<path d="M197.694 137.13C197.809 137.144 197.915 137.202 197.987 137.293C198.059 137.385 198.091 137.501 198.078 137.616L197.994 138.342C199.162 138.567 200.235 139.14 201.072 139.986C201.142 140.037 201.197 140.105 201.233 140.184C201.269 140.263 201.283 140.35 201.276 140.436C201.258 140.557 201.193 140.667 201.096 140.741C200.998 140.815 200.875 140.847 200.754 140.832C200.693 140.827 200.634 140.809 200.58 140.78C200.527 140.752 200.48 140.712 200.442 140.664C199.746 139.925 198.849 139.406 197.862 139.17L197.262 144.246C199.95 145.146 200.988 146.316 200.778 148.092C200.556 150.012 198.78 151.182 196.506 150.99L196.338 152.406C196.323 152.521 196.264 152.625 196.173 152.697C196.082 152.768 195.967 152.802 195.852 152.79C195.738 152.774 195.634 152.714 195.563 152.624C195.492 152.533 195.458 152.419 195.468 152.304L195.642 150.87C194.136 150.578 192.771 149.79 191.766 148.632C191.71 148.582 191.667 148.52 191.641 148.45C191.615 148.38 191.606 148.304 191.616 148.23C191.627 148.14 191.665 148.056 191.724 147.988C191.782 147.919 191.86 147.869 191.947 147.844C192.034 147.819 192.126 147.82 192.212 147.847C192.298 147.874 192.375 147.926 192.432 147.996C193.278 149.045 194.457 149.774 195.774 150.06L196.374 144.894C193.722 143.976 192.72 142.848 192.93 141.036C193.14 139.224 194.904 137.994 197.13 138.204L197.208 137.514C197.223 137.399 197.282 137.295 197.373 137.223C197.464 137.152 197.579 137.118 197.694 137.13ZM196.494 143.97L197.094 139.02C195.33 138.852 194.046 139.764 193.896 141.072C193.746 142.38 194.214 143.13 196.488 144L196.494 143.97ZM197.16 145.17L196.56 150.168C198.36 150.348 199.68 149.436 199.842 148.056C199.992 146.808 199.452 145.968 197.154 145.2L197.16 145.17Z" fill="#DBDBDB"/>
<path d="M134.022 218.184C130.776 222.768 131.436 236.784 129.474 238.728C127.512 240.672 107.376 240.486 106.02 239.328C104.664 238.17 105.306 233.232 103.782 232.416C103.2 232.098 134.022 218.184 134.022 218.184Z" fill="#EBEBEB"/>
<path d="M48.054 218.4C52.11 224.25 49.92 236.754 51.882 238.716C53.844 240.678 73.98 240.474 75.336 239.316C76.692 238.158 76.068 232.95 76.872 231.96C77.298 231.444 48.054 218.4 48.054 218.4Z" fill="#EBEBEB"/>
<path d="M103.8 232.416C104.036 232.595 104.235 232.819 104.383 233.076C104.531 233.332 104.627 233.616 104.664 233.91C113.959 232.825 123.043 230.381 131.628 226.656C132.09 223.248 132.762 219.99 134.028 218.19C134.016 218.19 103.2 232.098 103.8 232.416Z" fill="#DBDBDB"/>
<path d="M48.054 218.4C49.566 220.584 50.214 223.698 50.526 226.836C58.7582 230.486 67.4844 232.9 76.422 234C76.4102 233.298 76.5644 232.603 76.872 231.972C77.298 231.444 48.054 218.4 48.054 218.4Z" fill="#DBDBDB"/>
<path d="M92.4 133.566C132.9 133.566 148.398 165.264 148.398 183.816C148.398 202.122 136.626 233.232 92.4 233.232C48.174 233.232 33.498 206.874 33.498 183.396C33.498 159.918 51.474 133.566 92.4 133.566Z" fill="#EBEBEB"/>
<path d="M80.958 135.852C80.958 135.852 62.466 121.668 42.432 123.36C35.532 123.96 46.986 138.888 47.196 150.564L80.958 135.852Z" fill="#EBEBEB"/>
<path d="M54.918 144.846C55.038 145.584 48.654 148.32 47.994 147.9C47.334 147.48 46.668 138.3 41.46 128.484C40.692 127.044 53.688 136.944 54.918 144.846Z" fill="#DBDBDB"/>
<path d="M137.748 163.518C137.508 162.27 137.358 161.148 137.238 159.954C137.114 158.758 137.054 157.556 137.058 156.354C137.052 155.105 137.161 153.858 137.382 152.628C137.614 151.206 138.184 149.86 139.044 148.704C139.581 148.031 140.278 147.502 141.072 147.168C141.456 147.005 141.859 146.892 142.272 146.832C142.669 146.774 143.071 146.756 143.472 146.778C144.927 146.888 146.312 147.445 147.438 148.374C148.449 149.184 149.308 150.168 149.976 151.278C150.666 152.378 151.138 153.6 151.368 154.878C151.522 155.653 151.464 156.455 151.2 157.2C151.018 157.671 150.698 158.077 150.282 158.364C149.885 158.626 149.425 158.777 148.95 158.802C148.461 158.832 147.974 158.715 147.552 158.466C147.188 158.238 146.879 157.933 146.646 157.572C146.287 156.987 146.046 156.336 145.938 155.658C145.74 154.453 145.752 153.223 145.974 152.022C146.157 150.819 146.594 149.67 147.258 148.65C147.612 148.108 148.091 147.659 148.656 147.342C149.238 147.026 149.91 146.914 150.564 147.024C151.741 147.291 152.805 147.92 153.606 148.824C155.133 150.501 156.351 152.435 157.206 154.536C156.207 152.546 154.867 150.746 153.246 149.22C152.491 148.486 151.523 148.009 150.48 147.858C150.006 147.842 149.539 147.969 149.139 148.223C148.738 148.477 148.424 148.845 148.236 149.28C147.765 150.197 147.493 151.203 147.438 152.232C147.347 153.255 147.434 154.287 147.696 155.28C147.797 155.713 147.985 156.121 148.248 156.48C148.33 156.585 148.435 156.671 148.554 156.732C148.626 156.756 148.704 156.756 148.776 156.732C148.878 156.732 148.998 156.654 149.004 156.618C149.04 156.569 149.063 156.511 149.07 156.45C149.124 156.105 149.1 155.752 148.998 155.418C148.427 153.588 147.248 152.009 145.656 150.942C145.001 150.481 144.218 150.238 143.418 150.246C143.252 150.253 143.087 150.28 142.926 150.324C142.792 150.356 142.662 150.407 142.542 150.474C142.312 150.609 142.118 150.799 141.978 151.026C141.591 151.734 141.363 152.519 141.312 153.324C141.22 154.322 141.22 155.326 141.312 156.324C141.4 157.364 141.54 158.4 141.732 159.426C141.924 160.452 142.17 161.532 142.434 162.468L137.748 163.518Z" fill="#EBEBEB"/>
<path d="M48.6 172.8C48.66 172.674 48.84 173.028 48.804 173.172C47.916 176.64 47.484 180.762 50.388 182.622C50.478 182.676 50.43 182.85 50.316 182.808C46.596 181.422 47.226 175.956 48.6 172.8Z" fill="#DBDBDB"/>
<path d="M52.548 169.86C58.26 170.676 56.202 182.04 50.91 181.26C45.618 180.48 47.76 169.2 52.548 169.86Z" fill="#DBDBDB"/>
<path d="M37.278 165.09C36.396 167.748 28.362 165.594 26.34 167.274C23.154 169.92 24.036 202.728 26.94 205.368C28.578 206.85 37.686 205.29 40.242 207.09C42.798 208.89 37.278 165.09 37.278 165.09Z" fill="#EBEBEB"/>
<path d="M27.402 199.998C28.2271 199.998 28.896 193.519 28.896 185.526C28.896 177.533 28.2271 171.054 27.402 171.054C26.5768 171.054 25.908 177.533 25.908 185.526C25.908 193.519 26.5768 199.998 27.402 199.998Z" fill="#DBDBDB"/>
<path d="M108.084 144.078C107.952 144.03 94.284 139.59 81.594 143.064L80.328 138.438C94.464 134.568 108.99 139.32 109.602 139.524L108.084 144.078Z" fill="#DBDBDB"/>
<path d="M127.038 213.738C145.284 192.774 134.124 168.432 133.638 167.388C133.288 166.672 133.237 165.846 133.495 165.092C133.754 164.338 134.302 163.718 135.018 163.368C135.734 163.018 136.56 162.967 137.314 163.225C138.068 163.484 138.688 164.032 139.038 164.748C141.502 170.271 142.959 176.19 143.34 182.226C144.216 195.552 139.806 207.798 129.372 216.132C126.186 218.64 124.698 216.432 127.038 213.738Z" fill="white"/>
<path d="M135 158.088C135 158.734 134.809 159.365 134.45 159.901C134.091 160.438 133.581 160.856 132.985 161.104C132.389 161.351 131.732 161.415 131.099 161.289C130.466 161.163 129.884 160.852 129.428 160.396C128.972 159.94 128.661 159.358 128.535 158.725C128.409 158.092 128.473 157.435 128.72 156.839C128.967 156.242 129.386 155.733 129.923 155.374C130.459 155.015 131.09 154.824 131.736 154.824C132.602 154.824 133.432 155.168 134.044 155.78C134.656 156.392 135 157.222 135 158.088Z" fill="white"/>
<path d="M156.162 284.838C198.909 284.838 233.562 279.852 233.562 273.702C233.562 267.552 198.909 262.566 156.162 262.566C113.415 262.566 78.762 267.552 78.762 273.702C78.762 279.852 113.415 284.838 156.162 284.838Z" fill="#EBEBEB"/>
<path d="M110.772 263.556C110.772 267.924 92.268 271.47 69.444 271.47C46.62 271.47 28.116 267.924 28.116 263.556C28.116 259.188 46.62 255.642 69.444 255.642C92.268 255.642 110.772 259.2 110.772 263.556Z" fill="#EBEBEB"/>
<path d="M228.144 181.86H210.156V240.48H228.144V181.86Z" fill="#FB7D47"/>
<g opacity="0.1">
<path d="M228.138 181.86H224.022V240.48H228.138V181.86Z" fill="black"/>
</g>
<path d="M251.838 162.786H233.85V240.474H251.838V162.786Z" fill="#FB7D47"/>
<g opacity="0.1">
<path d="M251.838 162.786H247.722V240.474H251.838V162.786Z" fill="black"/>
</g>
<path d="M204.498 193.224H186.51V240.48H204.498V193.224Z" fill="#FB7D47"/>
<g opacity="0.1">
<path d="M204.492 193.224H200.376V240.48H204.492V193.224Z" fill="black"/>
</g>
<path d="M275.538 137.394H257.55V240.474H275.538V137.394Z" fill="#FB7D47"/>
<g opacity="0.1">
<path d="M275.532 137.394H271.416V240.474H275.532V137.394Z" fill="black"/>
</g>
<path d="M186.51 209.958V200.868C186.51 200.868 247.71 195.654 272.454 127.842H275.076C275.076 127.842 258.486 198 186.51 209.958Z" fill="#C7C7C7"/>
<path d="M277.206 130.758L269.472 128.196L275.88 121.812L277.206 130.758Z" fill="#C7C7C7"/>
<path d="M14.166 240.474L48.126 240.33L82.086 240.276L150 240.18L217.914 240.276L251.874 240.33L285.834 240.474L251.874 240.624L217.914 240.678L150 240.774L82.086 240.678L48.126 240.624L14.166 240.474Z" fill="#263238"/>
<path d="M209.91 265.614H172.122V273.966H209.91V265.614Z" fill="#FB7D47"/>
<g opacity="0.1">
<path d="M173.682 266.4C174.082 268.608 174.082 270.87 173.682 273.078C173.282 270.87 173.282 268.608 173.682 266.4Z" fill="black"/>
<path d="M176.496 266.4C176.896 268.608 176.896 270.87 176.496 273.078C176.096 270.87 176.096 268.608 176.496 266.4Z" fill="black"/>
<path d="M177.87 266.4C178.27 268.608 178.27 270.87 177.87 273.078C177.654 271.977 177.554 270.857 177.57 269.736C177.557 268.617 177.657 267.499 177.87 266.4Z" fill="black"/>
<path d="M185.4 266.4C185.8 268.608 185.8 270.87 185.4 273.078C185 270.87 185 268.608 185.4 266.4Z" fill="black"/>
<path d="M187.458 266.4C187.668 267.499 187.768 268.617 187.758 269.736C187.771 270.857 187.671 271.977 187.458 273.078C187.242 271.977 187.142 270.857 187.158 269.736C187.145 268.617 187.245 267.499 187.458 266.4Z" fill="black"/>
<path d="M195.9 266.4C196.11 267.499 196.21 268.617 196.2 269.736C196.213 270.857 196.113 271.977 195.9 273.078C195.684 271.977 195.584 270.857 195.6 269.736C195.59 268.617 195.69 267.499 195.9 266.4Z" fill="black"/>
<path d="M197.85 266.4C198.06 267.499 198.16 268.617 198.15 269.736C198.166 270.857 198.066 271.977 197.85 273.078C197.637 271.977 197.537 270.857 197.55 269.736C197.54 268.617 197.64 267.499 197.85 266.4Z" fill="black"/>
<path d="M201.432 266.4C201.642 267.499 201.742 268.617 201.732 269.736C201.745 270.857 201.645 271.977 201.432 273.078C201.216 271.977 201.116 270.857 201.132 269.736C201.122 268.617 201.222 267.499 201.432 266.4Z" fill="black"/>
<path d="M194.268 266.4C194.481 267.499 194.581 268.617 194.568 269.736C194.584 270.857 194.484 271.977 194.268 273.078C194.055 271.977 193.955 270.857 193.968 269.736C193.958 268.617 194.058 267.499 194.268 266.4Z" fill="black"/>
<path d="M180.366 266.4C180.758 268.609 180.758 270.869 180.366 273.078C179.966 270.87 179.966 268.608 180.366 266.4Z" fill="black"/>
<path d="M190.146 266.4C190.546 268.608 190.546 270.87 190.146 273.078C189.746 270.87 189.746 268.608 190.146 266.4Z" fill="black"/>
<path d="M191.55 266.4C191.763 267.499 191.863 268.617 191.85 269.736C191.866 270.857 191.766 271.977 191.55 273.078C191.337 271.977 191.237 270.857 191.25 269.736C191.24 268.617 191.34 267.499 191.55 266.4Z" fill="black"/>
<path d="M206.1 266.4C206.313 267.499 206.413 268.617 206.4 269.736C206.416 270.857 206.316 271.977 206.1 273.078C205.887 271.977 205.787 270.857 205.8 269.736C205.79 268.617 205.89 267.499 206.1 266.4Z" fill="black"/>
<path d="M208.2 266.4C208.41 267.499 208.51 268.617 208.5 269.736C208.513 270.857 208.413 271.977 208.2 273.078C207.984 271.977 207.884 270.857 207.9 269.736C207.887 268.617 207.987 267.499 208.2 266.4Z" fill="black"/>
<path d="M203.094 266.4C203.307 267.499 203.407 268.617 203.394 269.736C203.41 270.857 203.31 271.977 203.094 273.078C202.881 271.977 202.781 270.857 202.794 269.736C202.784 268.617 202.884 267.499 203.094 266.4Z" fill="black"/>
<path d="M183.786 266.4C184.186 268.608 184.186 270.87 183.786 273.078C183.57 271.977 183.47 270.857 183.486 269.736C183.473 268.617 183.573 267.499 183.786 266.4Z" fill="black"/>
</g>
<path opacity="0.1" d="M209.91 265.614V267.39L172.122 268.578V265.614H209.91Z" fill="black"/>
<path d="M206.76 257.268H168.972V265.62H206.76V257.268Z" fill="#FB7D47"/>
<g opacity="0.1">
<path d="M205.056 264.714C204.656 262.504 204.656 260.24 205.056 258.03C205.456 260.24 205.456 262.504 205.056 264.714Z" fill="black"/>
<path d="M202.242 264.714C201.842 262.504 201.842 260.24 202.242 258.03C202.642 260.24 202.642 262.504 202.242 264.714Z" fill="black"/>
<path d="M200.868 264.714C200.658 263.613 200.558 262.493 200.568 261.372C200.555 260.251 200.655 259.131 200.868 258.03C201.084 259.131 201.184 260.251 201.168 261.372C201.181 262.493 201.081 263.613 200.868 264.714Z" fill="black"/>
<path d="M193.32 264.714C192.92 262.504 192.92 260.24 193.32 258.03C193.72 260.24 193.72 262.504 193.32 264.714Z" fill="black"/>
<path d="M191.28 264.714C191.07 263.613 190.97 262.493 190.98 261.372C190.967 260.251 191.067 259.131 191.28 258.03C191.496 259.131 191.596 260.251 191.58 261.372C191.59 262.493 191.49 263.613 191.28 264.714Z" fill="black"/>
<path d="M182.838 264.714C182.628 263.613 182.528 262.493 182.538 261.372C182.522 260.251 182.622 259.131 182.838 258.03C183.054 259.131 183.154 260.251 183.138 261.372C183.148 262.493 183.048 263.613 182.838 264.714Z" fill="black"/>
<path d="M180.888 264.714C180.675 263.613 180.575 262.493 180.588 261.372C180.572 260.251 180.672 259.131 180.888 258.03C181.101 259.131 181.201 260.251 181.188 261.372C181.198 262.493 181.098 263.613 180.888 264.714Z" fill="black"/>
<path d="M177.306 264.714C177.096 263.613 176.996 262.493 177.006 261.372C176.99 260.251 177.09 259.131 177.306 258.03C177.519 259.131 177.619 260.251 177.606 261.372C177.616 262.493 177.516 263.613 177.306 264.714Z" fill="black"/>
<path d="M184.47 264.714C184.257 263.613 184.157 262.493 184.17 261.372C184.154 260.251 184.254 259.131 184.47 258.03C184.87 260.24 184.87 262.504 184.47 264.714Z" fill="black"/>
<path d="M198.372 264.714C197.972 262.504 197.972 260.24 198.372 258.03C198.772 260.24 198.772 262.504 198.372 264.714Z" fill="black"/>
<path d="M188.592 264.714C188.192 262.504 188.192 260.24 188.592 258.03C188.992 260.24 188.992 262.504 188.592 264.714Z" fill="black"/>
<path d="M187.2 264.714C186.987 263.613 186.887 262.493 186.9 261.372C186.884 260.251 186.984 259.131 187.2 258.03C187.6 260.24 187.6 262.504 187.2 264.714Z" fill="black"/>
<path d="M172.638 264.714C172.425 263.613 172.325 262.493 172.338 261.372C172.322 260.251 172.422 259.131 172.638 258.03C173.038 260.24 173.038 262.504 172.638 264.714Z" fill="black"/>
<path d="M170.526 264.714C170.316 263.613 170.216 262.493 170.226 261.372C170.213 260.251 170.313 259.131 170.526 258.03C170.742 259.131 170.842 260.251 170.826 261.372C170.839 262.493 170.739 263.613 170.526 264.714Z" fill="black"/>
<path d="M175.644 264.714C175.431 263.613 175.331 262.493 175.344 261.372C175.328 260.251 175.428 259.131 175.644 258.03C176.044 260.24 176.044 262.504 175.644 264.714Z" fill="black"/>
<path d="M194.952 264.714C194.742 263.613 194.642 262.493 194.652 261.372C194.639 260.251 194.739 259.131 194.952 258.03C195.168 259.131 195.268 260.251 195.252 261.372C195.265 262.493 195.165 263.613 194.952 264.714Z" fill="black"/>
</g>
<path opacity="0.1" d="M206.754 257.268V259.038L168.966 260.232V257.268H206.754Z" fill="black"/>
<path d="M209.67 248.982H171.882V257.334H209.67V248.982Z" fill="#FB7D47"/>
<g opacity="0.1">
<path d="M173.436 249.75C173.836 251.958 173.836 254.22 173.436 256.428C173.036 254.22 173.036 251.958 173.436 249.75Z" fill="black"/>
<path d="M176.25 249.75C176.65 251.958 176.65 254.22 176.25 256.428C175.85 254.22 175.85 251.958 176.25 249.75Z" fill="black"/>
<path d="M177.63 249.75C178.022 251.959 178.022 254.219 177.63 256.428C177.23 254.22 177.23 251.958 177.63 249.75Z" fill="black"/>
<path d="M185.172 249.75C185.572 251.958 185.572 254.22 185.172 256.428C184.772 254.22 184.772 251.958 185.172 249.75Z" fill="black"/>
<path d="M187.2 249.75C187.6 251.958 187.6 254.22 187.2 256.428C186.8 254.22 186.8 251.958 187.2 249.75Z" fill="black"/>
<path d="M195.66 249.75C196.06 251.958 196.06 254.22 195.66 256.428C195.26 254.22 195.26 251.958 195.66 249.75Z" fill="black"/>
<path d="M197.61 249.75C198.01 251.958 198.01 254.22 197.61 256.428C197.21 254.22 197.21 251.958 197.61 249.75Z" fill="black"/>
<path d="M201.192 249.75C201.592 251.958 201.592 254.22 201.192 256.428C200.792 254.22 200.792 251.958 201.192 249.75Z" fill="black"/>
<path d="M194.028 249.75C194.428 251.958 194.428 254.22 194.028 256.428C193.812 255.329 193.712 254.211 193.728 253.092C193.714 251.971 193.815 250.851 194.028 249.75Z" fill="black"/>
<path d="M180.12 249.75C180.333 250.851 180.434 251.971 180.42 253.092C180.436 254.211 180.336 255.329 180.12 256.428C179.72 254.22 179.72 251.958 180.12 249.75Z" fill="black"/>
<path d="M189.9 249.75C190.3 251.958 190.3 254.22 189.9 256.428C189.5 254.22 189.5 251.958 189.9 249.75Z" fill="black"/>
<path d="M191.31 249.75C191.71 251.958 191.71 254.22 191.31 256.428C191.094 255.329 190.994 254.211 191.01 253.092C190.996 251.971 191.097 250.851 191.31 249.75Z" fill="black"/>
<path d="M205.86 249.75C206.26 251.958 206.26 254.22 205.86 256.428C205.46 254.22 205.46 251.958 205.86 249.75Z" fill="black"/>
<path d="M207.972 249.75C208.372 251.958 208.372 254.22 207.972 256.428C207.572 254.22 207.572 251.958 207.972 249.75Z" fill="black"/>
<path d="M202.854 249.75C203.254 251.958 203.254 254.22 202.854 256.428C202.638 255.329 202.538 254.211 202.554 253.092C202.54 251.971 202.641 250.851 202.854 249.75Z" fill="black"/>
<path d="M183.54 249.75C183.94 251.958 183.94 254.22 183.54 256.428C183.148 254.219 183.148 251.959 183.54 249.75Z" fill="black"/>
</g>
<path opacity="0.1" d="M209.664 248.982V250.758L171.882 251.952V248.982H209.664Z" fill="black"/>
<path d="M97.32 255.366H59.532V263.718H97.32V255.366Z" fill="#FB7D47"/>
<g opacity="0.1">
<path d="M61.092 256.128C61.4921 258.338 61.4921 260.602 61.092 262.812C60.692 260.602 60.692 258.338 61.092 256.128Z" fill="black"/>
<path d="M63.9061 256.128C64.3061 258.338 64.3061 260.602 63.9061 262.812C63.506 260.602 63.506 258.338 63.9061 256.128Z" fill="black"/>
<path d="M65.28 256.128C65.6801 258.338 65.6801 260.602 65.28 262.812C64.88 260.602 64.88 258.338 65.28 256.128Z" fill="black"/>
<path d="M72.8281 256.128C73.2201 258.339 73.2201 260.601 72.8281 262.812C72.428 260.602 72.428 258.338 72.8281 256.128Z" fill="black"/>
<path d="M74.8681 256.128C75.2681 258.338 75.2681 260.602 74.8681 262.812C74.6523 261.711 74.5517 260.591 74.5681 259.47C74.555 258.349 74.6555 257.229 74.8681 256.128Z" fill="black"/>
<path d="M83.31 256.128C83.7101 258.338 83.7101 260.602 83.31 262.812C83.0942 261.711 82.9937 260.591 83.01 259.47C82.9969 258.349 83.0974 257.229 83.31 256.128Z" fill="black"/>
<path d="M85.26 256.128C85.4696 257.229 85.5701 258.349 85.56 259.47C85.5734 260.591 85.4729 261.711 85.26 262.812C85.0442 261.711 84.9437 260.591 84.96 259.47C84.95 258.349 85.0504 257.229 85.26 256.128Z" fill="black"/>
<path d="M88.8421 256.128C89.0516 257.229 89.1521 258.349 89.1421 259.47C89.1554 260.591 89.0549 261.711 88.8421 262.812C88.6263 261.711 88.5257 260.591 88.5421 259.47C88.529 258.349 88.6295 257.229 88.8421 256.128Z" fill="black"/>
<path d="M81.678 256.128C81.8876 257.229 81.9881 258.349 81.978 259.47C81.9943 260.591 81.8938 261.711 81.678 262.812C81.4652 261.711 81.3646 260.591 81.378 259.47C81.3679 258.349 81.4684 257.229 81.678 256.128Z" fill="black"/>
<path d="M67.8 256.128C68.1987 258.334 68.1987 260.594 67.8 262.8C67.4 260.59 67.4 258.326 67.8 256.116V256.128Z" fill="black"/>
<path d="M77.556 256.128C77.9481 258.339 77.9481 260.601 77.556 262.812C77.156 260.602 77.156 258.338 77.556 256.128Z" fill="black"/>
<path d="M78.9601 256.128C79.1696 257.229 79.2701 258.349 79.2601 259.47C79.2764 260.591 79.1758 261.711 78.9601 262.812C78.7472 261.711 78.6467 260.591 78.6601 259.47C78.65 258.349 78.7505 257.229 78.9601 256.128Z" fill="black"/>
<path d="M93.51 256.128C93.7196 257.229 93.8201 258.349 93.81 259.47C93.8264 260.591 93.7258 261.711 93.51 262.812C93.2942 261.711 93.1937 260.591 93.21 259.47C93.2 258.349 93.3004 257.229 93.51 256.128Z" fill="black"/>
<path d="M95.622 256.128C96.0221 258.338 96.0221 260.602 95.622 262.812C95.2219 260.602 95.2219 258.338 95.622 256.128Z" fill="black"/>
<path d="M90.5041 256.128C90.7136 257.229 90.8141 258.349 90.8041 259.47C90.8204 260.591 90.7199 261.711 90.5041 262.812C90.2912 261.711 90.1907 260.591 90.2041 259.47C90.194 258.349 90.2945 257.229 90.5041 256.128Z" fill="black"/>
<path d="M71.196 256.128C71.5961 258.338 71.5961 260.602 71.196 262.812C70.796 260.602 70.796 258.338 71.196 256.128Z" fill="black"/>
</g>
<path opacity="0.1" d="M97.314 255.366V257.142L59.532 258.33V255.366H97.314Z" fill="black"/>
<path d="M94.734 247.014H56.946V255.366H94.734V247.014Z" fill="#FB7D47"/>
<g opacity="0.1">
<path d="M58.5061 247.8C58.906 250.008 58.906 252.27 58.5061 254.478C58.2903 253.379 58.1897 252.261 58.2061 251.142C58.1924 250.021 58.293 248.901 58.5061 247.8Z" fill="black"/>
<path d="M61.3201 247.8C61.7201 250.008 61.7201 252.27 61.3201 254.478C61.1043 253.379 61.0038 252.261 61.0201 251.142C61.0065 250.021 61.107 248.901 61.3201 247.8Z" fill="black"/>
<path d="M62.694 247.8C62.9042 248.901 63.0047 250.021 62.994 251.142C63.0104 252.261 62.9098 253.379 62.694 254.478C62.4783 253.379 62.3777 252.261 62.394 251.142C62.3834 250.021 62.4839 248.901 62.694 247.8Z" fill="black"/>
<path d="M70.2421 247.8C70.6421 250.008 70.6421 252.27 70.2421 254.478C69.8421 252.27 69.8421 250.008 70.2421 247.8Z" fill="black"/>
<path d="M72.2821 247.8C72.4952 248.901 72.5957 250.021 72.5821 251.142C72.5984 252.261 72.4978 253.379 72.2821 254.478C72.0692 253.379 71.9687 252.261 71.9821 251.142C71.9714 250.021 72.0719 248.901 72.2821 247.8Z" fill="black"/>
<path d="M80.724 247.8C80.9371 248.901 81.0376 250.021 81.024 251.142C81.0403 252.261 80.9398 253.379 80.724 254.478C80.5112 253.379 80.4107 252.261 80.424 251.142C80.4134 250.021 80.5139 248.901 80.724 247.8Z" fill="black"/>
<path d="M82.6741 247.8C83.0741 250.008 83.0741 252.27 82.6741 254.478C82.2741 252.27 82.2741 250.008 82.6741 247.8Z" fill="black"/>
<path d="M86.256 247.8C86.4691 248.901 86.5697 250.021 86.556 251.142C86.5724 252.261 86.4718 253.379 86.256 254.478C85.8561 252.27 85.8561 250.008 86.256 247.8Z" fill="black"/>
<path d="M79.092 247.8C79.492 250.008 79.492 252.27 79.092 254.478C78.6921 252.27 78.6921 250.008 79.092 247.8Z" fill="black"/>
<path d="M65.1901 247.8C65.5901 250.008 65.5901 252.27 65.1901 254.478C64.7901 252.27 64.7901 250.008 65.1901 247.8Z" fill="black"/>
<path d="M75.0001 247.8C75.4001 250.008 75.4001 252.27 75.0001 254.478C74.7843 253.379 74.6838 252.261 74.7001 251.142C74.6865 250.021 74.787 248.901 75.0001 247.8Z" fill="black"/>
<path d="M76.374 247.8C76.774 250.008 76.774 252.27 76.374 254.478C75.974 252.27 75.974 250.008 76.374 247.8Z" fill="black"/>
<path d="M90.924 247.8C91.324 250.008 91.324 252.27 90.924 254.478C90.524 252.27 90.524 250.008 90.924 247.8Z" fill="black"/>
<path d="M93.036 247.8C93.2462 248.901 93.3467 250.021 93.336 251.142C93.3524 252.261 93.2518 253.379 93.036 254.478C92.8232 253.379 92.7227 252.261 92.736 251.142C92.7254 250.021 92.8259 248.901 93.036 247.8Z" fill="black"/>
<path d="M87.918 247.8C88.318 250.008 88.318 252.27 87.918 254.478C87.518 252.27 87.518 250.008 87.918 247.8Z" fill="black"/>
<path d="M68.6101 247.8C68.8202 248.901 68.9207 250.021 68.9101 251.142C68.9234 252.261 68.8229 253.379 68.6101 254.478C68.3943 253.379 68.2937 252.261 68.3101 251.142C68.2994 250.021 68.3999 248.901 68.6101 247.8Z" fill="black"/>
</g>
<path opacity="0.1" d="M94.734 247.014V248.79L56.946 249.984V247.014H94.734Z" fill="black"/>
<path d="M100.572 230.388H62.7841V238.74H100.572V230.388Z" fill="#FB7D47"/>
<g opacity="0.1">
<path d="M64.344 231.15C64.744 233.358 64.744 235.62 64.344 237.828C63.944 235.62 63.944 233.358 64.344 231.15Z" fill="black"/>
<path d="M67.158 231.15C67.558 233.358 67.558 235.62 67.158 237.828C66.758 235.62 66.758 233.358 67.158 231.15Z" fill="black"/>
<path d="M68.532 231.15C68.7419 232.251 68.8423 233.371 68.832 234.492C68.8453 235.611 68.7448 236.729 68.532 237.828C68.3162 236.729 68.2157 235.611 68.232 234.492C68.2216 233.371 68.3221 232.251 68.532 231.15Z" fill="black"/>
<path d="M76.08 231.15C76.48 233.358 76.48 235.62 76.08 237.828C75.68 235.62 75.68 233.358 76.08 231.15Z" fill="black"/>
<path d="M78.12 231.15C78.3299 232.251 78.4304 233.371 78.42 234.492C78.4363 235.611 78.3358 236.729 78.12 237.828C77.9072 236.729 77.8067 235.611 77.82 234.492C77.8097 233.371 77.9102 232.251 78.12 231.15Z" fill="black"/>
<path d="M86.562 231.15C86.7748 232.251 86.8753 233.371 86.862 234.492C86.8783 235.611 86.7777 236.729 86.562 237.828C86.3492 236.729 86.2486 235.611 86.262 234.492C86.2516 233.371 86.3521 232.251 86.562 231.15Z" fill="black"/>
<path d="M88.512 231.15C88.7249 232.251 88.8254 233.371 88.812 234.492C88.8283 235.611 88.7278 236.729 88.512 237.828C88.112 235.62 88.112 233.358 88.512 231.15Z" fill="black"/>
<path d="M92.094 231.15C92.3069 232.251 92.4074 233.371 92.394 234.492C92.4103 235.611 92.3098 236.729 92.094 237.828C91.8812 236.729 91.7807 235.611 91.794 234.492C91.7837 233.371 91.8842 232.251 92.094 231.15Z" fill="black"/>
<path d="M84.93 231.15C85.33 233.358 85.33 235.62 84.93 237.828C84.53 235.62 84.53 233.358 84.93 231.15Z" fill="black"/>
<path d="M71.028 231.15C71.428 233.358 71.428 235.62 71.028 237.828C70.628 235.62 70.628 233.358 71.028 231.15Z" fill="black"/>
<path d="M80.808 231.15C81.208 233.358 81.208 235.62 80.808 237.828C80.408 235.62 80.408 233.358 80.808 231.15Z" fill="black"/>
<path d="M82.2 231.15C82.6 233.358 82.6 235.62 82.2 237.828C81.8 235.62 81.8 233.358 82.2 231.15Z" fill="black"/>
<path d="M96.762 231.15C97.162 233.358 97.162 235.62 96.762 237.828C96.362 235.62 96.362 233.358 96.762 231.15Z" fill="black"/>
<path d="M98.874 231.15C99.0838 232.251 99.1843 233.371 99.174 234.492C99.1903 235.611 99.0897 236.729 98.874 237.828C98.6582 236.729 98.5577 235.611 98.574 234.492C98.5636 233.371 98.6641 232.251 98.874 231.15Z" fill="black"/>
<path d="M93.756 231.15C94.156 233.358 94.156 235.62 93.756 237.828C93.356 235.62 93.356 233.358 93.756 231.15Z" fill="black"/>
<path d="M74.448 231.15C74.6579 232.251 74.7584 233.371 74.748 234.492C74.7613 235.611 74.6608 236.729 74.448 237.828C74.2322 236.729 74.1317 235.611 74.148 234.492C74.1346 233.371 74.2352 232.251 74.448 231.15Z" fill="black"/>
</g>
<path opacity="0.1" d="M100.572 230.388V232.158L62.7841 233.352V230.388H100.572Z" fill="black"/>
<path d="M99.618 222.036H61.83V230.388H99.618V222.036Z" fill="#FB7D47"/>
<g opacity="0.1">
<path d="M97.92 229.482C97.7101 228.381 97.6096 227.261 97.62 226.14C97.604 225.019 97.7046 223.899 97.92 222.798C98.1354 223.899 98.2359 225.019 98.22 226.14C98.2303 227.261 98.1298 228.381 97.92 229.482Z" fill="black"/>
<path d="M95.106 229.482C94.8962 228.381 94.7957 227.261 94.806 226.14C94.7901 225.019 94.8906 223.899 95.106 222.798C95.3214 223.899 95.422 225.019 95.406 226.14C95.4164 227.261 95.3159 228.381 95.106 229.482Z" fill="black"/>
<path d="M93.732 229.482C93.5191 228.381 93.4186 227.261 93.432 226.14C93.416 225.019 93.5166 223.899 93.732 222.798C94.1321 225.008 94.1321 227.272 93.732 229.482Z" fill="black"/>
<path d="M86.184 229.482C85.9741 228.381 85.8737 227.261 85.884 226.14C85.8709 225.019 85.9714 223.899 86.184 222.798C86.3994 223.899 86.5 225.019 86.484 226.14C86.4944 227.261 86.3939 228.381 86.184 229.482Z" fill="black"/>
<path d="M84.144 229.482C83.744 227.272 83.744 225.008 84.144 222.798C84.5441 225.008 84.5441 227.272 84.144 229.482Z" fill="black"/>
<path d="M75.702 229.482C75.302 227.272 75.302 225.008 75.702 222.798C76.1021 225.008 76.1021 227.272 75.702 229.482Z" fill="black"/>
<path d="M73.752 229.482C73.3519 227.272 73.3519 225.008 73.752 222.798C74.1521 225.008 74.1521 227.272 73.752 229.482Z" fill="black"/>
<path d="M70.2 229.482C69.7999 227.272 69.7999 225.008 70.2 222.798C70.6001 225.008 70.6001 227.272 70.2 229.482Z" fill="black"/>
<path d="M77.334 229.482C76.9339 227.272 76.9339 225.008 77.334 222.798C77.726 225.009 77.726 227.271 77.334 229.482Z" fill="black"/>
<path d="M91.236 229.482C91.0261 228.381 90.9257 227.261 90.936 226.14C90.9229 225.019 91.0234 223.899 91.236 222.798C91.4514 223.899 91.552 225.019 91.536 226.14C91.5494 227.261 91.4489 228.381 91.236 229.482Z" fill="black"/>
<path d="M81.456 229.482C81.2462 228.381 81.1457 227.261 81.156 226.14C81.143 225.019 81.2435 223.899 81.456 222.798C81.6714 223.899 81.772 225.019 81.756 226.14C81.7664 227.261 81.6659 228.381 81.456 229.482Z" fill="black"/>
<path d="M80.052 229.482C79.6519 227.272 79.6519 225.008 80.052 222.798C80.444 225.009 80.444 227.271 80.052 229.482Z" fill="black"/>
<path d="M65.502 229.482C65.1019 227.272 65.1019 225.008 65.502 222.798C65.9021 225.008 65.9021 227.272 65.502 229.482Z" fill="black"/>
<path d="M63.39 229.482C62.9899 227.272 62.9899 225.008 63.39 222.798C63.7901 225.008 63.7901 227.272 63.39 229.482Z" fill="black"/>
<path d="M68.508 229.482C68.1079 227.272 68.1079 225.008 68.508 222.798C68.9 225.009 68.9 227.271 68.508 229.482Z" fill="black"/>
<path d="M87.816 229.482C87.6031 228.381 87.5026 227.261 87.516 226.14C87.5 225.019 87.6006 223.899 87.816 222.798C88.216 225.008 88.216 227.272 87.816 229.482Z" fill="black"/>
</g>
<path opacity="0.1" d="M99.618 222.036V223.812L61.83 225V222.036H99.618Z" fill="black"/>
<path d="M97.32 213.684H59.532V222.036H97.32V213.684Z" fill="#FB7D47"/>
<g opacity="0.1">
<path d="M61.092 214.452C61.492 216.66 61.492 218.922 61.092 221.13C60.6921 218.922 60.6921 216.66 61.092 214.452Z" fill="black"/>
<path d="M63.9061 214.452C64.3061 216.66 64.3061 218.922 63.9061 221.13C63.5061 218.922 63.5061 216.66 63.9061 214.452Z" fill="black"/>
<path d="M65.28 214.452C65.4902 215.553 65.5907 216.673 65.58 217.794C65.5934 218.913 65.4929 220.031 65.28 221.13C65.0643 220.031 64.9637 218.913 64.98 217.794C64.9664 216.673 65.0669 215.553 65.28 214.452Z" fill="black"/>
<path d="M72.8281 214.452C73.2281 216.66 73.2281 218.922 72.8281 221.13C72.4281 218.922 72.4281 216.66 72.8281 214.452Z" fill="black"/>
<path d="M74.8681 214.452C75.0782 215.553 75.1787 216.673 75.1681 217.794C75.1814 218.913 75.0809 220.031 74.8681 221.13C74.6523 220.031 74.5517 218.913 74.5681 217.794C74.5574 216.673 74.6579 215.553 74.8681 214.452Z" fill="black"/>
<path d="M83.3101 214.452C83.5202 215.553 83.6207 216.673 83.6101 217.794C83.6234 218.913 83.5229 220.031 83.3101 221.13C83.0943 220.031 82.9938 218.913 83.0101 217.794C82.9994 216.673 83.0999 215.553 83.3101 214.452Z" fill="black"/>
<path d="M85.26 214.452C85.4731 215.553 85.5737 216.673 85.56 217.794C85.5763 218.913 85.4758 220.031 85.26 221.13C85.0472 220.031 84.9467 218.913 84.96 217.794C84.9494 216.673 85.0499 215.553 85.26 214.452Z" fill="black"/>
<path d="M88.8421 214.452C89.0522 215.553 89.1527 216.673 89.1421 217.794C89.1584 218.913 89.0578 220.031 88.8421 221.13C88.6292 220.031 88.5287 218.913 88.5421 217.794C88.5314 216.673 88.6319 215.553 88.8421 214.452Z" fill="black"/>
<path d="M81.678 214.452C81.8911 215.553 81.9917 216.673 81.978 217.794C81.9944 218.913 81.8938 220.031 81.678 221.13C81.2781 218.922 81.2781 216.66 81.678 214.452Z" fill="black"/>
<path d="M67.8001 214.452C68.2 216.66 68.2 218.922 67.8001 221.13C67.4001 218.922 67.4001 216.66 67.8001 214.452Z" fill="black"/>
<path d="M77.556 214.452C77.956 216.66 77.956 218.922 77.556 221.13C77.156 218.922 77.156 216.66 77.556 214.452Z" fill="black"/>
<path d="M78.96 214.452C79.1731 215.553 79.2736 216.673 79.26 217.794C79.2763 218.913 79.1758 220.031 78.96 221.13C78.56 218.922 78.56 216.66 78.96 214.452Z" fill="black"/>
<path d="M93.51 214.452C93.7231 215.553 93.8237 216.673 93.81 217.794C93.8263 218.913 93.7258 220.031 93.51 221.13C93.2972 220.031 93.1967 218.913 93.21 217.794C93.1994 216.673 93.2999 215.553 93.51 214.452Z" fill="black"/>
<path d="M95.622 214.452C95.8322 215.553 95.9326 216.673 95.922 217.794C95.9354 218.913 95.8348 220.031 95.622 221.13C95.4063 220.031 95.3057 218.913 95.322 217.794C95.3084 216.673 95.4089 215.553 95.622 214.452Z" fill="black"/>
<path d="M90.504 214.452C90.7171 215.553 90.8177 216.673 90.804 217.794C90.8203 218.913 90.7198 220.031 90.504 221.13C90.104 218.922 90.104 216.66 90.504 214.452Z" fill="black"/>
<path d="M71.1961 214.452C71.596 216.66 71.596 218.922 71.1961 221.13C70.9803 220.031 70.8797 218.913 70.8961 217.794C70.8824 216.673 70.983 215.553 71.1961 214.452Z" fill="black"/>
</g>
<path opacity="0.1" d="M97.32 213.684V215.46L59.532 216.654V213.684H97.32Z" fill="black"/>
<path d="M97.32 238.734H59.532V247.086H97.32V238.734Z" fill="#FB7D47"/>
<g opacity="0.1">
<path d="M95.622 246.18C95.4089 245.079 95.3084 243.959 95.322 242.838C95.3057 241.719 95.4063 240.601 95.622 239.502C96.022 241.71 96.022 243.972 95.622 246.18Z" fill="black"/>
<path d="M92.8081 246.18C92.595 245.079 92.4944 243.959 92.5081 242.838C92.4917 241.719 92.5923 240.601 92.8081 239.502C93.208 241.71 93.208 243.972 92.8081 246.18Z" fill="black"/>
<path d="M91.434 246.18C91.034 243.972 91.034 241.71 91.434 239.502C91.834 241.71 91.834 243.972 91.434 246.18Z" fill="black"/>
<path d="M83.8861 246.18C83.673 245.079 83.5724 243.959 83.5861 242.838C83.5697 241.719 83.6703 240.601 83.8861 239.502C84.0989 240.601 84.1994 241.719 84.1861 242.838C84.1967 243.959 84.0962 245.079 83.8861 246.18Z" fill="black"/>
<path d="M81.8461 246.18C81.4461 243.972 81.4461 241.71 81.8461 239.502C82.2461 241.71 82.2461 243.972 81.8461 246.18Z" fill="black"/>
<path d="M73.4041 246.18C73.0041 243.972 73.0041 241.71 73.4041 239.502C73.796 241.711 73.796 243.971 73.4041 246.18Z" fill="black"/>
<path d="M71.4481 246.18C71.0481 243.972 71.0481 241.71 71.4481 239.502C71.8481 241.71 71.8481 243.972 71.4481 246.18Z" fill="black"/>
<path d="M67.866 246.18C67.4741 243.971 67.4741 241.711 67.866 239.502C68.266 241.71 68.266 243.972 67.866 246.18Z" fill="black"/>
<path d="M75.03 246.18C74.63 243.972 74.63 241.71 75.03 239.502C75.43 241.71 75.43 243.972 75.03 246.18Z" fill="black"/>
<path d="M88.9381 246.18C88.725 245.079 88.6244 243.959 88.6381 242.838C88.6217 241.719 88.7223 240.601 88.9381 239.502C89.1509 240.601 89.2514 241.719 89.2381 242.838C89.2487 243.959 89.1482 245.079 88.9381 246.18Z" fill="black"/>
<path d="M79.158 246.18C78.9449 245.079 78.8444 243.959 78.858 242.838C78.8417 241.719 78.9423 240.601 79.158 239.502C79.3708 240.601 79.4714 241.719 79.458 242.838C79.4687 243.959 79.3682 245.079 79.158 246.18Z" fill="black"/>
<path d="M77.7481 246.18C77.3481 243.972 77.3481 241.71 77.7481 239.502C78.148 241.71 78.148 243.972 77.7481 246.18Z" fill="black"/>
<path d="M63.1981 246.18C62.7981 243.972 62.7981 241.71 63.1981 239.502C63.5981 241.71 63.5981 243.972 63.1981 246.18Z" fill="black"/>
<path d="M61.092 246.18C60.6921 243.972 60.6921 241.71 61.092 239.502C61.492 241.71 61.492 243.972 61.092 246.18Z" fill="black"/>
<path d="M66.204 246.18C65.8041 243.972 65.8041 241.71 66.204 239.502C66.604 241.71 66.604 243.972 66.204 246.18Z" fill="black"/>
<path d="M85.5181 246.18C85.1181 243.972 85.1181 241.71 85.5181 239.502C85.9181 241.71 85.9181 243.972 85.5181 246.18Z" fill="black"/>
</g>
<path opacity="0.1" d="M97.32 238.734V240.51L59.532 241.704V238.734H97.32Z" fill="black"/>
<path d="M56.952 231.6C81.822 236.064 75.258 272.91 50.352 268.44C25.446 263.97 32.034 227.112 56.952 231.6Z" fill="#FB7D47"/>
<path opacity="0.1" d="M56.952 231.6C81.822 236.064 75.258 272.91 50.352 268.44C25.446 263.97 32.034 227.112 56.952 231.6Z" fill="black"/>
<path d="M54.6 231.162C78.306 235.416 71.73 272.262 48 268.002C24.27 263.742 30.87 226.902 54.6 231.162Z" fill="#FB7D47"/>
<path opacity="0.1" d="M36.276 250.446C36.402 257.016 40.2 263.4 48.6 264.87C68.304 268.404 73.758 237.822 54.084 234.27C53.958 234.27 53.826 234.222 53.7 234.21C72.144 237.9 66.858 266.844 48.072 263.472C40.38 262.122 36.684 256.452 36.276 250.446Z" fill="black"/>
<g opacity="0.1">
<path d="M53.358 238.116C53.4393 238.133 53.5163 238.166 53.5841 238.214C53.6519 238.262 53.709 238.323 53.7519 238.394C53.7947 238.465 53.8224 238.544 53.8331 238.626C53.8438 238.709 53.8373 238.792 53.814 238.872L53.562 239.886C55.1661 240.426 56.5722 241.433 57.6 242.778C57.6881 242.862 57.7531 242.968 57.7888 243.084C57.8245 243.201 57.8297 243.325 57.804 243.444C57.7577 243.614 57.6458 243.759 57.4928 243.847C57.3398 243.934 57.1583 243.958 56.988 243.912C56.9033 243.896 56.8231 243.862 56.7527 243.812C56.6823 243.763 56.6234 243.698 56.58 243.624C55.73 242.447 54.5534 241.546 53.196 241.032L51.432 248.112C55.074 249.912 56.334 251.712 55.71 254.202C55.044 256.884 52.32 258.216 49.11 257.532L48.618 259.5C48.5983 259.579 48.5633 259.653 48.515 259.718C48.4666 259.783 48.4059 259.839 48.3362 259.88C48.2666 259.922 48.1894 259.95 48.1091 259.962C48.0287 259.974 47.9468 259.97 47.868 259.95C47.7893 259.93 47.7151 259.895 47.6499 259.847C47.5846 259.799 47.5295 259.738 47.4877 259.668C47.4459 259.599 47.4183 259.521 47.4063 259.441C47.3944 259.361 47.3983 259.279 47.418 259.2L47.916 257.202C45.8389 256.516 44.0516 255.153 42.84 253.332C42.7459 253.228 42.6876 253.097 42.6738 252.957C42.66 252.818 42.6913 252.678 42.7632 252.557C42.8352 252.437 42.9439 252.343 43.0733 252.289C43.2027 252.235 43.346 252.224 43.482 252.258C43.6527 252.295 43.8016 252.399 43.896 252.546C44.9021 254.187 46.4392 255.434 48.252 256.08L50.052 248.88C46.452 247.08 45.252 245.316 45.852 242.79C46.452 240.264 49.2 238.842 52.302 239.538L52.542 238.578C52.5563 238.489 52.5904 238.404 52.6417 238.33C52.6931 238.257 52.7605 238.195 52.8389 238.151C52.9173 238.106 53.0046 238.08 53.0945 238.074C53.1844 238.068 53.2745 238.082 53.358 238.116ZM50.4 247.584L52.122 240.678C49.656 240.12 47.676 241.182 47.22 243C46.8 244.722 47.34 246 50.4 247.584ZM51.126 249.384L49.386 256.362C51.93 256.962 53.94 255.888 54.414 253.962C54.858 252.24 54.24 250.956 51.132 249.402L51.126 249.384Z" fill="black"/>
</g>
<path d="M198.636 249.09C197.262 249.534 158.04 249.024 156.558 248.052C155.988 247.698 155.73 241.98 155.616 235.056V234.84C155.586 233.412 155.568 231.948 155.568 230.46C155.568 230.25 155.568 230.046 155.568 229.86L157.47 209.514L183.708 209.778L181.116 229.932L181.086 230.73L180.93 234.93V235.356C180.93 235.356 195.858 242.268 197.376 243.504C198.894 244.74 200.016 248.652 198.636 249.09Z" fill="#D3766A"/>
<path d="M198.636 249.09C197.262 249.534 158.04 249.024 156.558 248.052C155.988 247.698 155.73 241.98 155.616 235.056V234.84C155.586 233.412 155.568 231.948 155.568 230.46C155.568 230.25 155.568 230.046 155.568 229.86L181.116 229.932L181.086 230.73L180.93 234.93V235.356C180.93 235.356 195.858 242.268 197.376 243.504C198.894 244.74 200.016 248.652 198.636 249.09Z" fill="#EBEBEB"/>
<path d="M198.642 249.084C197.934 249.312 187.278 249.288 176.862 249.084C174.768 249.042 172.662 248.994 170.7 248.94C163.272 248.736 157.134 248.43 156.564 248.058C155.994 247.686 155.742 242.142 155.628 235.35C155.628 235.254 155.628 235.158 155.628 235.062C155.628 234.966 155.628 234.912 155.628 234.84H155.658L180.936 234.888V235.32C180.936 235.32 195.864 242.226 197.376 243.462C198.888 244.698 200.016 248.646 198.642 249.084Z" fill="#FB7D47"/>
<path d="M198.216 247.56C191.616 247.314 164.922 246.96 158.37 247.194C158.316 247.194 158.316 247.23 158.37 247.236C164.916 247.626 191.598 247.782 198.21 247.668C198.354 247.668 198.354 247.566 198.216 247.56Z" fill="#263238"/>
<path d="M183.738 234.996C181.146 234.474 177.954 234.834 175.938 236.664C175.86 236.73 175.938 236.844 176.046 236.814C178.544 236.045 181.116 235.547 183.72 235.326C183.759 235.321 183.795 235.303 183.822 235.274C183.849 235.245 183.864 235.208 183.867 235.169C183.869 235.129 183.857 235.091 183.834 235.059C183.81 235.027 183.776 235.005 183.738 234.996Z" fill="#263238"/>
<path d="M185.604 236.148C183.006 235.632 179.82 235.992 177.804 237.816C177.726 237.888 177.804 237.996 177.912 237.972C180.407 237.202 182.978 236.701 185.58 236.478C185.619 236.474 185.656 236.456 185.683 236.428C185.711 236.4 185.728 236.362 185.73 236.323C185.733 236.284 185.722 236.245 185.699 236.213C185.676 236.181 185.642 236.158 185.604 236.148Z" fill="#263238"/>
<path d="M187.464 237.306C184.872 236.79 181.68 237.144 179.664 238.974C179.586 239.046 179.664 239.154 179.772 239.13C182.269 238.36 184.842 237.859 187.446 237.636C187.485 237.631 187.521 237.613 187.548 237.584C187.575 237.555 187.59 237.518 187.592 237.479C187.595 237.439 187.583 237.401 187.559 237.369C187.536 237.337 187.502 237.315 187.464 237.306Z" fill="#263238"/>
<path d="M182.646 234.978H151.866C151.866 234.978 158.55 174.222 158.328 173.07C158.214 172.47 152.682 164.118 146.106 154.344C142.428 148.872 138.426 142.944 134.868 137.712C128.988 129.048 124.314 122.208 124.314 122.208H154.452C154.452 122.208 158.508 127.104 163.824 134.034C171.348 143.85 181.398 157.74 186.024 167.568C189.6 175.2 182.646 234.978 182.646 234.978Z" fill="#263238"/>
<path d="M178.338 171.63C177.738 168.246 176.076 165.282 174.402 162.342C170.94 156.258 155.334 133.068 151.002 127.602L149.34 125.526C149.304 125.478 149.226 125.526 149.262 125.574C153.504 131.052 168.966 154.032 172.434 160.008C174.144 162.948 176.034 165.918 177.156 169.164C178.314 172.584 178.152 176.22 177.972 179.778C177.6 187.118 177.156 194.454 176.64 201.786C176.116 209.198 175.516 216.598 174.84 223.986C174.756 224.892 174.672 225.786 174.594 226.71C174.564 226.998 174.852 227.028 174.882 226.71C175.59 219.336 176.37 212.034 176.922 204.648C177.474 197.262 177.96 189.78 178.362 182.34C178.56 178.8 178.938 175.164 178.338 171.63Z" fill="#263238"/>
<path d="M181.392 230.154C177.078 230.064 178.32 230.028 174.006 229.986C171.894 229.986 158.016 229.848 156.042 230.172C156 230.172 156 230.256 156.042 230.262C158.016 230.586 171.894 230.466 174.006 230.448C178.32 230.406 177.078 230.37 181.392 230.28C181.409 230.28 181.425 230.273 181.437 230.262C181.448 230.25 181.455 230.234 181.455 230.217C181.455 230.2 181.448 230.184 181.437 230.172C181.425 230.161 181.409 230.154 181.392 230.154Z" fill="#263238"/>
<path d="M155.796 168.924C147.912 156.756 124.314 122.208 124.314 122.208H140.106L155.796 168.924Z" fill="#263238"/>
<path d="M91.758 274.878C93.138 275.31 132.354 274.398 133.824 273.414C134.388 273.048 134.586 267.33 134.634 260.406V260.19C134.634 258.768 137.922 234.798 137.922 234.798L112.29 235.32L109.326 260.52V260.952C109.326 260.952 94.488 267.99 93 269.238C91.512 270.486 90.378 274.452 91.758 274.878Z" fill="#D3766A"/>
<path d="M91.758 274.878C93.138 275.31 132.354 274.398 133.824 273.414C134.388 273.048 134.586 267.33 134.634 260.406V260.19C134.634 260.19 135.234 255.39 135.234 255.186L109.926 255.636L109.356 260.496V260.928C109.356 260.928 94.488 267.99 93 269.238C91.512 270.486 90.378 274.452 91.758 274.878Z" fill="#EBEBEB"/>
<path d="M91.758 274.878C93.138 275.31 132.354 274.398 133.824 273.414C134.388 273.048 134.586 267.33 134.634 260.406V260.19L109.326 260.496V260.928C109.326 260.928 94.488 267.99 93 269.238C91.512 270.486 90.378 274.452 91.758 274.878Z" fill="#FB7D47"/>
<path d="M92.166 273.348C98.766 273.03 125.448 272.382 132.006 272.574C132.06 272.574 132.06 272.61 132.006 272.616C125.466 273.072 98.784 273.504 92.166 273.456C92.028 273.456 92.028 273.354 92.166 273.348Z" fill="#263238"/>
<path d="M106.512 260.634C109.104 260.088 112.29 260.412 114.312 262.218C114.39 262.29 114.312 262.404 114.204 262.374C111.7 261.632 109.123 261.159 106.518 260.964C106.479 260.957 106.444 260.938 106.419 260.908C106.394 260.878 106.379 260.841 106.379 260.801C106.378 260.762 106.391 260.724 106.415 260.694C106.439 260.663 106.474 260.642 106.512 260.634Z" fill="#263238"/>
<path d="M104.658 261.81C107.25 261.264 110.442 261.588 112.458 263.394C112.536 263.466 112.458 263.574 112.35 263.55C109.846 262.804 107.269 262.332 104.664 262.14C104.625 262.133 104.59 262.114 104.565 262.084C104.54 262.054 104.525 262.017 104.525 261.978C104.524 261.938 104.537 261.9 104.561 261.87C104.585 261.839 104.62 261.818 104.658 261.81Z" fill="#263238"/>
<path d="M102.81 262.986C105.396 262.44 108.588 262.764 110.61 264.57C110.688 264.642 110.61 264.75 110.502 264.726C107.998 263.982 105.421 263.507 102.816 263.31C102.773 263.311 102.732 263.294 102.701 263.265C102.67 263.235 102.652 263.194 102.651 263.151C102.65 263.108 102.667 263.067 102.696 263.036C102.726 263.005 102.767 262.987 102.81 262.986Z" fill="#263238"/>
<path d="M154.452 122.208C154.452 122.208 150.852 144.222 150.594 144.93C150.594 144.93 149.25 145.566 146.826 146.682L136.128 260.838L107.886 260.952L123.63 122.208H154.452Z" fill="#263238"/>
<path d="M135.162 255.816C130.848 255.744 132.09 255.702 127.77 255.678C125.664 255.678 111.786 255.606 109.812 255.942C109.77 255.942 109.77 256.02 109.812 256.032C111.792 256.35 125.664 256.17 127.776 256.14C132.09 256.08 130.848 256.05 135.162 255.942C135.172 255.945 135.182 255.946 135.193 255.944C135.203 255.942 135.212 255.938 135.221 255.932C135.229 255.926 135.236 255.918 135.241 255.909C135.245 255.9 135.248 255.889 135.248 255.879C135.248 255.869 135.245 255.858 135.241 255.849C135.236 255.84 135.229 255.832 135.221 255.826C135.212 255.82 135.203 255.816 135.193 255.814C135.182 255.812 135.172 255.813 135.162 255.816Z" fill="#263238"/>
<path d="M130.68 126.468C129.582 142.194 128.448 157.92 127.164 173.634C125.88 189.348 124.344 205.152 122.442 220.86C121.38 229.632 120.222 241.992 118.95 250.734C118.95 250.794 119.034 250.818 119.04 250.734C121.674 235.194 123.528 215.934 125.118 200.238C126.708 184.542 127.974 168.846 129.09 153.126C129.69 144.234 130.29 135.336 130.89 126.444C130.884 126.336 130.686 126.342 130.68 126.468Z" fill="#263238"/>
<path d="M151.8 144.246C148.989 145.417 146.287 146.832 143.724 148.476C143.713 148.482 143.704 148.489 143.696 148.498C143.688 148.507 143.683 148.518 143.679 148.529C143.675 148.541 143.674 148.553 143.675 148.565C143.676 148.577 143.679 148.588 143.685 148.599C143.691 148.61 143.698 148.619 143.707 148.627C143.716 148.635 143.727 148.64 143.738 148.644C143.75 148.648 143.762 148.649 143.774 148.648C143.786 148.647 143.797 148.644 143.808 148.638C146.532 147.318 149.316 146.04 151.962 144.57C152.005 144.549 152.038 144.511 152.053 144.465C152.068 144.42 152.064 144.37 152.043 144.327C152.022 144.284 151.984 144.251 151.938 144.236C151.893 144.221 151.843 144.225 151.8 144.246Z" fill="#263238"/>
<path d="M150.726 131.634C150.282 134.268 150.036 136.944 149.742 139.596C149.67 140.232 149.592 140.874 149.526 141.51C149.507 142.097 149.349 142.671 149.064 143.184C148.494 144.072 147.468 144.486 146.538 144.894C146.43 144.942 146.472 145.11 146.592 145.074C147.593 144.833 148.517 144.344 149.28 143.652C150.126 142.758 150.096 141.402 150.228 140.25C150.599 137.396 150.799 134.523 150.828 131.646C150.846 131.58 150.738 131.562 150.726 131.634Z" fill="#263238"/>
<path d="M147.528 132.444C147.432 134.34 147.222 136.236 147.06 138.132C146.982 139.062 146.916 140.004 146.862 140.94C146.808 141.876 146.694 142.866 146.724 143.814C146.728 143.826 146.736 143.836 146.746 143.844C146.756 143.851 146.768 143.855 146.781 143.855C146.794 143.855 146.806 143.851 146.816 143.844C146.826 143.836 146.834 143.826 146.838 143.814C146.994 142.914 147.018 141.978 147.09 141.066C147.162 140.154 147.234 139.146 147.288 138.186C147.396 136.272 147.444 134.34 147.618 132.426C147.6 132.378 147.528 132.384 147.528 132.444Z" fill="#263238"/>
<path d="M163.8 134.034L152.226 135.504L134.826 137.712L121.626 139.386L123.576 122.208H154.398C154.398 122.208 158.508 127.104 163.8 134.034Z" fill="#263238"/>
<path d="M149.316 91.926C154.62 102.834 165.822 114.276 172.206 114.276C178.206 114.276 193.29 102.456 200.346 95.508C201.954 93.924 187.284 81.402 185.706 83.238C182.022 87.528 173.406 96.84 170.646 96.84C168.186 96.84 160.446 91.26 153.672 85.728C145.464 79.014 147.204 87.6 149.316 91.926Z" fill="#D3766A"/>
<path d="M200.346 95.508C202.224 94.452 207.894 89.634 211.422 85.17C213.132 82.998 217.386 76.254 215.826 74.814C214.266 73.374 212.826 75.234 212.826 75.234C212.826 75.234 214.194 72.114 212.49 70.806C210.786 69.498 208.674 72.468 208.674 72.468C208.674 72.468 209.874 69.162 208.074 67.98C206.274 66.798 204.654 70.14 204.654 70.14C204.654 70.14 205.854 67.14 203.982 66.816C201.708 66.39 200.088 72.126 198.078 74.424C197.616 74.952 188.058 84.36 188.058 84.36L200.346 95.508Z" fill="#D3766A"/>
<path d="M204.6 70.2C203.4 74.4 202.146 76.044 198.93 78.918C198.87 78.978 198.93 79.086 199.008 79.032C202.416 76.5 204.282 74.676 204.81 70.242C204.828 69.996 204.654 69.966 204.6 70.2Z" fill="#263238"/>
<path d="M208.8 72.318C207.168 76.584 205.8 78.372 202.68 81.63C202.632 81.672 202.68 81.756 202.758 81.714C206.112 78.774 207.936 76.914 209.004 72.432C209.046 72.228 208.866 72.12 208.8 72.318Z" fill="#263238"/>
<path d="M212.688 75.6C210.816 79.62 209.424 81.642 205.962 84.414C205.95 84.4284 205.943 84.4464 205.942 84.4652C205.941 84.484 205.947 84.5025 205.958 84.5177C205.969 84.5329 205.985 84.544 206.003 84.5491C206.021 84.5543 206.041 84.5532 206.058 84.546C209.862 82.062 211.614 79.554 212.808 75.672C212.886 75.384 212.808 75.324 212.688 75.6Z" fill="#263238"/>
<path d="M238.573 55.0605L194.283 55.5088L194.607 87.4572L238.897 87.0088L238.573 55.0605Z" fill="#EBEBEB"/>
<path d="M205.643 61.9642L202.415 61.9969L202.594 79.6959L205.822 79.6633L205.643 61.9642Z" fill="#FB7D47"/>
<path d="M211.122 79.596L207.894 79.632L207.78 66.81L211.002 66.78L211.122 79.596Z" fill="#FB7D47"/>
<path d="M216.31 69.6802L213.082 69.7129L213.182 79.5884L216.41 79.5557L216.31 69.6802Z" fill="#FB7D47"/>
<path d="M221.621 71.5885L218.394 71.6212L218.474 79.5348L221.702 79.5021L221.621 71.5885Z" fill="#FB7D47"/>
<path d="M226.863 66.6274L223.635 66.6601L223.765 79.4814L226.993 79.4488L226.863 66.6274Z" fill="#FB7D47"/>
<path d="M232.14 64.1034L228.912 64.1367L229.069 79.3999L232.297 79.3666L232.14 64.1034Z" fill="#FB7D47"/>
<path d="M200.22 60.036C200.334 63.312 200.436 66.588 200.502 69.87C200.568 73.152 200.652 76.428 200.688 79.704L200.418 79.434L208.932 79.326L217.44 79.272C220.278 79.272 223.116 79.272 225.96 79.272C228.804 79.272 231.636 79.308 234.474 79.356C231.634 79.456 228.796 79.54 225.96 79.608C223.122 79.668 220.284 79.752 217.446 79.788L208.938 79.908L200.4 79.98H200.124V79.71C200.094 76.428 200.124 73.152 200.124 69.87C200.124 66.588 200.166 63.312 200.22 60.036Z" fill="#C7C7C7"/>
<path d="M199.2 61.8C199.55 61.748 199.903 61.7199 200.256 61.716C200.607 61.7111 200.958 61.7332 201.306 61.782C200.608 61.882 199.898 61.882 199.2 61.782V61.8Z" fill="#C7C7C7"/>
<path d="M199.2 63.6C199.55 63.5481 199.903 63.5201 200.256 63.516C200.607 63.5111 200.958 63.5332 201.306 63.582C200.608 63.682 199.898 63.682 199.2 63.582V63.6Z" fill="#C7C7C7"/>
<path d="M199.2 65.436C199.549 65.3812 199.902 65.3532 200.256 65.352C200.607 65.3471 200.958 65.3692 201.306 65.418C200.608 65.518 199.898 65.518 199.2 65.418V65.436Z" fill="#C7C7C7"/>
<path d="M199.236 67.248C199.936 67.148 200.648 67.148 201.348 67.248C200.648 67.348 199.936 67.348 199.236 67.248Z" fill="#C7C7C7"/>
<path d="M199.254 69.06C199.954 68.96 200.666 68.96 201.366 69.06C200.666 69.16 199.954 69.16 199.254 69.06Z" fill="#C7C7C7"/>
<path d="M199.272 70.872C199.972 70.772 200.684 70.772 201.384 70.872C200.684 70.972 199.972 70.972 199.272 70.872Z" fill="#C7C7C7"/>
<path d="M199.296 72.684C199.643 72.629 199.994 72.6009 200.346 72.6C200.699 72.5951 201.052 72.6172 201.402 72.666C201.053 72.7208 200.7 72.7489 200.346 72.75C199.995 72.7549 199.644 72.7329 199.296 72.684Z" fill="#C7C7C7"/>
<path d="M199.314 74.496C200.012 74.396 200.722 74.396 201.42 74.496C201.071 74.5508 200.718 74.5789 200.364 74.58C200.012 74.579 199.661 74.5509 199.314 74.496Z" fill="#C7C7C7"/>
<path d="M199.332 76.308C200.03 76.208 200.74 76.208 201.438 76.308C201.089 76.3628 200.736 76.3909 200.382 76.392C200.03 76.391 199.679 76.3629 199.332 76.308Z" fill="#C7C7C7"/>
<path d="M199.35 78.12C200.048 78.02 200.758 78.02 201.456 78.12C201.108 78.1718 200.757 78.1999 200.406 78.204C200.052 78.2031 199.699 78.1751 199.35 78.12Z" fill="#C7C7C7"/>
<path d="M209.544 59.484C210.702 59.376 211.854 59.322 213.006 59.274C214.158 59.226 215.316 59.202 216.474 59.184C217.632 59.166 218.784 59.184 219.936 59.184C221.088 59.184 222.246 59.238 223.404 59.322C222.246 59.43 221.094 59.484 219.942 59.532C218.79 59.58 217.632 59.598 216.474 59.616C215.316 59.634 214.164 59.616 213.012 59.616C211.86 59.616 210.702 59.562 209.544 59.484Z" fill="#C7C7C7"/>
<path d="M212.16 61.062C215.035 60.7321 217.937 60.7019 220.818 60.972C219.383 61.1488 217.938 61.239 216.492 61.242C215.046 61.2659 213.599 61.2058 212.16 61.062Z" fill="#C7C7C7"/>
<path d="M200.304 83.292V81.222H202.374V83.298L200.304 83.292ZM200.586 81.492V82.968H202.056V81.498L200.586 81.492Z" fill="#C7C7C7"/>
<path d="M203.868 81.336C205.626 81.258 207.384 81.204 209.148 81.162L214.422 81.078H219.696C221.46 81.078 223.218 81.078 224.976 81.144C223.218 81.216 221.46 81.276 219.702 81.312L214.422 81.402H209.148C207.388 81.394 205.628 81.372 203.868 81.336Z" fill="#C7C7C7"/>
<path d="M203.88 82.2C205.866 82.056 207.852 82.032 209.838 81.99C211.824 81.948 213.816 81.99 215.802 82.08C213.816 82.224 211.83 82.254 209.844 82.29C207.858 82.326 205.866 82.326 203.88 82.2Z" fill="#C7C7C7"/>
<path d="M203.886 83.106C206.322 82.962 208.764 82.926 211.2 82.884C213.636 82.842 216.072 82.884 218.514 82.956C216.078 83.106 213.642 83.142 211.2 83.184C208.758 83.226 206.328 83.208 203.886 83.106Z" fill="#C7C7C7"/>
<path d="M200.364 62.7C201.12 62.4001 201.917 62.2141 202.728 62.148C203.553 62.0478 204.391 62.155 205.164 62.46C205.898 62.8446 206.559 63.3566 207.114 63.972C207.684 64.572 208.206 65.172 208.71 65.82C209.73 67.074 210.678 68.382 211.77 69.54C212.787 70.7371 214.101 71.6455 215.58 72.174C216.309 72.3962 217.08 72.4434 217.83 72.312C218.594 72.152 219.329 71.8747 220.008 71.49C221.383 70.6798 222.682 69.7481 223.89 68.706C225.138 67.686 226.344 66.606 227.634 65.622C228.275 65.1225 228.955 64.6751 229.668 64.284C230.025 64.0853 230.398 63.9186 230.784 63.786C231.173 63.6664 231.577 63.6057 231.984 63.606C231.182 63.6901 230.414 63.9704 229.746 64.422C229.066 64.8471 228.42 65.3246 227.814 65.85C226.578 66.876 225.414 67.986 224.214 69.054C223.012 70.161 221.697 71.1384 220.29 71.97C219.566 72.3921 218.781 72.6978 217.962 72.876C217.12 73.0326 216.253 72.9894 215.43 72.75C213.857 72.1766 212.464 71.1975 211.392 69.912C210.328 68.694 209.326 67.4223 208.392 66.102C207.906 65.46 207.414 64.824 206.88 64.23C206.372 63.6271 205.763 63.1175 205.08 62.724C204.362 62.3999 203.574 62.2578 202.788 62.31C201.966 62.331 201.151 62.4622 200.364 62.7Z" fill="#263238"/>
<path d="M184.626 84.48C184.626 84.48 187.974 80.148 189.9 78.606C191.826 77.064 201.132 73.95 201.9 75.924C202.914 78.468 197.898 81.324 195.258 82.398C195.258 82.398 197.61 88.278 194.454 91.104C191.298 93.93 184.626 84.48 184.626 84.48Z" fill="#D3766A"/>
<path d="M201.966 76.716C201.216 79.716 197.658 80.916 195.18 82.116C195.143 82.1324 195.11 82.1577 195.084 82.1897C195.059 82.2217 195.041 82.2593 195.034 82.2995C195.026 82.3397 195.028 82.3811 195.04 82.4202C195.052 82.4593 195.073 82.4949 195.102 82.524C195.918 85.056 196.344 88.866 194.646 91.104C194.64 91.1099 194.636 91.1169 194.633 91.1244C194.631 91.132 194.629 91.1401 194.629 91.1481C194.63 91.1562 194.632 91.1642 194.635 91.1715C194.638 91.1789 194.643 91.1855 194.649 91.191C194.655 91.1965 194.662 91.2008 194.669 91.2037C194.677 91.2065 194.685 91.2078 194.693 91.2075C194.701 91.2073 194.709 91.2054 194.717 91.202C194.724 91.1987 194.73 91.1939 194.736 91.188C196.884 89.034 196.776 85.26 195.702 82.542C198.264 81.342 201.78 79.968 201.996 76.71L201.966 76.716Z" fill="#263238"/>
<path d="M152.322 84.534C156.756 87.498 167.586 96.942 170.544 96.186C173.502 95.43 183 85.32 183 85.32L197.964 99.474C197.964 99.474 181.002 115.602 171.624 115.008C162.246 114.414 152.52 100.008 149.424 93.804C146.328 87.6 144.936 79.608 152.322 84.534Z" fill="#FB7D47"/>
<path d="M171.24 104.124C171.04 103.572 171.04 102.967 171.24 102.414C171.44 102.967 171.44 103.572 171.24 104.124ZM185.4 93.654C185.406 93.363 185.355 93.0736 185.25 92.802C185.145 93.0736 185.094 93.363 185.1 93.654C185.097 93.9448 185.148 94.2337 185.25 94.506C185.352 94.2337 185.403 93.9448 185.4 93.654ZM187.2 106.998C187.203 106.707 187.152 106.418 187.05 106.146C186.85 106.696 186.85 107.3 187.05 107.85C187.152 107.578 187.203 107.289 187.2 106.998ZM156.192 100.74C156.201 100.449 156.15 100.159 156.042 99.888C155.842 100.438 155.842 101.042 156.042 101.592C156.147 101.32 156.198 101.031 156.192 100.74ZM182.742 105.042C182.748 104.751 182.697 104.462 182.592 104.19C182.392 104.74 182.392 105.344 182.592 105.894C182.697 105.622 182.748 105.333 182.742 105.042ZM165.942 95.346C166.233 95.348 166.521 95.2972 166.794 95.196C166.523 95.0888 166.233 95.0377 165.942 95.046C165.651 95.0397 165.361 95.0906 165.09 95.196C165.366 95.3 165.659 95.3509 165.954 95.346H165.942ZM167.022 107.736C167.313 107.739 167.602 107.688 167.874 107.586C167.324 107.386 166.72 107.386 166.17 107.586C166.446 107.69 166.739 107.741 167.034 107.736H167.022ZM177.75 101.736C178.041 101.741 178.33 101.69 178.602 101.586C178.33 101.482 178.041 101.431 177.75 101.436C177.457 101.433 177.166 101.484 176.892 101.586C177.17 101.691 177.465 101.744 177.762 101.742L177.75 101.736ZM190.656 103.002C190.947 103.008 191.236 102.957 191.508 102.852C190.958 102.652 190.354 102.652 189.804 102.852C190.079 102.961 190.372 103.014 190.668 103.008L190.656 103.002ZM183.456 88.602C183.747 88.6054 184.036 88.5545 184.308 88.452C184.037 88.3438 183.747 88.2927 183.456 88.302C183.165 88.2967 182.876 88.3477 182.604 88.452C182.872 88.5579 183.156 88.6148 183.444 88.62L183.456 88.602ZM155.712 91.038C155.507 90.8289 155.265 90.66 154.998 90.54C155.117 90.806 155.286 91.0465 155.496 91.248C155.697 91.4589 155.938 91.6281 156.204 91.746C156.08 91.4866 155.91 91.2526 155.7 91.056L155.712 91.038ZM161.892 104.316C161.689 104.107 161.449 103.938 161.184 103.818C161.433 104.345 161.857 104.769 162.384 105.018C162.26 104.761 162.089 104.529 161.88 104.334L161.892 104.316ZM176.634 107.316C176.43 107.106 176.188 106.936 175.92 106.818C176.163 107.349 176.589 107.775 177.12 108.018C176.996 107.76 176.828 107.527 176.622 107.328L176.634 107.316ZM184.734 99.6C184.533 99.3892 184.292 99.22 184.026 99.102C184.275 99.6287 184.699 100.053 185.226 100.302C185.107 100.039 184.94 99.8014 184.734 99.6ZM173.73 96.666C173.527 96.4589 173.287 96.292 173.022 96.174C173.271 96.7007 173.695 97.1248 174.222 97.374C174.101 97.1161 173.935 96.8822 173.73 96.684V96.666ZM171.6 111.552C171.391 111.755 171.222 111.995 171.102 112.26C171.368 112.141 171.608 111.972 171.81 111.762C172.021 111.561 172.19 111.32 172.308 111.054C172.043 111.174 171.803 111.343 171.6 111.552ZM180.738 110.442C180.53 110.644 180.362 110.884 180.246 111.15C180.773 110.901 181.197 110.477 181.446 109.95C181.177 110.068 180.933 110.234 180.726 110.442H180.738ZM165.258 100.242C165.047 100.443 164.878 100.684 164.76 100.95C165.026 100.832 165.267 100.663 165.468 100.452C165.678 100.25 165.847 100.01 165.966 99.744C165.699 99.8488 165.455 100.004 165.246 100.2L165.258 100.242ZM191.4 96.384C191.191 96.5853 191.024 96.8259 190.908 97.092C191.173 96.972 191.413 96.803 191.616 96.594C191.824 96.3902 191.992 96.1502 192.114 95.886C191.847 96.006 191.605 96.1749 191.4 96.384ZM159.78 96.384C159.571 96.5866 159.402 96.8268 159.282 97.092C159.809 96.8428 160.233 96.4187 160.482 95.892C160.224 96.0122 159.99 96.179 159.792 96.384H159.78ZM178.83 94.152C178.621 94.3546 178.452 94.5948 178.332 94.86C178.6 94.7416 178.842 94.5725 179.046 94.362C179.254 94.1582 179.422 93.9182 179.544 93.654C179.281 93.7753 179.043 93.9441 178.842 94.152H178.83ZM151.722 87.324C151.725 87.0332 151.674 86.7444 151.572 86.472C151.464 86.7428 151.413 87.0327 151.422 87.324C151.416 87.6151 151.467 87.9046 151.572 88.176C151.679 87.9046 151.734 87.6156 151.734 87.324H151.722ZM152.016 96.492C152.309 96.4948 152.6 96.4439 152.874 96.342C152.601 96.2343 152.309 96.1832 152.016 96.192C151.725 96.1867 151.436 96.2377 151.164 96.342C151.44 96.4447 151.733 96.4955 152.028 96.492H152.016Z" fill="white"/>
<path d="M193.62 101.07C193.164 100.47 192.594 100.008 192.084 99.48C191.574 98.952 191.04 98.442 190.506 97.938C189.474 96.96 188.43 95.994 187.386 95.04L184.23 92.178C183.144 91.194 182.082 90.138 180.918 89.244C180.908 89.2353 180.896 89.2307 180.883 89.2312C180.87 89.2318 180.858 89.2375 180.849 89.247C180.84 89.2565 180.836 89.2692 180.836 89.2821C180.837 89.2951 180.842 89.3073 180.852 89.316C181.824 90.408 182.952 91.392 184.014 92.406L187.152 95.406C188.196 96.402 189.252 97.39 190.32 98.37C190.848 98.85 191.376 99.318 191.916 99.78C192.456 100.242 192.978 100.752 193.566 101.154C193.614 101.184 193.656 101.112 193.62 101.07Z" fill="#263238"/>
<path d="M170.4 114.846C161.4 113.16 152.4 99.738 149.4 93.81C147.408 89.844 146.148 85.152 147.426 83.562C151.068 88.506 163.8 105.87 170.4 114.846Z" fill="#263238"/>
<path d="M162.432 132.114C161.832 132.792 121.356 132.852 121.152 132.606C120.594 131.934 130.182 90.546 139.152 83.346C141.078 81.798 148.47 82.032 149.478 82.428C150.63 82.866 153.882 88.368 155.364 92.85C158.316 101.82 162.96 131.52 162.432 132.114Z" fill="#FB7D47"/>
<path d="M146.76 106.998C146.658 106.726 146.607 106.437 146.61 106.146C146.604 105.855 146.655 105.565 146.76 105.294C146.865 105.565 146.916 105.855 146.91 106.146C146.913 106.437 146.862 106.726 146.76 106.998ZM151.884 115.878C151.887 115.585 151.836 115.294 151.734 115.02C151.626 115.293 151.575 115.585 151.584 115.878C151.579 116.169 151.63 116.458 151.734 116.73C151.835 116.457 151.886 116.169 151.884 115.878ZM151.734 87.324C151.737 87.0332 151.686 86.7444 151.584 86.472C151.476 86.7428 151.425 87.0327 151.434 87.324C151.428 87.6151 151.479 87.9046 151.584 88.176C151.687 87.9038 151.737 87.6149 151.734 87.324ZM139.362 116.202C139.365 115.911 139.315 115.622 139.212 115.35C139.104 115.621 139.053 115.911 139.062 116.202C139.056 116.493 139.107 116.782 139.212 117.054C139.314 116.782 139.365 116.493 139.362 116.202ZM160.5 120.24C160.506 119.947 160.455 119.656 160.35 119.382C160.245 119.656 160.194 119.947 160.2 120.24C160.198 120.531 160.249 120.819 160.35 121.092C160.454 120.82 160.505 120.531 160.5 120.24ZM145.902 126.072C145.908 125.781 145.857 125.492 145.752 125.22C145.647 125.492 145.596 125.781 145.602 126.072C145.599 126.363 145.649 126.652 145.752 126.924C145.857 126.653 145.908 126.363 145.902 126.072ZM134.022 130.086C134.025 129.795 133.974 129.506 133.872 129.234C133.672 129.784 133.672 130.388 133.872 130.938C133.974 130.666 134.025 130.377 134.022 130.086ZM143.766 95.028C143.771 94.737 143.72 94.4477 143.616 94.176C143.416 94.7285 143.416 95.3335 143.616 95.886C143.721 95.6124 143.772 95.321 143.766 95.028ZM136.08 90.18C136.083 89.8892 136.033 89.6002 135.93 89.328C135.73 89.8784 135.73 90.4816 135.93 91.032C136.032 90.7597 136.083 90.4708 136.08 90.18ZM135.93 104.67C135.932 104.379 135.881 104.091 135.78 103.818C135.58 104.371 135.58 104.976 135.78 105.528C135.882 105.254 135.933 104.963 135.93 104.67ZM127.842 120.27C127.851 119.979 127.8 119.689 127.692 119.418C127.589 119.69 127.539 119.979 127.542 120.27C127.54 120.561 127.591 120.849 127.692 121.122C127.8 120.841 127.851 120.541 127.842 120.24V120.27ZM156.192 100.77C156.201 100.479 156.15 100.189 156.042 99.918C155.842 100.468 155.842 101.072 156.042 101.622C156.151 101.341 156.202 101.041 156.192 100.74V100.77ZM141.438 103.392C141.729 103.394 142.017 103.343 142.29 103.242C141.737 103.042 141.132 103.042 140.58 103.242C140.856 103.334 141.147 103.374 141.438 103.362V103.392ZM140.58 122.388C140.873 122.391 141.164 122.34 141.438 122.238C140.885 122.038 140.28 122.038 139.728 122.238C140.002 122.329 140.291 122.37 140.58 122.358V122.388ZM145.2 132C145.491 132.006 145.781 131.955 146.052 131.85C145.78 131.748 145.491 131.697 145.2 131.7C144.909 131.698 144.621 131.749 144.348 131.85C144.62 131.954 144.909 132.005 145.2 132ZM155.814 106.662C156.105 106.665 156.394 106.614 156.666 106.512C156.116 106.312 155.512 106.312 154.962 106.512C155.228 106.616 155.51 106.671 155.796 106.674L155.814 106.662ZM134.814 96.276C135.105 96.2818 135.394 96.2308 135.666 96.126C135.394 96.0212 135.105 95.9703 134.814 95.976C134.523 95.9732 134.234 96.024 133.962 96.126C134.223 96.2311 134.502 96.2861 134.784 96.288L134.814 96.276ZM145.362 88.476C145.653 88.4789 145.942 88.428 146.214 88.326C145.943 88.2183 145.653 88.1672 145.362 88.176C145.071 88.1697 144.781 88.2206 144.51 88.326C144.773 88.4229 145.052 88.4717 145.332 88.47L145.362 88.476ZM134.724 111C135.015 111.003 135.304 110.952 135.576 110.85C135.305 110.742 135.015 110.691 134.724 110.7C134.433 110.694 134.143 110.745 133.872 110.85C134.144 110.953 134.433 111.003 134.724 111ZM128.772 126.066C129.063 126.071 129.352 126.02 129.624 125.916C129.071 125.716 128.466 125.716 127.914 125.916C128.187 126.023 128.479 126.076 128.772 126.072V126.066ZM152.028 96.486C152.321 96.4888 152.612 96.4379 152.886 96.336C152.613 96.2283 152.321 96.1772 152.028 96.186C151.737 96.1807 151.448 96.2317 151.176 96.336C151.448 96.4393 151.737 96.4921 152.028 96.492V96.486ZM146.454 112.374C146.745 112.38 147.035 112.329 147.306 112.224C146.756 112.024 146.152 112.024 145.602 112.224C145.873 112.331 146.163 112.384 146.454 112.38V112.374ZM158.634 130.8C158.925 130.806 159.215 130.755 159.486 130.65C158.936 130.45 158.332 130.45 157.782 130.65C158.054 130.755 158.343 130.806 158.634 130.8ZM151.584 122.532C151.875 122.534 152.163 122.483 152.436 122.382C151.883 122.182 151.278 122.182 150.726 122.382C151.002 122.476 151.293 122.518 151.584 122.508V122.532ZM151.686 129.306C151.483 129.097 151.243 128.928 150.978 128.808C151.097 129.074 151.266 129.314 151.476 129.516C151.677 129.727 151.918 129.896 152.184 130.014C152.067 129.74 151.898 129.492 151.686 129.282V129.306ZM128.886 114.192C128.683 113.983 128.443 113.814 128.178 113.694C128.297 113.96 128.466 114.2 128.676 114.402C128.879 114.611 129.119 114.78 129.384 114.9C129.263 114.625 129.09 114.377 128.874 114.168L128.886 114.192ZM141.306 109.26C141.104 109.048 140.861 108.878 140.592 108.762C140.712 109.027 140.881 109.267 141.09 109.47C141.295 109.679 141.537 109.848 141.804 109.968C141.681 109.694 141.508 109.446 141.294 109.236L141.306 109.26ZM134.478 122.274C134.275 122.065 134.035 121.896 133.77 121.776C134.019 122.303 134.443 122.727 134.97 122.976C134.85 122.704 134.679 122.457 134.466 122.25L134.478 122.274ZM123.522 129.348C123.318 129.14 123.075 128.972 122.808 128.856C122.928 129.121 123.097 129.361 123.306 129.564C123.511 129.773 123.753 129.942 124.02 130.062C123.897 129.787 123.724 129.537 123.51 129.324L123.522 129.348ZM132.666 100.656C132.464 100.446 132.224 100.277 131.958 100.158C132.078 100.425 132.247 100.667 132.456 100.872C132.659 101.079 132.899 101.246 133.164 101.364C133.045 101.088 132.872 100.839 132.654 100.632L132.666 100.656ZM146.868 99.6C146.666 99.3878 146.423 99.2184 146.154 99.102C146.274 99.3672 146.443 99.6074 146.652 99.81C146.857 100.019 147.099 100.188 147.366 100.308C147.244 100.044 147.076 99.8039 146.868 99.6ZM156.3 119.28C156.097 119.071 155.857 118.902 155.592 118.782C155.711 119.048 155.88 119.288 156.09 119.49C156.291 119.701 156.532 119.87 156.798 119.988C156.678 119.723 156.509 119.483 156.3 119.28ZM140.7 91.68C140.499 91.4692 140.258 91.3 139.992 91.182C140.241 91.7087 140.665 92.1328 141.192 92.382C141.071 92.1121 140.9 91.8677 140.688 91.662L140.7 91.68ZM151.944 109.578C151.741 109.369 151.501 109.2 151.236 109.08C151.354 109.348 151.524 109.59 151.734 109.794C151.938 110.002 152.178 110.17 152.442 110.292C152.32 110.018 152.147 109.769 151.932 109.56L151.944 109.578ZM151.734 102.774C151.524 102.976 151.355 103.216 151.236 103.482C151.763 103.233 152.187 102.809 152.436 102.282C152.169 102.392 151.927 102.553 151.722 102.756L151.734 102.774ZM133.062 116.964C132.851 117.165 132.682 117.406 132.564 117.672C132.829 117.554 133.069 117.387 133.272 117.18C133.481 116.975 133.65 116.733 133.77 116.466C133.502 116.579 133.258 116.742 133.05 116.946L133.062 116.964ZM156.552 113.586C156.342 113.788 156.173 114.028 156.054 114.294C156.321 114.174 156.563 114.005 156.768 113.796C156.975 113.593 157.142 113.353 157.26 113.088C156.992 113.201 156.747 113.364 156.54 113.568L156.552 113.586ZM140.16 128.4C139.951 128.603 139.782 128.843 139.662 129.108C139.929 128.992 140.172 128.825 140.376 128.616C140.583 128.41 140.752 128.168 140.874 127.902C140.607 128.022 140.365 128.191 140.16 128.4ZM139.104 99.306C138.894 99.5076 138.725 99.748 138.606 100.014C139.133 99.7648 139.557 99.3407 139.806 98.814C139.546 98.9239 139.308 99.0805 139.104 99.276V99.306ZM145.494 119.31C145.287 119.513 145.12 119.753 145.002 120.018C145.268 119.9 145.509 119.731 145.71 119.52C145.92 119.318 146.089 119.078 146.208 118.812C145.943 118.923 145.701 119.082 145.494 119.28V119.31ZM156.294 125.748C156.083 125.949 155.914 126.19 155.796 126.456C156.323 126.207 156.747 125.783 156.996 125.256C156.736 125.366 156.498 125.522 156.294 125.718V125.748ZM130.248 107.592C130.039 107.795 129.87 108.035 129.75 108.3C130.017 108.18 130.259 108.011 130.464 107.802C130.671 107.599 130.838 107.359 130.956 107.094C130.693 107.205 130.453 107.364 130.248 107.562V107.592ZM148.302 92.898C148.093 93.1006 147.924 93.3408 147.804 93.606C148.331 93.3568 148.755 92.9327 149.004 92.406C148.744 92.5159 148.506 92.6725 148.302 92.868V92.898ZM139.374 85.62C139.165 85.8236 138.998 86.0661 138.882 86.334C139.147 86.214 139.387 86.045 139.59 85.836C139.798 85.6322 139.966 85.3923 140.088 85.128C139.824 85.2369 139.582 85.3935 139.374 85.59V85.62Z" fill="white"/>
<path d="M149.94 93.882L150.528 91.29L148.14 88.686L146.292 91.956L147.588 94.188L146.46 120.672L151.422 129.432L154.002 119.574L149.94 93.882Z" fill="#263238"/>
<path d="M142.146 82.368L123.81 120.24C127.2 107.238 133.302 88.038 139.134 83.346C140.045 82.7841 141.078 82.4487 142.146 82.368Z" fill="#263238"/>
<path d="M138.762 91.2C136.212 95.772 121.098 112.8 120.714 114.486C120.33 116.172 123.654 120.636 123.678 121.308C123.762 124.044 120.72 142.146 118.152 140.598C114.774 138.552 100.26 123.324 101.208 115.608C102.156 107.892 131.484 87.234 136.14 85.086C140.796 82.938 141.282 86.664 138.762 91.2Z" fill="#D3766A"/>
<path d="M128.748 143.646C130.164 142.02 127.434 141.282 127.434 141.282C127.434 141.282 131.634 141.396 132.432 139.152C133.23 136.908 129.876 136.212 129.636 136.152C129.858 136.152 133.71 136.152 134.292 133.824C134.874 131.496 131.418 131.19 131.196 131.178C131.406 131.118 134.196 130.254 134.196 128.376C134.262 125.148 126.132 126.942 123.906 125.574C123.906 125.574 123.636 121.41 123.666 121.284C123.38 122.309 122.756 123.207 121.896 123.834C120.288 124.788 118.8 125.49 118.296 126.51C118.063 126.962 117.983 127.478 118.067 127.98C118.152 128.482 118.396 128.943 118.764 129.294C118.764 129.294 116.496 129.624 115.98 131.454C115.716 132.39 116.982 133.644 116.982 133.644C116.982 133.644 115.182 133.986 114.822 135.636C114.534 136.956 115.848 138.036 115.848 138.036C115.848 138.036 114.27 139.164 114.414 140.61C114.72 143.496 125.712 147.132 128.748 143.646Z" fill="#D3766A"/>
<path d="M116.064 138.21C116.06 138.208 116.057 138.207 116.053 138.206C116.049 138.206 116.044 138.206 116.041 138.207C116.037 138.208 116.033 138.21 116.03 138.213C116.027 138.215 116.024 138.218 116.022 138.222C116.02 138.226 116.019 138.229 116.018 138.233C116.018 138.238 116.018 138.242 116.019 138.245C116.02 138.249 116.022 138.253 116.025 138.256C116.027 138.259 116.03 138.262 116.034 138.264C119.481 140.436 123.507 141.507 127.578 141.336C127.704 141.336 127.746 141.114 127.578 141.096C123.62 140.697 119.742 139.725 116.064 138.21Z" fill="#263238"/>
<path d="M116.952 133.65C116.91 133.65 116.88 133.698 116.952 133.728C120.39 135.846 125.256 137.136 129.756 136.296C129.906 136.296 130.02 136.086 129.84 136.104C126.774 136.44 120.39 135.126 116.952 133.65Z" fill="#263238"/>
<path d="M131.49 131.01C127.146 131.652 123.03 130.836 118.926 129.39C118.872 129.39 118.854 129.45 118.896 129.48C120.696 130.734 123.42 131.382 125.574 131.706C127.566 132.047 129.612 131.858 131.508 131.16C131.586 131.136 131.58 130.998 131.49 131.01Z" fill="#263238"/>
<path d="M115.764 138.03C114.936 137.43 114.246 136.542 114.408 135.45C114.486 134.953 114.742 134.501 115.128 134.178C115.606 133.852 116.156 133.646 116.73 133.578C116.302 133.222 115.994 132.744 115.845 132.208C115.696 131.672 115.714 131.104 115.896 130.578C116.13 130.126 116.523 129.777 117 129.6C117.559 129.391 118.145 129.26 118.74 129.21C118.429 128.997 118.172 128.714 117.991 128.384C117.809 128.053 117.708 127.685 117.696 127.308C117.698 126.893 117.799 126.485 117.99 126.117C118.181 125.749 118.457 125.431 118.794 125.19C119.589 124.639 120.447 124.184 121.35 123.834C121.806 123.636 122.237 123.384 122.634 123.084C123.028 122.739 123.314 122.286 123.456 121.782C123.456 121.686 123.588 121.716 123.564 121.782C123.468 122.148 123.303 122.492 123.078 122.796C122.857 123.115 122.595 123.404 122.298 123.654C121.534 124.196 120.732 124.681 119.898 125.106C119.178 125.512 118.613 126.145 118.29 126.906C118.157 127.3 118.137 127.723 118.231 128.128C118.326 128.533 118.531 128.903 118.824 129.198C118.86 129.228 118.824 129.288 118.782 129.294C118.265 129.433 117.768 129.635 117.3 129.894C116.914 130.114 116.603 130.444 116.406 130.842C116.252 131.321 116.226 131.832 116.331 132.323C116.436 132.815 116.669 133.271 117.006 133.644C116.462 133.836 115.957 134.123 115.512 134.49C115.237 134.78 115.05 135.142 114.972 135.534C114.885 135.985 114.924 136.452 115.086 136.882C115.248 137.312 115.527 137.689 115.89 137.97C115.893 137.975 115.894 137.98 115.894 137.985C115.894 137.99 115.893 137.995 115.89 138C115.893 138.012 115.893 138.024 115.89 138.036C115.89 138.036 115.392 138.414 115.362 138.426C115.332 138.438 115.362 138.426 115.362 138.396C115.487 138.265 115.622 138.143 115.764 138.03Z" fill="#263238"/>
<path d="M110.952 136.02L122.952 118.794C122.952 118.794 120.966 115.434 121.152 114.342C121.338 113.25 136.662 96.474 139.44 90.696C142.218 84.918 142.866 81.378 136.344 84.438C129.822 87.498 102.522 108.552 100.944 114.108C99.366 119.664 105.864 128.472 110.952 136.02Z" fill="#FB7D47"/>
<path d="M128.772 99.204C128.572 98.6515 128.572 98.0465 128.772 97.494C128.972 98.0465 128.972 98.6515 128.772 99.204ZM136.08 90.204C136.083 89.9131 136.033 89.6242 135.93 89.352C135.73 89.9024 135.73 90.5056 135.93 91.056C136.035 90.7761 136.086 90.4789 136.08 90.18V90.204ZM119.118 104.694C119.123 104.403 119.072 104.114 118.968 103.842C118.768 104.394 118.768 105 118.968 105.552C119.076 105.271 119.127 104.971 119.118 104.67V104.694ZM107.226 110.544C107.232 110.253 107.181 109.964 107.076 109.692C106.876 110.242 106.876 110.846 107.076 111.396C107.185 111.117 107.236 110.819 107.226 110.52V110.544ZM117.204 114.774C117.207 114.483 117.156 114.194 117.054 113.922C116.854 114.472 116.854 115.076 117.054 115.626C117.159 115.346 117.21 115.049 117.204 114.75V114.774ZM107.526 120.666C107.532 120.373 107.481 120.082 107.376 119.808C107.176 120.36 107.176 120.966 107.376 121.518C107.483 121.239 107.534 120.941 107.526 120.642V120.666ZM117.204 123.582C117.207 123.291 117.156 123.002 117.054 122.73C116.854 123.28 116.854 123.884 117.054 124.434C117.159 124.154 117.21 123.857 117.204 123.558V123.582ZM133.722 86.982C134.013 86.9873 134.302 86.9364 134.574 86.832C134.301 86.7308 134.013 86.68 133.722 86.682C133.431 86.6786 133.142 86.7295 132.87 86.832C133.14 86.9435 133.43 87.0006 133.722 87V86.982ZM134.784 96.3C135.075 96.3057 135.364 96.2548 135.636 96.15C135.364 96.0452 135.075 95.9943 134.784 96C134.493 95.9972 134.204 96.048 133.932 96.15C134.204 96.2507 134.494 96.2976 134.784 96.288V96.3ZM123.81 95.562C124.101 95.5677 124.39 95.5168 124.662 95.412C124.39 95.3072 124.101 95.2563 123.81 95.262C123.519 95.2586 123.23 95.3095 122.958 95.412C123.23 95.5133 123.52 95.5602 123.81 95.55V95.562ZM127.842 103.2C128.135 103.203 128.426 103.152 128.7 103.05C128.148 102.85 127.543 102.85 126.99 103.05C127.263 103.151 127.551 103.202 127.842 103.2ZM114.876 102.546C115.167 102.549 115.456 102.498 115.728 102.396C115.178 102.196 114.574 102.196 114.024 102.396C114.295 102.503 114.584 102.558 114.876 102.558V102.546ZM112.728 112.518C113.019 112.524 113.308 112.473 113.58 112.368C113.03 112.168 112.426 112.168 111.876 112.368C112.147 112.477 112.436 112.533 112.728 112.53V112.518ZM109.8 131.718C110.091 131.727 110.381 131.676 110.652 131.568C110.102 131.368 109.498 131.368 108.948 131.568C109.218 131.679 109.508 131.736 109.8 131.736V131.718ZM111.876 122.49C112.167 122.492 112.455 122.441 112.728 122.34C112.456 122.236 112.167 122.185 111.876 122.19C111.585 122.184 111.295 122.235 111.024 122.34C111.295 122.449 111.584 122.506 111.876 122.508V122.49ZM102.924 119.064C103.217 119.07 103.508 119.019 103.782 118.914C103.23 118.714 102.625 118.714 102.072 118.914C102.343 119.025 102.632 119.082 102.924 119.082V119.064ZM118.926 98.538C118.723 98.329 118.483 98.16 118.218 98.04C118.336 98.3082 118.505 98.5508 118.716 98.754C118.919 98.9611 119.159 99.128 119.424 99.246C119.302 98.9872 119.133 98.7533 118.926 98.556V98.538ZM114.984 107.916C114.779 107.707 114.537 107.538 114.27 107.418C114.519 107.945 114.943 108.369 115.47 108.618C115.351 108.362 115.187 108.13 114.984 107.934V107.916ZM106.428 125.946C106.226 125.738 105.986 125.57 105.72 125.454C105.969 125.981 106.393 126.405 106.92 126.654C106.801 126.395 106.634 126.161 106.428 125.964V125.946ZM115.14 127.404C114.938 127.194 114.698 127.025 114.432 126.906C114.551 127.172 114.72 127.412 114.93 127.614C115.131 127.825 115.372 127.994 115.638 128.112C115.516 127.853 115.347 127.619 115.14 127.422V127.404ZM103.638 114.474C103.434 114.264 103.192 114.094 102.924 113.976C103.043 114.242 103.212 114.482 103.422 114.684C103.624 114.894 103.864 115.063 104.13 115.182C104.01 114.924 103.843 114.69 103.638 114.492V114.474ZM113.688 117.366C113.485 117.159 113.245 116.992 112.98 116.874C113.096 117.14 113.263 117.381 113.472 117.582C113.677 117.791 113.919 117.96 114.186 118.08C114.062 117.821 113.894 117.585 113.688 117.384V117.366ZM127.422 92.244C127.217 92.0349 126.975 91.866 126.708 91.746C126.828 92.013 126.997 92.2552 127.206 92.46C127.409 92.6671 127.649 92.834 127.914 92.952C127.794 92.6936 127.627 92.4596 127.422 92.262V92.244ZM124.422 107.31C124.22 107.1 123.98 106.931 123.714 106.812C123.834 107.079 124.003 107.321 124.212 107.526C124.415 107.733 124.655 107.9 124.92 108.018C124.798 107.758 124.627 107.523 124.416 107.328L124.422 107.31ZM131.676 92.85C131.465 93.051 131.296 93.2916 131.178 93.558C131.705 93.3088 132.129 92.8847 132.378 92.358C132.111 92.4802 131.87 92.6534 131.67 92.868L131.676 92.85ZM123.456 100.614C123.245 100.815 123.076 101.056 122.958 101.322C123.223 101.204 123.463 101.037 123.666 100.83C123.875 100.625 124.044 100.383 124.164 100.116C123.895 100.241 123.653 100.416 123.45 100.632L123.456 100.614ZM109.698 106.548C109.491 106.751 109.324 106.991 109.206 107.256C109.471 107.138 109.711 106.971 109.914 106.764C110.123 106.559 110.292 106.317 110.412 106.05C110.141 106.175 109.897 106.35 109.692 106.566L109.698 106.548ZM108.39 115.854C108.18 116.058 108.011 116.3 107.892 116.568C108.423 116.325 108.849 115.899 109.092 115.368C108.828 115.494 108.589 115.664 108.384 115.872L108.39 115.854ZM118.722 119.262C118.499 119.47 118.322 119.721 118.2 120C118.466 119.882 118.707 119.713 118.908 119.502C119.115 119.302 119.283 119.063 119.4 118.8C119.145 118.917 118.913 119.08 118.716 119.28L118.722 119.262ZM110.556 126.804C110.344 127.004 110.174 127.245 110.058 127.512C110.585 127.263 111.009 126.839 111.258 126.312C110.992 126.436 110.752 126.609 110.55 126.822L110.556 126.804ZM119.85 110.604C119.641 110.807 119.472 111.047 119.352 111.312C119.879 111.063 120.303 110.639 120.552 110.112C120.288 110.228 120.048 110.393 119.844 110.598L119.85 110.604ZM139.38 85.596C139.171 85.7996 139.004 86.0421 138.888 86.31C139.153 86.19 139.393 86.021 139.596 85.812C139.804 85.6081 139.972 85.3682 140.094 85.104C139.826 85.2194 139.581 85.3843 139.374 85.59L139.38 85.596Z" fill="white"/>
<path d="M109.89 131.754C110.4 131.226 110.808 130.596 111.264 130.026C111.72 129.456 112.158 128.826 112.59 128.226C113.418 127.074 114.234 125.91 115.044 124.746C115.854 123.582 116.664 122.412 117.444 121.242C118.224 120.072 119.184 118.842 119.916 117.576C119.923 117.571 119.928 117.564 119.932 117.557C119.936 117.549 119.937 117.541 119.937 117.532C119.937 117.524 119.935 117.515 119.931 117.508C119.927 117.501 119.922 117.494 119.915 117.489C119.908 117.484 119.9 117.481 119.891 117.48C119.883 117.478 119.875 117.479 119.867 117.482C119.859 117.484 119.851 117.489 119.845 117.495C119.839 117.501 119.835 117.508 119.832 117.516C118.878 118.626 118.032 119.874 117.192 121.056C116.352 122.238 115.482 123.39 114.636 124.56C113.79 125.73 112.944 126.912 112.116 128.094C111.708 128.694 111.312 129.294 110.916 129.894C110.52 130.494 110.094 131.094 109.77 131.694C109.8 131.766 109.854 131.79 109.89 131.754Z" fill="#263238"/>
<path d="M148.662 87.822C146.538 88.584 142.416 85.674 140.628 83.142C140.508 82.968 140.574 80.982 140.532 78.564C140.502 77.1 140.436 75.468 140.268 73.986C140.232 73.68 141.336 74.118 141.336 74.118L143.31 74.364L149.838 75.186C149.516 77.1024 149.432 79.051 149.586 80.988C149.61 81.1919 149.654 81.3929 149.718 81.588C149.718 81.588 149.718 81.648 149.718 81.684C150.06 82.83 150.714 87.084 148.662 87.822Z" fill="#D3766A"/>
<path d="M149.718 81.6C149.718 81.6 149.718 81.66 149.718 81.696C149.406 81.7787 149.086 81.8329 148.764 81.858C142.482 82.458 140.796 74.544 140.796 74.544L143.286 74.37L149.814 75.192C149.492 77.1084 149.408 79.057 149.562 80.994C149.593 81.2008 149.646 81.4038 149.718 81.6Z" fill="#263238"/>
<path d="M138.12 62.532C137.244 65.892 139.404 75.408 141.858 77.442C145.41 80.4 151.026 80.442 153.486 76.242C155.886 72.144 152.838 59.796 150.114 57.966C146.112 55.254 139.404 57.564 138.12 62.532Z" fill="#D3766A"/>
<path d="M146.286 68.22C146.286 68.22 146.238 68.262 146.25 68.286C146.412 68.922 146.49 69.678 145.956 70.02C145.956 70.02 145.956 70.062 145.956 70.056C146.658 69.798 146.538 68.796 146.286 68.22Z" fill="#263238"/>
<path d="M145.56 67.674C144.516 67.824 144.894 69.912 145.866 69.774C146.838 69.636 146.442 67.548 145.56 67.674Z" fill="#263238"/>
<path d="M150.192 67.392C150.192 67.392 150.246 67.392 150.252 67.44C150.348 68.088 150.57 68.82 151.188 68.928V68.964C150.462 69 150.18 68.022 150.192 67.392Z" fill="#263238"/>
<path d="M150.648 66.6C151.668 66.33 152.13 68.4 151.182 68.652C150.234 68.904 149.784 66.834 150.648 66.6Z" fill="#263238"/>
<path d="M144.564 66.87C144.824 66.7413 145.077 66.5971 145.32 66.438C145.608 66.27 145.86 66.168 146.01 65.838C146.044 65.7456 146.046 65.6445 146.016 65.5509C145.985 65.4572 145.924 65.3766 145.842 65.322C145.664 65.2348 145.467 65.1966 145.27 65.2113C145.072 65.2261 144.883 65.2933 144.72 65.406C144.354 65.5841 144.067 65.8921 143.916 66.27C143.884 66.3586 143.879 66.4546 143.902 66.546C143.924 66.6374 143.973 66.7202 144.042 66.7841C144.111 66.848 144.197 66.8903 144.29 66.9055C144.383 66.9208 144.478 66.9085 144.564 66.87Z" fill="#263238"/>
<path d="M151.26 65.4C150.971 65.395 150.683 65.3749 150.396 65.34C150.085 65.3597 149.777 65.2753 149.52 65.1C149.45 65.0308 149.405 64.9401 149.391 64.8423C149.378 64.7446 149.398 64.6452 149.448 64.56C149.571 64.4056 149.734 64.2869 149.918 64.2162C150.103 64.1456 150.303 64.1255 150.498 64.158C150.905 64.1617 151.296 64.3156 151.596 64.59C151.66 64.6574 151.703 64.7417 151.72 64.833C151.736 64.9242 151.727 65.0184 151.691 65.1041C151.655 65.1898 151.596 65.2633 151.519 65.3159C151.443 65.3684 151.353 65.3976 151.26 65.4Z" fill="#263238"/>
<path d="M146.946 74.208C147.132 74.334 147.324 74.514 147.546 74.49C147.784 74.4432 148.01 74.3449 148.206 74.202C148.206 74.202 148.254 74.202 148.242 74.202C148.173 74.346 148.067 74.4685 147.933 74.5563C147.8 74.644 147.645 74.6937 147.486 74.7C147.35 74.687 147.221 74.6347 147.114 74.5494C147.008 74.4642 146.929 74.3497 146.886 74.22C146.874 74.214 146.922 74.19 146.946 74.208Z" fill="#263238"/>
<path d="M147.276 72.15C147.486 72.3775 147.741 72.5586 148.026 72.6815C148.31 72.8045 148.616 72.8667 148.926 72.864C149.196 72.8666 149.465 72.8302 149.724 72.756L149.874 72.714L150.006 72.666C150.04 72.6541 150.069 72.6311 150.089 72.6006C150.109 72.5702 150.117 72.5341 150.114 72.498V72.432V72.378C150.042 71.874 149.856 71.13 149.856 71.13C150.054 71.184 151.056 71.436 150.996 71.178C150.529 68.9441 149.837 66.7631 148.932 64.668C148.926 64.6542 148.916 64.6429 148.902 64.6366C148.888 64.6303 148.873 64.6292 148.859 64.6338C148.844 64.6383 148.832 64.648 148.825 64.661C148.817 64.674 148.815 64.6894 148.818 64.704C149.232 66.774 150.018 68.754 150.468 70.824C150.11 70.7292 149.74 70.6868 149.37 70.698C149.304 70.698 149.754 72.138 149.772 72.366C149.373 72.4802 148.954 72.513 148.542 72.4625C148.13 72.412 147.732 72.2792 147.372 72.072C147.27 72.054 147.228 72.108 147.276 72.15Z" fill="#263238"/>
<path d="M149.4 72.642C149.175 73.0371 148.85 73.3661 148.458 73.596C148.242 73.72 147.991 73.7705 147.744 73.74C147.21 73.674 147.144 73.2 147.144 72.78C147.17 72.5552 147.22 72.3339 147.294 72.12C147.921 72.5176 148.66 72.7008 149.4 72.642Z" fill="#263238"/>
<path d="M148.44 73.596C148.224 73.72 147.973 73.7705 147.726 73.74C147.192 73.674 147.126 73.2 147.126 72.78C147.405 72.7463 147.688 72.8087 147.926 72.9571C148.165 73.1054 148.347 73.3308 148.44 73.596Z" fill="#FF9ABB"/>
<path d="M138.996 69.774C141.198 69.342 140.862 65.268 140.862 65.268C140.862 65.268 144.522 63.93 144.528 60.978C144.528 60.978 148.548 62.586 151.176 61.026C153.804 59.466 152.736 56.034 152.286 55.416C151.26 54 149.286 56.448 149.286 56.448C149.286 56.448 145.32 54.972 141.366 56.142C138.144 57.096 137.088 60.498 137.088 60.498C137.088 60.498 135.396 61.212 135.06 62.556C134.724 63.9 137.598 70.044 138.996 69.774Z" fill="#263238"/>
<path d="M139.98 65.466C142.98 65.298 144.54 62.982 144.432 60.102H144.486C144.9 62.73 143.022 66.102 139.974 65.61C139.955 65.6092 139.937 65.6009 139.924 65.5868C139.911 65.5727 139.904 65.5541 139.905 65.535C139.906 65.5159 139.914 65.4979 139.928 65.485C139.942 65.472 139.961 65.4652 139.98 65.466Z" fill="#263238"/>
<path d="M137.172 60.432C137.172 60.432 137.226 60.468 137.172 60.486C136.422 61.02 135.54 61.482 135.108 62.34C134.586 63.372 134.964 64.524 135.414 65.502C136.122 67.008 137.328 68.91 138.924 69.57C139.02 69.612 138.924 69.744 138.864 69.714C136.974 69.036 135.474 66.552 134.88 64.728C134.25 62.688 135.324 61.254 137.172 60.432Z" fill="#263238"/>
<path d="M147.876 61.128C148.629 61.4238 149.452 61.4898 150.242 61.3179C151.033 61.146 151.754 60.7438 152.316 60.162C153.636 58.686 152.952 56.82 151.992 55.362C151.944 55.29 152.034 55.182 152.1 55.248C153.27 56.484 153.738 58.62 152.7 60.09C151.662 61.56 149.376 62.01 147.786 61.362C147.66 61.29 147.744 61.074 147.876 61.128Z" fill="#263238"/>
<path d="M140.502 70.26C140.502 70.26 138.138 67.296 136.782 68.154C135.426 69.012 137.334 73.404 139.026 73.914C139.238 73.9943 139.464 74.0308 139.691 74.0214C139.917 74.012 140.139 73.9569 140.344 73.8593C140.548 73.7618 140.731 73.6239 140.881 73.4538C141.031 73.2838 141.145 73.0852 141.216 72.87L140.502 70.26Z" fill="#D3766A"/>
<path d="M137.358 69.402C137.358 69.402 137.358 69.438 137.358 69.444C138.558 69.84 139.224 70.878 139.722 71.964C139.647 71.8522 139.55 71.7579 139.435 71.6875C139.321 71.6172 139.192 71.5725 139.059 71.5565C138.925 71.5405 138.79 71.5537 138.662 71.595C138.534 71.6364 138.417 71.7049 138.318 71.796C138.288 71.796 138.318 71.862 138.354 71.856C138.553 71.7782 138.771 71.7641 138.979 71.8157C139.186 71.8673 139.373 71.982 139.512 72.144C139.745 72.4141 139.946 72.71 140.112 73.026C140.172 73.128 140.358 73.062 140.31 72.948C140.232 71.442 138.954 69.45 137.358 69.402Z" fill="#263238"/>
<path d="M149.82 81.942L147.792 87.702L140.454 80.844L138.558 83.244C138.558 83.244 145.926 94.32 145.95 93.804L148.068 88.83L151.584 92.076L150.942 83.574L149.82 81.942Z" fill="#FB7D47"/>
<path d="M151.506 87.84C151.35 86.436 151.236 85.02 151.02 83.64C151.02 83.592 150.93 83.574 150.924 83.64C150.702 85.008 151.314 90.36 151.362 91.65C151.218 91.512 148.116 88.8 148.086 88.848C147.618 89.646 146.058 93.27 145.956 93.594C144.786 91.836 140.34 85.446 138.978 83.796C138.971 83.7849 138.96 83.777 138.947 83.7742C138.934 83.7714 138.92 83.7738 138.909 83.781C138.898 83.7882 138.89 83.7995 138.887 83.8124C138.884 83.8253 138.887 83.8389 138.894 83.85C139.938 85.716 145.836 94.32 145.914 94.296C146.745 92.5819 147.486 90.8255 148.134 89.034C148.662 89.634 151.812 92.706 151.812 92.496C151.79 90.9398 151.687 89.3858 151.506 87.84Z" fill="#263238"/>
<path d="M191.64 40.662C191.644 42.9206 191.02 45.1359 189.836 47.0595C188.653 48.9832 186.957 50.5392 184.938 51.5533C182.92 52.5674 180.66 52.9994 178.41 52.801C176.16 52.6026 174.01 51.7816 172.2 50.43L166.236 51.954L168.72 46.404C167.847 44.773 167.357 42.9645 167.288 41.1159C167.219 39.2672 167.573 37.4272 168.322 35.7357C169.071 34.0442 170.195 32.5457 171.611 31.3542C173.026 30.1627 174.694 29.3095 176.488 28.8595C178.282 28.4095 180.156 28.3746 181.966 28.7573C183.775 29.1401 185.474 29.9304 186.933 31.0684C188.391 32.2063 189.571 33.6617 190.383 35.3241C191.194 36.9865 191.616 38.8121 191.616 40.662H191.64Z" fill="white"/>
<path d="M191.64 40.662C191.64 42.9172 191.017 45.1286 189.84 47.052C189.546 47.5312 189.224 47.992 188.874 48.432C188.512 48.8563 188.123 49.2571 187.71 49.632C186.054 51.1794 184.002 52.2385 181.782 52.692C181.228 52.8035 180.666 52.8737 180.102 52.902C179.537 52.947 178.969 52.947 178.404 52.902C176.123 52.7318 173.935 51.9275 172.086 50.58L172.266 50.616L166.326 52.2L165.798 52.344L166.02 51.84L168.48 46.278V46.536C167.589 44.8875 167.086 43.0575 167.008 41.1851C166.931 39.3128 167.282 37.4475 168.035 35.7314C168.788 34.0152 169.922 32.4933 171.351 31.2817C172.781 30.07 174.468 29.2004 176.284 28.7392C178.1 28.2779 179.998 28.2371 181.832 28.62C183.667 29.0028 185.39 29.799 186.87 30.9482C188.35 32.0974 189.549 33.5691 190.374 35.2514C191.2 36.9336 191.631 38.7821 191.634 40.656L191.64 40.662ZM191.64 40.662C191.646 38.8201 191.227 37.0017 190.417 35.3475C189.607 33.6933 188.427 32.2477 186.969 31.1229C185.51 29.998 183.812 29.2239 182.007 28.8606C180.201 28.4974 178.336 28.5546 176.556 29.028C174.786 29.4855 173.145 30.3413 171.756 31.53C170.406 32.7247 169.33 34.1961 168.6 35.844C167.876 37.5006 167.535 39.2994 167.604 41.106C167.683 42.9081 168.161 44.6702 169.002 46.266L169.068 46.392L169.014 46.518L166.506 52.062L166.2 51.696L172.2 50.226H172.302L172.38 50.292C174.147 51.6399 176.253 52.4707 178.464 52.692C179.016 52.747 179.572 52.757 180.126 52.722C180.679 52.703 181.231 52.6448 181.776 52.548C182.871 52.3506 183.933 52.0012 184.932 51.51C185.937 51.025 186.865 50.3942 187.686 49.638C188.098 49.2606 188.489 48.8599 188.856 48.438C189.208 48.0022 189.532 47.5454 189.828 47.07C191.013 45.1425 191.64 42.9244 191.64 40.662Z" fill="#263238"/>
<path d="M179.91 40.092V35.598C180.815 35.7489 181.669 36.1175 182.4 36.672C182.552 36.8006 182.747 36.8689 182.946 36.864C183.154 36.8705 183.356 36.7949 183.509 36.6534C183.662 36.5119 183.753 36.316 183.762 36.108C183.756 35.9707 183.715 35.8373 183.642 35.7206C183.57 35.604 183.468 35.508 183.348 35.442C182.345 34.7267 181.176 34.2804 179.952 34.146V33.696C179.935 33.5017 179.846 33.3209 179.702 33.1891C179.558 33.0574 179.37 32.9843 179.175 32.9843C178.98 32.9843 178.792 33.0574 178.648 33.1891C178.504 33.3209 178.415 33.5017 178.398 33.696V34.098C175.968 34.26 174.24 35.73 174.24 37.698C174.24 39.666 175.5 40.698 178.44 41.352V45.942C177.187 45.7754 176.013 45.2384 175.068 44.4C174.914 44.2653 174.715 44.1926 174.51 44.196C174.306 44.1973 174.111 44.2762 173.964 44.4167C173.817 44.5573 173.729 44.7488 173.718 44.952C173.721 45.0711 173.752 45.1878 173.81 45.2922C173.867 45.3966 173.949 45.4857 174.048 45.552C175.285 46.5696 176.797 47.1962 178.392 47.352V48.51C178.409 48.7043 178.498 48.8851 178.642 49.0169C178.786 49.1486 178.974 49.2217 179.169 49.2217C179.364 49.2217 179.552 49.1486 179.696 49.0169C179.84 48.8851 179.929 48.7043 179.946 48.51V47.4C182.46 47.226 184.188 45.756 184.188 43.758C184.2 41.832 182.868 40.704 179.91 40.092ZM178.434 39.78C176.268 39.246 175.842 38.58 175.842 37.596C175.842 36.486 176.916 35.646 178.434 35.52V39.78ZM182.58 43.8C182.58 45 181.494 45.828 179.91 45.954V41.634C182.13 42.144 182.58 42.822 182.58 43.8Z" fill="#FB7D47"/>
</svg>
